# Mirrorly browser-ready derivative; original source and license metadata remain in this folder.
# Rebuild with scripts/Build-Mirrorly3DAssets.ps1. Shape: Fade
mtllib mirrorly.mtl
# This is a mesh file for MakeHuman
#
# This asset was explicitly released as CC0 in september 2020. The license
# text for CC0 can be found in the root of this repository.
#
# The copyright holders at the point of the release to CC0 were:
#
# Copyright (C) 2020 Data Collection AB, https://www.datacollection.se
# Copyright (C) 2020 Joel Palmius
# Copyright (C) 2020 Jonas Hauquier
#
# The primary legal contact for MakeHuman is Data Collection AB.
#
# For more information, see homepage at http://www.makehumancommunity.org
#
# basemesh hm08
v 0.476900 7.707600 1.305400
v 0.493300 7.619000 1.299400
v 0.692500 7.797600 1.031500
v 0.669800 7.601400 1.013700
v 0.452300 7.812600 1.281600
v 0.633500 8.016600 1.025900
v 0.399100 7.903200 1.296200
v 0.534200 8.185400 1.072700
v 0.323100 7.940300 1.340400
v 0.387300 8.293000 1.103200
v 0.198200 7.945900 1.404800
v 0.211700 8.319200 1.148700
v 0.445100 8.395100 0.775600
v 0.249900 8.475600 0.805900
v 0.758800 7.761100 0.751800
v 0.715000 7.545000 0.798300
v 0.715700 7.998100 0.736600
v 0.613200 8.213200 0.748700
v 0.557100 7.738500 1.208000
v 0.565200 7.622600 1.218000
v 0.513100 7.875700 1.214300
v 0.453200 7.993600 1.226900
v 0.358500 8.055500 1.258600
v 0.204000 8.063600 1.341000
v 0.547300 7.472000 1.255800
v 0.662000 7.404500 1.001200
v 0.713600 7.365500 0.826900
v 0.605700 7.451600 1.164900
v 0.621900 6.988400 1.144100
v 0.555660 6.959400 0.924904
v 0.569268 6.955800 0.831976
v 0.636100 6.971900 1.095200
v 0.640500 7.109300 1.107900
v 0.627100 7.270500 1.129900
v 0.596300 7.291700 1.197200
v 0.616700 7.125900 1.166200
v 0.694000 7.074700 0.873500
v 0.709300 7.212800 0.853700
v 0.674700 7.238700 0.995000
v 0.671800 7.087700 0.998000
v 0.779400 7.638300 0.515400
v 0.773800 7.461600 0.603300
v 0.752300 7.894800 0.440000
v 0.740900 7.320700 0.692000
v 0.687200 6.960400 0.805600
v 0.704400 7.072900 0.779300
v 0.724800 7.195200 0.745600
v 0.753300 7.332400 0.459700
v 0.753100 7.285800 0.599100
v 0.727100 7.182900 0.682300
v 0.709400 7.079000 0.693300
v 0.694500 6.960800 0.712200
v 0.737100 7.718000 0.207000
v 0.731600 7.124600 0.481300
v 0.686900 7.082500 0.554700
v 0.564648 6.892400 0.429640
v 0.614712 6.937100 0.551696
v 0.534240 6.814300 0.482704
v 0.576576 6.834300 0.567096
v 0.514164 6.913400 1.037720
v 0.542052 6.889200 0.929568
v 0.557256 6.890100 0.844736
v 0.524580 6.899100 1.000232
v 0.567336 6.896400 0.766592
v 0.571032 6.891700 0.679296
v 0.751900 7.428600 0.312500
v 0.707400 7.111800 0.337100
v 0.553896 6.929800 0.412304
v 0.474516 6.770400 0.369800
v 0.675800 7.546100 0.035300
v 0.681300 7.308100 0.116800
v 0.587100 7.370000 -0.094800
v 0.571200 7.172400 -0.025900
v 0.476200 7.230500 -0.196300
v 0.468500 7.046700 -0.137500
v 0.628700 7.078700 0.179200
v 0.449736 6.950800 0.067784
v 0.390936 6.844800 -0.036320
v 0.472584 6.829200 0.227504
v 0.430416 6.744700 0.122872
v 0.373968 6.665100 -0.008600
v 0.449568 6.696600 0.265432
v 0.416892 6.627900 0.151208
v 0.382704 6.576400 0.016832
v 0.656400 8.139200 0.396200
v 0.661900 7.984600 0.113300
v 0.606200 7.791600 -0.073800
v 0.534800 7.570700 -0.195400
v 0.477800 7.394400 -0.248400
v 0.501300 8.342700 0.371700
v 0.501500 8.208000 0.030900
v 0.474100 8.009100 -0.180400
v 0.421200 7.751200 -0.306900
v 0.374100 7.432600 -0.339200
v 0.345000 7.189800 -0.321100
v 0.328500 7.004300 -0.271200
v 0.268632 6.806300 -0.156792
v 0.260148 6.606800 -0.118072
v 0.245784 6.524400 -0.118072
v 0.241500 7.836100 -0.370900
v 0.208100 7.496700 -0.405000
v 0.257200 8.126300 -0.227400
v 0.283400 8.321500 -0.017300
v 0.276000 8.472200 0.352200
v 0.132300 6.567800 -0.155120
v 0.109788 6.483800 -0.137168
v 0.146160 6.782600 -0.201056
v 0.178100 7.006000 -0.370700
v 0.188100 7.190400 -0.399000
v -0.476900 7.707600 1.305400
v -0.493300 7.619000 1.299400
v -0.692500 7.797600 1.031500
v -0.669800 7.601400 1.013700
v -0.452300 7.812600 1.281600
v -0.633500 8.016600 1.025900
v -0.399100 7.903200 1.296200
v -0.534200 8.185400 1.072700
v -0.323100 7.940300 1.340400
v -0.387300 8.293000 1.103200
v -0.198200 7.945900 1.404800
v -0.211700 8.319200 1.148700
v 0.000000 7.964900 1.425600
v -0.004700 8.364800 1.112100
v -0.445100 8.395100 0.775600
v -0.249900 8.475600 0.805900
v -0.003200 8.496000 0.785800
v -0.758800 7.761100 0.751800
v -0.714300 7.545300 0.798200
v -0.715700 7.998100 0.736600
v -0.613200 8.213200 0.748700
v -0.557100 7.738500 1.208000
v -0.565200 7.622600 1.218000
v -0.513100 7.875700 1.214300
v -0.453200 7.993600 1.226900
v -0.358500 8.055500 1.258600
v -0.204000 8.063600 1.341000
v 0.000000 8.085400 1.375800
v -0.547300 7.472000 1.255800
v -0.662000 7.404500 1.001200
v -0.710700 7.366900 0.826400
v -0.605700 7.451600 1.164900
v -0.621900 6.988400 1.144100
v -0.555660 6.959400 0.924904
v -0.569268 6.955800 0.831976
v -0.636100 6.971900 1.095200
v -0.640500 7.109300 1.107900
v -0.627100 7.270500 1.129900
v -0.596300 7.291700 1.197200
v -0.616700 7.125900 1.166200
v -0.694000 7.074700 0.873500
v -0.707700 7.213600 0.853400
v -0.674700 7.238700 0.995000
v -0.671800 7.087700 0.998000
v -0.779400 7.638300 0.515400
v -0.771600 7.462700 0.602900
v -0.752300 7.894800 0.440000
v -0.735900 7.323100 0.691100
v -0.687200 6.960400 0.805600
v -0.704100 7.073100 0.779200
v -0.721800 7.196700 0.745000
v -0.752500 7.332800 0.459500
v -0.749300 7.287700 0.598400
v -0.724100 7.184400 0.681800
v -0.708700 7.079300 0.693200
v -0.694500 6.960800 0.712200
v -0.737100 7.718000 0.207000
v -0.731500 7.124600 0.481300
v -0.686900 7.082500 0.554700
v -0.564648 6.892400 0.429640
v -0.614712 6.937100 0.551696
v -0.534240 6.814300 0.482704
v -0.576576 6.834300 0.567096
v -0.514164 6.913400 1.037720
v -0.542052 6.889200 0.929568
v -0.557256 6.890100 0.844736
v -0.524580 6.899100 1.000232
v -0.567336 6.896400 0.766592
v -0.571032 6.891700 0.679296
v -0.751900 7.428600 0.312500
v -0.707400 7.111800 0.337100
v -0.553896 6.929800 0.412304
v -0.474516 6.770400 0.369800
v -0.675800 7.546100 0.035300
v -0.681300 7.308100 0.116800
v -0.587100 7.370000 -0.094800
v -0.571200 7.172400 -0.025900
v -0.476200 7.230500 -0.196300
v -0.468500 7.046700 -0.137500
v -0.628700 7.078700 0.179200
v -0.449736 6.950800 0.067784
v -0.390936 6.844800 -0.036320
v -0.472584 6.829200 0.227504
v -0.430416 6.744700 0.122872
v -0.373968 6.665100 -0.008600
v -0.449568 6.696600 0.265432
v -0.416892 6.627900 0.151208
v -0.382704 6.576400 0.016832
v -0.656400 8.139200 0.396200
v -0.661900 7.984600 0.113300
v -0.606200 7.791600 -0.073800
v -0.534800 7.570700 -0.195400
v -0.477800 7.394400 -0.248400
v -0.501300 8.342700 0.371700
v -0.501500 8.208000 0.030900
v -0.474100 8.009100 -0.180400
v -0.421200 7.751200 -0.306900
v -0.374100 7.432600 -0.339200
v -0.345000 7.189800 -0.321100
v -0.328500 7.004300 -0.271200
v -0.268632 6.806300 -0.156792
v -0.260148 6.606800 -0.118072
v -0.245784 6.524400 -0.118072
v -0.005500 8.510800 0.317000
v -0.005100 8.362700 -0.047300
v -0.006700 8.158900 -0.241700
v -0.010200 7.873600 -0.384700
v 0.001900 7.521800 -0.421600
v 0.005500 7.200000 -0.427000
v -0.001600 6.994400 -0.375900
v 0.006804 6.772600 -0.211088
v 0.020496 6.581500 -0.157056
v 0.012096 6.472100 -0.126608
v -0.241500 7.836100 -0.370900
v -0.208100 7.496700 -0.405000
v -0.257200 8.126300 -0.227400
v -0.283400 8.321500 -0.017300
v -0.276000 8.472200 0.352200
v -0.132300 6.567800 -0.155120
v -0.109788 6.483800 -0.137168
v -0.146160 6.782600 -0.201056
v -0.178100 7.006000 -0.370700
v -0.188100 7.190400 -0.399000
v 0.621100 7.612600 1.137500
v 0.623000 7.788000 1.125100
v 0.571200 7.961900 1.130500
v 0.496400 8.103200 1.150600
v 0.372400 8.189800 1.181000
v 0.200100 8.204500 1.253800
v 0.000000 8.252600 1.233800
v 0.633400 7.428000 1.082700
v 0.648800 6.965600 1.049200
v 0.651300 7.254700 1.062800
v 0.656800 7.098500 1.053200
v 0.533316 6.894200 0.964944
v -0.621100 7.612600 1.137500
v -0.623000 7.788000 1.125100
v -0.571200 7.961900 1.130500
v -0.496400 8.103200 1.150600
v -0.372400 8.189800 1.181000
v -0.200100 8.204500 1.253800
v -0.633400 7.428000 1.082700
v -0.648800 6.965600 1.049200
v -0.651300 7.254700 1.062800
v -0.656800 7.098500 1.053200
v -0.533316 6.894200 0.964944
v 0.099100 7.955200 1.414900
v 0.103500 8.342000 1.130400
v 0.123300 8.485800 0.795900
v 0.102700 8.077000 1.362800
v 0.105000 7.509200 -0.413300
v 0.060984 6.477900 -0.131888
v 0.115700 7.854900 -0.377800
v 0.125300 8.142600 -0.234500
v 0.139200 8.342100 -0.032300
v 0.135200 8.491500 0.334600
v 0.076356 6.574700 -0.156088
v 0.076524 6.777600 -0.206072
v 0.088300 7.000200 -0.373300
v 0.096800 7.195200 -0.413000
v 0.100100 8.228500 1.243800
v -0.099100 7.955200 1.414900
v -0.103500 8.342000 1.130400
v -0.123300 8.485800 0.795900
v -0.102700 8.077000 1.362800
v -0.105000 7.509200 -0.413300
v -0.060984 6.477900 -0.131888
v -0.115700 7.854900 -0.377800
v -0.125300 8.142600 -0.234500
v -0.139200 8.342100 -0.032300
v -0.135200 8.491500 0.334600
v -0.076356 6.574700 -0.156088
v -0.076524 6.777600 -0.206072
v -0.088300 7.000200 -0.373300
v -0.096800 7.195200 -0.413000
v -0.100100 8.228500 1.243800
v 0.468700 7.823100 1.265900
v 0.646700 8.028700 0.998300
v 0.408800 7.927600 1.281000
v 0.553900 8.216400 1.026900
v 0.205900 7.975000 1.385600
v 0.224600 8.348900 1.086100
v 0.265200 8.486400 0.776300
v 0.717500 8.007700 0.738900
v 0.619400 8.238800 0.739000
v 0.526900 7.906800 1.213000
v 0.459200 8.030000 1.218900
v 0.207500 8.067200 1.334400
v 0.752600 7.905600 0.456200
v 0.744100 7.739100 0.219900
v 0.727600 7.608900 0.080700
v 0.381000 7.034100 -0.277000
v 0.273084 6.851300 -0.208800
v 0.170772 6.676500 -0.190848
v 0.116256 6.557900 -0.201056
v 0.656800 8.163300 0.399300
v 0.654400 8.009400 0.111100
v 0.626700 7.825500 -0.089700
v 0.568900 7.622900 -0.170900
v 0.539300 7.469500 -0.225800
v 0.256800 7.856600 -0.369700
v 0.231500 7.576600 -0.384500
v 0.279600 8.137900 -0.239700
v 0.296700 8.348600 -0.005400
v 0.287900 8.475800 0.355200
v 0.120456 6.619000 -0.187240
v 0.118104 6.530500 -0.182752
v 0.125916 6.810400 -0.240744
v 0.167700 6.998700 -0.398400
v 0.202200 7.222500 -0.434300
v -0.510400 7.624300 1.279400
v -0.691100 7.627700 1.002200
v -0.468700 7.823100 1.265900
v -0.659900 8.029700 0.998500
v -0.205900 7.975000 1.385600
v -0.224900 8.347800 1.087400
v 0.006300 7.994600 1.412900
v 0.002300 8.387700 1.058200
v -0.282200 8.475400 0.767800
v 0.004200 8.503900 0.737400
v -0.714700 7.577300 0.797100
v -0.723600 8.006800 0.734900
v -0.562300 7.624200 1.217800
v -0.514100 7.875000 1.211300
v -0.207500 8.067200 1.334400
v 0.004300 8.092800 1.359900
v -0.773900 7.486900 0.608300
v -0.759800 7.902900 0.453600
v -0.783300 7.345800 0.478300
v -0.745100 7.738000 0.221200
v -0.747900 7.151100 0.474800
v -0.589596 6.957000 0.470120
v -0.559524 6.864100 0.475136
v -0.686600 7.566400 0.045400
v -0.610800 7.399200 -0.093200
v -0.530500 7.286100 -0.172900
v 0.002600 8.515900 0.321500
v 0.002000 8.373100 -0.039000
v -0.002700 8.176900 -0.260900
v -0.003500 7.894100 -0.395200
v 0.003200 7.601600 -0.444500
v 0.004100 6.999500 -0.379900
v 0.010584 6.813900 -0.227456
v 0.018144 6.624500 -0.192608
v 0.016212 6.532000 -0.159168
v -0.295700 7.827400 -0.360200
v -0.175900 7.554200 -0.425300
v -0.349600 8.122200 -0.233400
v -0.343100 8.314200 -0.008200
v -0.356800 8.440000 0.330600
v -0.106848 6.631600 -0.187592
v -0.099540 6.544500 -0.163656
v -0.111636 6.824300 -0.245056
v -0.115200 7.010800 -0.385300
v 0.573400 7.981100 1.128400
v 0.503200 8.132400 1.143800
v 0.211000 8.223200 1.227000
v 0.005000 8.264300 1.218200
v -0.620000 7.618200 1.129900
v -0.584500 7.980600 1.120900
v -0.214300 8.227300 1.234300
v 0.094700 7.988100 1.407000
v 0.102900 8.374000 1.080200
v 0.117300 8.483500 0.756000
v 0.097600 8.082800 1.353300
v 0.105400 7.590300 -0.443000
v 0.063672 6.532000 -0.169640
v 0.112500 7.878300 -0.387500
v 0.119800 8.154800 -0.241200
v 0.130700 8.369000 -0.023000
v 0.131100 8.507700 0.334500
v 0.073416 6.622900 -0.192432
v 0.075516 6.815400 -0.231592
v 0.087100 7.002200 -0.386700
v 0.099500 8.260600 1.234400
v 0.472100 7.811000 1.266800
v 0.486400 7.755300 1.275700
v 0.489800 7.743200 1.276600
v 0.692700 7.872300 1.001800
v 0.692700 7.902400 1.005300
v 0.653800 8.000400 0.999000
v 0.754800 7.834300 0.756300
v 0.756200 7.867800 0.756800
v 0.728900 7.976700 0.742500
v 0.558500 7.806200 1.213400
v 0.550000 7.825900 1.207700
v 0.525700 7.885600 1.203000
v 0.778700 7.716300 0.507000
v 0.774900 7.751000 0.497900
v 0.756300 7.870900 0.465200
v 0.769000 7.539700 0.289900
v 0.761300 7.576200 0.277900
v 0.754400 7.704700 0.233600
v 0.719500 7.432100 0.144600
v 0.723900 7.458200 0.133800
v 0.720500 7.582800 0.092100
v 0.433500 7.187400 -0.257100
v 0.004000 7.069300 -0.408400
v 0.005100 7.112000 -0.413000
v 0.172700 7.072300 -0.401400
v 0.187300 7.143900 -0.421000
v -0.472100 7.811000 1.266800
v -0.486400 7.755300 1.275700
v -0.489800 7.743200 1.276600
v -0.687100 7.869900 0.997700
v -0.680000 7.898200 0.997000
v -0.667000 8.001400 0.999200
v -0.755100 7.832700 0.752500
v -0.736100 7.861500 0.745000
v -0.729300 7.975100 0.738600
v -0.544800 7.773800 1.210800
v -0.539400 7.792200 1.210600
v -0.519600 7.856600 1.211500
v -0.778600 7.712300 0.499800
v -0.788900 7.747700 0.489100
v -0.784500 7.869000 0.455100
v -0.763100 7.536200 0.284500
v -0.775000 7.572700 0.270600
v -0.755500 7.702200 0.231800
v -0.701500 7.390400 0.100000
v -0.701100 7.422500 0.088700
v -0.695200 7.534200 0.055000
v -0.598100 7.248800 -0.039600
v -0.592100 7.277700 -0.044800
v -0.596900 7.371100 -0.078000
v -0.524300 7.153600 -0.131100
v -0.520500 7.171500 -0.134100
v -0.517500 7.266000 -0.161200
v -0.105900 7.180900 -0.427000
v 0.620700 7.855300 1.123100
v 0.625500 7.879700 1.131400
v 0.602300 7.961100 1.130900
v -0.591400 7.957100 1.120500
v -0.626100 7.878200 1.126900
v -0.625600 7.852800 1.122900
v 0.088300 7.073000 -0.405300
v 0.093900 7.188400 -0.436300
v 0.437200 7.882300 1.272500
v 0.442900 7.871900 1.271100
v 0.616000 8.116600 1.015600
v 0.595800 8.136700 1.017900
v 0.672700 8.107300 0.742100
v 0.671800 8.142000 0.744400
v 0.490300 7.964700 1.211200
v 0.488900 7.983000 1.213800
v 0.524400 7.413400 -0.236100
v 0.687300 7.763600 0.017200
v 0.686700 7.736800 0.030300
v 0.712800 7.900700 0.167200
v 0.717900 7.866300 0.184700
v 0.698600 8.052800 0.432100
v 0.723900 8.025800 0.436300
v 0.005600 7.489200 -0.450200
v 0.007700 7.296400 -0.455700
v 0.217700 7.341900 -0.432300
v 0.224600 7.452600 -0.395600
v -0.437200 7.882300 1.272500
v -0.442900 7.871900 1.271100
v -0.608900 8.112300 1.011000
v -0.596400 8.135500 1.015200
v -0.664600 8.105500 0.738000
v -0.672600 8.140700 0.739400
v -0.503400 7.965300 1.221800
v -0.487800 7.978100 1.215300
v -0.591700 7.523600 -0.153700
v -0.578100 7.499000 -0.130400
v -0.526300 7.376100 -0.205400
v -0.523800 7.394300 -0.213000
v -0.647700 7.713600 -0.016700
v -0.676400 7.683900 -0.013500
v -0.712400 7.898900 0.161400
v -0.722900 7.864800 0.172800
v -0.712300 8.056900 0.425700
v -0.711200 8.020400 0.430500
v -0.139000 7.392800 -0.439000
v 0.549800 8.055200 1.131200
v 0.549000 8.074800 1.144400
v -0.541900 8.070500 1.139800
v -0.542100 8.047400 1.128300
v 0.098300 7.353800 -0.438200
v 0.351900 7.958600 1.309500
v 0.360400 7.953600 1.305700
v 0.400300 7.932600 1.284800
v 0.528400 8.226800 1.029000
v 0.458400 8.275000 1.041900
v 0.433500 8.285800 1.042100
v 0.494800 8.359700 0.750700
v 0.509000 8.326000 0.743800
v 0.592200 8.255600 0.739200
v 0.441700 8.037700 1.220600
v 0.400700 8.064600 1.234400
v 0.389200 8.075000 1.243400
v 0.483900 7.732700 -0.264900
v 0.494000 7.711400 -0.244500
v 0.557900 7.644400 -0.190000
v 0.519200 7.480100 -0.232800
v 0.516700 7.977800 -0.147100
v 0.542100 7.953700 -0.136000
v 0.608800 7.853500 -0.103200
v 0.561800 8.179200 0.049400
v 0.582100 8.150300 0.059300
v 0.640900 8.041000 0.096900
v 0.540600 8.312600 0.380600
v 0.568900 8.289300 0.381200
v 0.629500 8.188200 0.395100
v 0.160776 6.668700 -0.197800
v 0.170100 6.678300 -0.173424
v 0.149688 6.668300 -0.212936
v 0.108024 6.558600 -0.215312
v 0.150780 6.598500 -0.165416
v 0.145824 6.590000 -0.185656
v 0.215376 6.840100 -0.211264
v 0.225792 6.847400 -0.191640
v 0.245700 6.850000 -0.207744
v 0.318500 7.014100 -0.291300
v 0.339300 7.019200 -0.278000
v 0.355400 7.030200 -0.290400
v 0.481400 8.143500 1.144700
v 0.429800 8.184400 1.162600
v 0.417700 8.199700 1.172100
v 0.414400 7.196300 -0.288700
v 0.386500 7.194000 -0.296600
v 0.419400 7.178300 -0.281500
v 0.369100 7.084100 -0.283100
v 0.341000 7.081200 -0.291900
v 0.509800 7.416200 -0.249000
v 0.448500 7.409900 -0.283600
v 0.448000 7.409700 -0.312000
v 0.440900 7.277400 -0.290100
v 0.418100 7.275400 -0.300500
v 0.219900 7.974300 1.378300
v 0.285300 7.971300 1.344300
v 0.299300 7.970600 1.336900
v 0.364100 8.340600 1.063200
v 0.337000 8.337900 1.067700
v 0.253500 8.352800 1.089400
v 0.410100 8.428200 0.759400
v 0.383700 8.438800 0.762300
v 0.291600 8.475800 0.773400
v 0.321700 8.087100 1.254900
v 0.301500 8.088300 1.265000
v 0.227700 8.066000 1.324300
v 0.278400 7.842500 -0.354100
v 0.369000 7.801100 -0.322500
v 0.397400 7.793200 -0.327600
v 0.311400 8.129300 -0.237400
v 0.410700 8.071800 -0.206700
v 0.437600 8.054100 -0.195100
v 0.325900 8.332800 0.000000
v 0.428100 8.260200 0.018400
v 0.463800 8.256400 0.020300
v 0.316700 8.460700 0.357100
v 0.413400 8.392800 0.368600
v 0.442200 8.377700 0.370500
v 0.139020 6.619600 -0.194104
v 0.069300 6.599200 -0.245232
v 0.082488 6.607100 -0.229568
v 0.146076 6.811500 -0.239600
v 0.136836 6.797900 -0.251656
v 0.149268 6.805700 -0.233440
v 0.191600 6.997500 -0.394000
v 0.225700 6.997000 -0.363700
v 0.234500 7.003800 -0.333200
v 0.216200 7.226800 -0.412700
v 0.355900 7.525900 -0.366300
v 0.337300 7.533600 -0.379300
v 0.265400 7.543300 -0.377200
v 0.054180 6.521300 -0.228776
v 0.045360 6.514800 -0.239688
v 0.129360 6.536000 -0.175096
v 0.340800 8.220900 1.186000
v 0.312800 8.216700 1.183800
v 0.233500 8.221100 1.217900
v 0.289000 7.191300 -0.354000
v 0.279100 7.188000 -0.384300
v 0.211700 7.141900 -0.416700
v 0.263900 7.075100 -0.345100
v 0.242700 7.074400 -0.358300
v 0.200400 7.066200 -0.409000
v 0.295700 7.278200 -0.366200
v 0.316100 7.276600 -0.356500
v 0.227900 7.340600 -0.403300
v 0.244800 7.446600 -0.386000
v 0.329200 7.434300 -0.390400
v 0.344000 7.429100 -0.369200
v 0.145300 7.982100 1.398800
v 0.155300 7.980900 1.396900
v 0.174000 7.868800 -0.381300
v 0.188300 7.861400 -0.371100
v 0.187000 8.147100 -0.237600
v 0.205700 8.148800 -0.242100
v 0.198800 8.360700 -0.001600
v 0.221300 8.354900 -0.024800
v 0.195400 8.492900 0.354600
v 0.214000 8.488800 0.345600
v 0.101136 6.624900 -0.180024
v 0.108780 6.624800 -0.179936
v 0.110460 6.815400 -0.231240
v 0.117348 6.816500 -0.228864
v 0.131500 7.003800 -0.387600
v 0.142700 7.007200 -0.376000
v 0.142500 7.228100 -0.442000
v 0.154800 7.227500 -0.440200
v 0.170400 8.368400 1.088600
v 0.155600 8.371100 1.086700
v 0.195400 8.489800 0.768700
v 0.179600 8.498300 0.765000
v 0.158800 8.073900 1.344100
v 0.145500 8.076000 1.345700
v 0.171000 7.575100 -0.426500
v 0.156500 7.576900 -0.427600
v 0.097020 6.533400 -0.171576
v 0.091728 6.533400 -0.171400
v 0.161400 8.248500 1.240700
v 0.147800 8.251300 1.240200
v 0.152200 7.186200 -0.430400
v 0.140600 7.186100 -0.436100
v 0.144500 7.076400 -0.397100
v 0.132700 7.074400 -0.401700
v 0.151200 7.474200 -0.440700
v 0.164000 7.466100 -0.426800
v 0.083800 8.372200 1.072500
v 0.020800 8.384400 1.060600
v 0.097500 8.494000 0.752200
v 0.025400 8.513000 0.746400
v 0.080700 8.084800 1.354100
v 0.021200 8.090900 1.359100
v 0.083600 7.585500 -0.426500
v 0.022300 7.606100 -0.446400
v 0.057120 6.532000 -0.169376
v 0.022680 6.532000 -0.159432
v 0.081000 8.252500 1.230600
v 0.023300 8.276700 1.229700
v 0.019000 7.993600 1.411800
v 0.082000 7.989100 1.408100
v 0.018000 7.898200 -0.398000
v 0.089300 7.874900 -0.377500
v 0.020800 8.180900 -0.263800
v 0.098700 8.162700 -0.249400
v 0.024000 8.388600 -0.048600
v 0.109100 8.370400 -0.036000
v 0.026900 8.520000 0.319400
v 0.106700 8.497500 0.327300
v 0.027720 6.625500 -0.189352
v 0.063840 6.623000 -0.192520
v 0.020748 6.812500 -0.233968
v 0.064176 6.813500 -0.235112
v 0.019100 6.999000 -0.384600
v 0.071800 7.001000 -0.382700
v 0.079500 7.188000 -0.444000
v 0.019800 7.107400 -0.427200
v 0.071900 7.073700 -0.396800
v 0.019000 7.070000 -0.407600
v 0.024100 7.294800 -0.459500
v 0.082000 7.355500 -0.429700
v 0.022400 7.487400 -0.448600
v -0.079200 8.393900 1.078800
v -0.061800 8.397200 1.076500
v -0.090200 8.507300 0.761100
v -0.070700 8.509900 0.758800
v -0.072000 8.085100 1.354400
v -0.055100 8.087200 1.355500
v -0.037200 7.589600 -0.432400
v -0.021800 7.591300 -0.439100
v -0.044016 6.532600 -0.164712
v -0.033348 6.531300 -0.168232
v -0.056200 7.989700 1.406900
v -0.068800 7.988600 1.405400
v -0.050000 7.876600 -0.390700
v -0.072400 7.881400 -0.390000
v -0.070800 8.158400 -0.248200
v -0.095200 8.164900 -0.254400
v -0.077200 8.372300 -0.035300
v -0.097300 8.362200 -0.028700
v -0.071900 8.497100 0.337900
v -0.099000 8.511600 0.335600
v -0.034440 6.630300 -0.173688
v -0.049056 6.630100 -0.173600
v -0.039900 6.813300 -0.232824
v -0.053676 6.816000 -0.226928
v -0.042000 7.000200 -0.383700
v -0.056700 7.003100 -0.377700
v -0.056600 8.262800 1.221100
v -0.074300 8.267200 1.230100
v -0.028800 7.152100 -0.416200
v -0.044700 7.152000 -0.414600
v -0.035500 7.107200 -0.424600
v -0.048500 7.110900 -0.414300
v -0.034700 7.288800 -0.432700
v -0.018400 7.289000 -0.441500
v -0.030400 7.477800 -0.430200
v -0.012800 7.479600 -0.431800
v -0.130000 7.982600 1.398100
v -0.142500 7.981200 1.396200
v -0.173400 7.871800 -0.382600
v -0.193400 7.869000 -0.381400
v -0.217000 8.161900 -0.252200
v -0.238300 8.152900 -0.245000
v -0.227500 8.346500 -0.031200
v -0.250100 8.337100 -0.023200
v -0.177800 8.492700 0.340700
v -0.200900 8.489800 0.343200
v -0.092400 6.627700 -0.172896
v -0.102396 6.626100 -0.178264
v -0.095928 6.813200 -0.237488
v -0.104580 6.817600 -0.225784
v -0.083800 7.002000 -0.381600
v -0.097700 7.004900 -0.375800
v -0.052900 7.225200 -0.424400
v -0.070300 7.222700 -0.438600
v -0.131500 8.250200 1.234100
v -0.149300 8.251000 1.240000
v -0.153700 8.360400 1.079900
v -0.139400 8.381300 1.086800
v -0.180000 8.489800 0.766900
v -0.154700 8.487300 0.765000
v -0.146700 8.075400 1.345400
v -0.129900 8.077900 1.347300
v -0.099000 7.573300 -0.426200
v -0.083500 7.576700 -0.439200
v -0.090048 6.533800 -0.171224
v -0.083496 6.533800 -0.170960
v -0.073800 7.070200 -0.403600
v -0.085200 7.073400 -0.394300
v -0.066200 7.403100 -0.430900
v -0.049800 7.404700 -0.432700
v -0.075200 7.465600 -0.436600
v -0.057900 7.467000 -0.433000
v -0.219900 7.974300 1.378300
v -0.285300 7.971300 1.344300
v -0.299300 7.970600 1.336900
v -0.353100 8.321500 1.059200
v -0.332400 8.331500 1.071600
v -0.253700 8.353000 1.089500
v -0.406900 8.420700 0.757500
v -0.376000 8.424700 0.764200
v -0.305300 8.457100 0.765900
v -0.324700 8.092700 1.260700
v -0.310300 8.099500 1.282100
v -0.231800 8.092200 1.300700
v -0.318500 7.815700 -0.352200
v -0.369700 7.807400 -0.345500
v -0.388000 7.790500 -0.325800
v -0.369500 8.103600 -0.206100
v -0.408000 8.071100 -0.208600
v -0.434400 8.055300 -0.196300
v -0.381700 8.317000 -0.010500
v -0.435700 8.275100 0.006300
v -0.465000 8.259300 0.011700
v -0.379800 8.412200 0.334500
v -0.412000 8.393300 0.363000
v -0.440800 8.378200 0.364900
v -0.126168 6.634600 -0.189440
v -0.069468 6.637400 -0.208360
v -0.084084 6.643800 -0.197272
v -0.120456 6.833800 -0.220856
v -0.104244 6.823700 -0.241272
v -0.115584 6.830000 -0.223848
v -0.135600 7.012100 -0.372800
v -0.304600 7.516600 -0.392600
v -0.287300 7.529300 -0.407300
v -0.192100 7.543900 -0.403600
v -0.069636 6.564300 -0.173688
v -0.061572 6.557700 -0.184160
v -0.110628 6.550300 -0.155736
v -0.241600 8.235200 1.233800
v -0.321600 8.228000 1.201100
v -0.344100 8.225900 1.192000
v -0.130800 7.180400 -0.419400
v -0.192100 7.098400 -0.391100
v -0.214800 7.096800 -0.383600
v -0.240600 7.258400 -0.400900
v -0.221300 7.260100 -0.416400
v -0.154900 7.386700 -0.416600
v -0.273600 7.415200 -0.390300
v -0.258200 7.423100 -0.411700
v -0.356900 7.955900 1.306900
v -0.367600 7.949700 1.302100
v -0.463000 8.264800 1.032600
v -0.444100 8.290200 1.041200
v -0.509800 8.354700 0.753200
v -0.530900 8.321400 0.747000
v -0.400600 8.056100 1.228500
v -0.394200 8.071300 1.241100
v -0.479200 7.723000 -0.285300
v -0.487500 7.695400 -0.258500
v -0.530700 7.966400 -0.154000
v -0.569000 7.924400 -0.068100
v -0.559600 8.157300 0.057100
v -0.596100 8.128100 0.064500
v -0.549800 8.300700 0.382100
v -0.565000 8.258900 0.388000
v -0.119028 6.654300 -0.191816
v -0.137004 6.665900 -0.176064
v -0.122892 6.583600 -0.158376
v -0.104664 6.578300 -0.173072
v -0.181356 6.837500 -0.205192
v -0.202608 6.845300 -0.199296
v -0.257600 7.011100 -0.343400
v -0.290300 7.013400 -0.323500
v -0.415300 8.190500 1.160400
v -0.430200 8.171000 1.151600
v -0.297800 7.189300 -0.353500
v -0.324900 7.194600 -0.339500
v -0.353900 7.355500 -0.337300
v -0.374300 7.354200 -0.350200
v 0.501600 7.685900 1.280200
v 0.503100 7.673200 1.280400
v 0.702800 7.727600 1.005500
v 0.706700 7.760200 1.004500
v 0.747700 7.680900 0.780400
v 0.739900 7.717000 0.770300
v 0.572200 7.714000 1.216000
v 0.565300 7.734700 1.212700
v 0.775800 7.574800 0.564700
v 0.774300 7.603700 0.545500
v 0.575064 6.948900 0.399368
v 0.580188 6.953100 0.423216
v 0.533064 6.846100 0.425768
v 0.528024 6.842000 0.408256
v 0.747500 7.152400 0.382900
v 0.736500 7.151800 0.408200
v 0.784400 7.406300 0.394600
v 0.762100 7.394300 0.416400
v 0.643400 7.731700 1.131500
v 0.624600 7.759600 1.119900
v -0.500600 7.691800 1.280400
v -0.501900 7.681600 1.280600
v -0.509200 7.634600 1.279200
v -0.673300 7.654500 0.993400
v -0.705300 7.744500 1.002700
v -0.700300 7.771700 1.000000
v -0.741000 7.602000 0.796900
v -0.745700 7.699700 0.774100
v -0.750200 7.726500 0.768700
v -0.561200 7.640700 1.216900
v -0.557600 7.697000 1.213200
v -0.556600 7.713500 1.212300
v -0.768500 7.510700 0.596800
v -0.791800 7.586000 0.555700
v -0.794700 7.608100 0.543400
v -0.581280 6.926900 0.383264
v -0.578928 6.932300 0.399720
v -0.585732 6.952700 0.454280
v -0.551040 6.860500 0.463872
v -0.529452 6.837500 0.407552
v -0.528948 6.831400 0.395936
v -0.733000 7.149700 0.371000
v -0.735200 7.148600 0.390000
v -0.750000 7.148900 0.452200
v -0.771000 7.413900 0.384000
v -0.771000 7.402100 0.401600
v -0.770100 7.357700 0.463100
v -0.643700 7.767700 1.129900
v -0.622200 7.719600 1.125700
v -0.620600 7.640300 1.129300
vt 0.2970 0.9099
vt 0.2513 0.9239
vt 0.2425 0.8887
vt 0.2919 0.8815
vt 0.3421 0.8720
vt 0.3419 0.9026
vt 0.3835 0.8732
vt 0.3786 0.8978
vt 0.4190 0.8754
vt 0.4123 0.9014
vt 0.4530 0.8865
vt 0.4497 0.9196
vt 0.4729 0.9170
vt 0.4750 0.8830
vt 0.4965 0.8782
vt 0.4955 0.9125
vt 0.4750 0.8830
vt 0.4530 0.8865
vt 0.4517 0.8168
vt 0.4740 0.8152
vt 0.4152 0.8126
vt 0.3252 0.8118
vt 0.3708 0.8109
vt 0.2747 0.8179
vt 0.2238 0.8333
vt 0.2954 0.9815
vt 0.2667 0.9839
vt 0.2599 0.9511
vt 0.2929 0.9418
vt 0.3336 0.9362
vt 0.3290 0.9694
vt 0.3694 0.9305
vt 0.3638 0.9679
vt 0.3996 0.9367
vt 0.3927 0.9786
vt 0.4402 0.9596
vt 0.4334 0.9985
vt 0.4643 1.0021
vt 0.4680 0.9642
vt 0.4953 0.9654
vt 0.4952 1.0031
vt 0.2167 0.9719
vt 0.2060 0.9397
vt 0.1881 0.8905
vt 0.1772 0.8408
vt 0.2513 0.9239
vt 0.1964 0.9148
vt 0.1001 0.9242
vt 0.1053 0.9440
vt 0.0617 0.9360
vt 0.0569 0.9196
vt 0.0924 0.8501
vt 0.0943 0.8888
vt 0.0542 0.8893
vt 0.0548 0.8555
vt 0.0971 0.9064
vt 0.0555 0.9045
vt 0.1578 0.9541
vt 0.1501 0.9315
vt 0.1398 0.8887
vt 0.1337 0.8466
vt 0.1447 0.9100
vt 0.0943 0.8218
vt 0.1311 0.8154
vt 0.0587 0.8264
vt 0.1673 0.8036
vt 0.2057 0.7824
vt 0.2481 0.7650
vt 0.3033 0.7527
vt 0.1609 0.7774
vt 0.1778 0.7433
vt 0.1296 0.7974
vt 0.0992 0.7968
vt 0.0627 0.7971
vt 0.2065 0.7121
vt 0.2738 0.7009
vt 0.1074 0.7597
vt 0.1223 0.7378
vt 0.0653 0.7554
vt 0.0604 0.7152
vt 0.0305 0.7516
vt 0.0323 0.7164
vt 0.0372 0.8303
vt 0.0395 0.7975
vt 0.0330 0.8594
vt 0.0374 0.9323
vt 0.0334 0.9179
vt 0.0313 0.8911
vt 0.0323 0.9045
vt 0.0278 0.6749
vt 0.0693 0.7083
vt 0.1268 0.7000
vt 0.1890 0.6579
vt 0.2469 0.6544
vt 0.1669 0.6069
vt 0.2182 0.6091
vt 0.1462 0.5600
vt 0.1961 0.5647
vt 0.1064 0.5983
vt 0.0896 0.5531
vt 0.1275 0.6529
vt 0.0457 0.5946
vt 0.0380 0.5419
vt 0.0583 0.6369
vt 0.0104 0.5914
vt 0.0104 0.5424
vt 0.0177 0.6352
vt 0.2377 0.5688
vt 0.2699 0.5992
vt 0.3047 0.6429
vt 0.3312 0.6903
vt 0.3539 0.7463
vt 0.2575 0.5408
vt 0.3197 0.5814
vt 0.3585 0.6281
vt 0.3841 0.6780
vt 0.4002 0.7426
vt 0.3804 0.5311
vt 0.3034 0.4821
vt 0.3189 0.4578
vt 0.4054 0.5073
vt 0.0141 0.4746
vt 0.0368 0.4847
vt 0.0954 0.4957
vt 0.1511 0.5066
vt 0.2008 0.5178
vt 0.4342 0.5916
vt 0.4646 0.5739
vt 0.4621 0.6534
vt 0.4972 0.6440
vt 0.4711 0.7340
vt 0.4968 0.7305
vt 0.0405 0.4177
vt 0.0122 0.4080
vt 0.0126 0.3908
vt 0.0454 0.3987
vt 0.1015 0.4266
vt 0.1042 0.4025
vt 0.1699 0.4354
vt 0.1732 0.4099
vt 0.2236 0.4501
vt 0.2327 0.4254
vt 0.2890 0.5055
vt 0.3579 0.5533
vt 0.4078 0.6077
vt 0.4316 0.6639
vt 0.4457 0.7387
vt 0.0117 0.4252
vt 0.0357 0.4367
vt 0.0990 0.4507
vt 0.1668 0.4602
vt 0.2151 0.4740
vt 0.4740 0.8152
vt 0.4962 0.8132
vt 0.6940 0.9109
vt 0.6993 0.8825
vt 0.7486 0.8900
vt 0.7395 0.9251
vt 0.6491 0.9033
vt 0.6491 0.8728
vt 0.6124 0.8983
vt 0.6077 0.8738
vt 0.5787 0.9018
vt 0.5721 0.8757
vt 0.5412 0.9198
vt 0.5380 0.8867
vt 0.5180 0.9171
vt 0.5161 0.8832
vt 0.5161 0.8832
vt 0.5174 0.8153
vt 0.5396 0.8170
vt 0.5380 0.8867
vt 0.5762 0.8129
vt 0.6206 0.8114
vt 0.6663 0.8126
vt 0.7168 0.8190
vt 0.7676 0.8348
vt 0.6952 0.9825
vt 0.6979 0.9428
vt 0.7308 0.9524
vt 0.7238 0.9851
vt 0.6616 0.9702
vt 0.6572 0.9370
vt 0.6268 0.9686
vt 0.6215 0.9312
vt 0.5979 0.9791
vt 0.5912 0.9372
vt 0.5571 0.9988
vt 0.5505 0.9599
vt 0.5262 1.0022
vt 0.5227 0.9644
vt 0.7848 0.9413
vt 0.7739 0.9734
vt 0.8142 0.8426
vt 0.8030 0.8922
vt 0.7395 0.9251
vt 0.7945 0.9164
vt 0.8907 0.9264
vt 0.9340 0.9221
vt 0.9291 0.9384
vt 0.8855 0.9462
vt 0.8989 0.8524
vt 0.9365 0.8580
vt 0.9369 0.8918
vt 0.8968 0.8910
vt 0.8939 0.9086
vt 0.9355 0.9069
vt 0.8407 0.9334
vt 0.8329 0.9560
vt 0.8576 0.8486
vt 0.8513 0.8907
vt 0.8463 0.9120
vt 0.8604 0.8174
vt 0.8972 0.8240
vt 0.9328 0.8289
vt 0.8244 0.8054
vt 0.7860 0.7839
vt 0.6886 0.7535
vt 0.7437 0.7662
vt 0.8142 0.7449
vt 0.8309 0.7792
vt 0.8621 0.7994
vt 0.8925 0.7990
vt 0.9290 0.7996
vt 0.7185 0.7019
vt 0.7858 0.7135
vt 0.8698 0.7399
vt 0.8845 0.7619
vt 0.9318 0.7177
vt 0.9266 0.7579
vt 0.9599 0.7191
vt 0.9615 0.7543
vt 0.9522 0.8001
vt 0.9542 0.8329
vt 0.9583 0.8621
vt 0.9575 0.9205
vt 0.9534 0.9349
vt 0.9598 0.8938
vt 0.9587 0.9072
vt 0.9230 0.7107
vt 0.9647 0.6777
vt 0.8655 0.7020
vt 0.7457 0.6556
vt 0.8036 0.6595
vt 0.7748 0.6104
vt 0.8261 0.6086
vt 0.7972 0.5662
vt 0.8472 0.5618
vt 0.9038 0.5554
vt 0.8867 0.6005
vt 0.8651 0.6549
vt 0.9555 0.5445
vt 0.9475 0.5972
vt 0.9345 0.6395
vt 0.9832 0.5452
vt 0.9828 0.5942
vt 0.9751 0.6380
vt 0.7231 0.6001
vt 0.7556 0.5700
vt 0.6879 0.6436
vt 0.6610 0.6909
vt 0.6379 0.7469
vt 0.6734 0.5818
vt 0.7360 0.5418
vt 0.6341 0.6283
vt 0.6080 0.6783
vt 0.5916 0.7429
vt 0.6131 0.5307
vt 0.5919 0.5110
vt 0.6750 0.4574
vt 0.6907 0.4827
vt 0.9573 0.4873
vt 0.9800 0.4773
vt 0.8985 0.4978
vt 0.8427 0.5084
vt 0.7928 0.5192
vt 0.5584 0.5910
vt 0.5311 0.5750
vt 0.5298 0.6530
vt 0.5206 0.7340
vt 0.9540 0.4202
vt 0.9473 0.3869
vt 0.9811 0.3851
vt 0.9825 0.4107
vt 0.8929 0.4286
vt 0.8897 0.3998
vt 0.8243 0.4371
vt 0.8212 0.4122
vt 0.7705 0.4514
vt 0.7605 0.4239
vt 0.6354 0.5533
vt 0.7048 0.5063
vt 0.5847 0.6074
vt 0.5604 0.6637
vt 0.5460 0.7388
vt 0.9587 0.4392
vt 0.9828 0.4279
vt 0.8952 0.4527
vt 0.8272 0.4619
vt 0.7789 0.4754
vt 0.5174 0.8153
vt 0.5600 0.0514
vt 0.5486 0.0766
vt 0.5432 0.0754
vt 0.5555 0.0484
vt 0.4921 0.4338
vt 0.4896 0.4003
vt 0.4945 0.3999
vt 0.4945 0.4339
vt 0.4041 0.3392
vt 0.4105 0.3046
vt 0.4132 0.3034
vt 0.4088 0.3395
vt 0.5899 0.0200
vt 0.5749 0.0339
vt 0.5714 0.0319
vt 0.5875 0.0195
vt 0.5895 0.3280
vt 0.5891 0.3481
vt 0.5856 0.3470
vt 0.5871 0.3272
vt 0.4115 0.4022
vt 0.4080 0.3816
vt 0.4103 0.3810
vt 0.4132 0.4019
vt 0.4831 0.2473
vt 0.4817 0.3018
vt 0.4787 0.3029
vt 0.4798 0.2483
vt 0.5532 0.2788
vt 0.5568 0.2380
vt 0.5609 0.2382
vt 0.5578 0.2791
vt 0.5510 0.3297
vt 0.5555 0.3305
vt 0.5507 0.4035
vt 0.5553 0.4036
vt 0.3815 0.3855
vt 0.3806 0.4037
vt 0.3793 0.4035
vt 0.3793 0.3854
vt 0.3815 0.3493
vt 0.3802 0.3490
vt 0.4810 0.3981
vt 0.4808 0.3607
vt 0.4831 0.3603
vt 0.4831 0.3976
vt 0.3281 0.4083
vt 0.3281 0.4221
vt 0.3260 0.4218
vt 0.3255 0.4081
vt 0.4824 0.3242
vt 0.4794 0.3240
vt 0.7272 0.0745
vt 0.7281 0.1309
vt 0.7212 0.1253
vt 0.7220 0.0723
vt 0.7381 0.0205
vt 0.7325 0.0195
vt 0.6113 0.2791
vt 0.6187 0.2247
vt 0.6245 0.2252
vt 0.6166 0.2793
vt 0.6091 0.3507
vt 0.6143 0.3515
vt 0.7367 0.3067
vt 0.7381 0.3227
vt 0.7352 0.3240
vt 0.7337 0.3073
vt 0.7303 0.2704
vt 0.7262 0.2711
vt 0.7236 0.2348
vt 0.7191 0.2351
vt 0.7225 0.2217
vt 0.7185 0.2211
vt 0.7255 0.1494
vt 0.7212 0.1487
vt 0.6114 0.4265
vt 0.6162 0.4279
vt 0.5533 0.4797
vt 0.5574 0.4775
vt 0.5107 0.4135
vt 0.5133 0.4388
vt 0.5071 0.4391
vt 0.5069 0.4126
vt 0.3474 0.3605
vt 0.3430 0.3596
vt 0.3428 0.3312
vt 0.3481 0.3325
vt 0.6586 0.4034
vt 0.6622 0.4033
vt 0.6622 0.4377
vt 0.6586 0.4371
vt 0.4205 0.4312
vt 0.4219 0.4027
vt 0.4261 0.3993
vt 0.4261 0.4329
vt 0.5133 0.3789
vt 0.5124 0.3941
vt 0.5095 0.3936
vt 0.5115 0.3787
vt 0.3587 0.4038
vt 0.3564 0.4033
vt 0.3527 0.3871
vt 0.3563 0.3879
vt 0.4669 0.3861
vt 0.4697 0.3854
vt 0.4707 0.4053
vt 0.4655 0.4129
vt 0.4956 0.4300
vt 0.4945 0.4005
vt 0.4995 0.3999
vt 0.4995 0.4329
vt 0.4033 0.2438
vt 0.3998 0.2456
vt 0.3839 0.1914
vt 0.3891 0.1900
vt 0.4268 0.3006
vt 0.4201 0.3034
vt 0.4205 0.3549
vt 0.4132 0.3552
vt 0.4159 0.3034
vt 0.4201 0.3072
vt 0.4205 0.4225
vt 0.4158 0.4234
vt 0.3493 0.4227
vt 0.3457 0.4208
vt 0.3483 0.4038
vt 0.3493 0.4052
vt 0.4163 0.0572
vt 0.4110 0.0549
vt 0.4252 0.0195
vt 0.4268 0.0204
vt 0.3998 0.0896
vt 0.3959 0.0889
vt 0.6615 0.0691
vt 0.6659 0.0709
vt 0.6519 0.1208
vt 0.6487 0.1205
vt 0.7028 0.1119
vt 0.7096 0.1692
vt 0.7070 0.1697
vt 0.6982 0.1089
vt 0.4504 0.4420
vt 0.4456 0.4447
vt 0.4438 0.3782
vt 0.4504 0.3766
vt 0.5895 0.3836
vt 0.5858 0.3827
vt 0.4707 0.4410
vt 0.4670 0.4426
vt 0.4379 0.4968
vt 0.4342 0.4982
vt 0.4298 0.4465
vt 0.4334 0.4465
vt 0.2564 0.2561
vt 0.2496 0.2820
vt 0.2442 0.2807
vt 0.2524 0.2546
vt 0.5444 0.1253
vt 0.5382 0.1240
vt 0.2471 0.3280
vt 0.2410 0.3272
vt 0.2807 0.2215
vt 0.2680 0.2368
vt 0.2639 0.2364
vt 0.2784 0.2210
vt 0.5531 0.1743
vt 0.5463 0.1746
vt 0.2582 0.3727
vt 0.2514 0.3728
vt 0.5741 0.2144
vt 0.5670 0.2148
vt 0.2807 0.4104
vt 0.2733 0.4106
vt 0.5899 0.2360
vt 0.5848 0.2380
vt 0.4896 0.4316
vt 0.4831 0.4280
vt 0.4860 0.3999
vt 0.4896 0.4036
vt 0.7221 0.1912
vt 0.7224 0.2072
vt 0.7179 0.2073
vt 0.7179 0.1922
vt 0.4079 0.4382
vt 0.4057 0.4458
vt 0.4045 0.4459
vt 0.4041 0.4379
vt 0.6661 0.4184
vt 0.6684 0.3871
vt 0.6704 0.3872
vt 0.6692 0.4184
vt 0.3863 0.3683
vt 0.3822 0.3675
vt 0.3815 0.3424
vt 0.3869 0.3431
vt 0.3531 0.2900
vt 0.3587 0.2921
vt 0.3886 0.3034
vt 0.3953 0.3036
vt 0.3953 0.4112
vt 0.3929 0.4109
vt 0.3903 0.3938
vt 0.3939 0.3941
vt 0.6037 0.4422
vt 0.5908 0.3962
vt 0.5971 0.3943
vt 0.6091 0.4394
vt 0.5796 0.4493
vt 0.5724 0.4066
vt 0.5784 0.4032
vt 0.5856 0.4485
vt 0.5899 0.3458
vt 0.5968 0.3438
vt 0.5754 0.3569
vt 0.5818 0.3537
vt 0.5940 0.2987
vt 0.6003 0.2969
vt 0.5758 0.3105
vt 0.5818 0.3083
vt 0.6007 0.2558
vt 0.6059 0.2535
vt 0.5788 0.2684
vt 0.5840 0.2663
vt 0.6054 0.2265
vt 0.6091 0.2247
vt 0.5824 0.2393
vt 0.5856 0.2380
vt 0.6470 0.1512
vt 0.6428 0.1509
vt 0.3882 0.1205
vt 0.3848 0.1201
vt 0.4491 0.0524
vt 0.4369 0.0772
vt 0.4325 0.0747
vt 0.4458 0.0501
vt 0.4332 0.1270
vt 0.4268 0.1263
vt 0.4831 0.0203
vt 0.4659 0.0342
vt 0.4626 0.0335
vt 0.4810 0.0195
vt 0.4644 0.2227
vt 0.4831 0.2453
vt 0.4778 0.2473
vt 0.4573 0.2248
vt 0.4418 0.1818
vt 0.4358 0.1798
vt 0.4831 0.3603
vt 0.4807 0.3603
vt 0.7444 0.1715
vt 0.7412 0.1416
vt 0.7457 0.1418
vt 0.7487 0.1709
vt 0.3304 0.3634
vt 0.3267 0.3629
vt 0.3255 0.3349
vt 0.3305 0.3353
vt 0.3384 0.2900
vt 0.3428 0.2937
vt 0.3428 0.4081
vt 0.3406 0.4079
vt 0.3330 0.3866
vt 0.3366 0.3871
vt 0.3024 0.2488
vt 0.2969 0.2497
vt 0.3065 0.2220
vt 0.3102 0.2210
vt 0.2921 0.2927
vt 0.2860 0.2937
vt 0.2875 0.3413
vt 0.2807 0.3431
vt 0.2917 0.3920
vt 0.2858 0.3957
vt 0.3102 0.4383
vt 0.3055 0.4432
vt 0.3868 0.1597
vt 0.3815 0.1603
vt 0.6697 0.3587
vt 0.6747 0.3871
vt 0.6707 0.3870
vt 0.6661 0.3590
vt 0.5034 0.0600
vt 0.4910 0.0861
vt 0.4876 0.0844
vt 0.4998 0.0581
vt 0.3735 0.4076
vt 0.3689 0.3556
vt 0.3735 0.3575
vt 0.3779 0.4094
vt 0.4901 0.1412
vt 0.4831 0.1403
vt 0.6747 0.3102
vt 0.6718 0.3337
vt 0.6690 0.3337
vt 0.6728 0.3100
vt 0.5382 0.0206
vt 0.5219 0.0406
vt 0.5192 0.0386
vt 0.5368 0.0195
vt 0.7646 0.1018
vt 0.7665 0.1318
vt 0.7621 0.1316
vt 0.7597 0.0993
vt 0.7657 0.0607
vt 0.7597 0.0574
vt 0.7059 0.0640
vt 0.6995 0.0613
vt 0.7737 0.0222
vt 0.7681 0.0180
vt 0.7179 0.0234
vt 0.7122 0.0195
vt 0.4655 0.3896
vt 0.4655 0.4410
vt 0.4590 0.4391
vt 0.4611 0.3854
vt 0.5067 0.2036
vt 0.5382 0.2510
vt 0.5320 0.2521
vt 0.5009 0.2023
vt 0.3733 0.2900
vt 0.3779 0.2915
vt 0.7695 0.2942
vt 0.7672 0.3196
vt 0.7642 0.3205
vt 0.7641 0.2979
vt 0.7162 0.3138
vt 0.7179 0.3293
vt 0.7155 0.3316
vt 0.7125 0.3166
vt 0.7737 0.2557
vt 0.7689 0.2582
vt 0.7151 0.2800
vt 0.7116 0.2824
vt 0.7696 0.2198
vt 0.7648 0.2226
vt 0.7153 0.2454
vt 0.7112 0.2477
vt 0.7158 0.2321
vt 0.7108 0.2344
vt 0.7155 0.1935
vt 0.7161 0.2095
vt 0.7111 0.2116
vt 0.7111 0.1953
vt 0.7440 0.1890
vt 0.7481 0.1877
vt 0.7646 0.1921
vt 0.7682 0.1890
vt 0.7675 0.1429
vt 0.7639 0.1437
vt 0.5140 0.4097
vt 0.5159 0.3787
vt 0.5197 0.3795
vt 0.5187 0.4101
vt 0.6245 0.4758
vt 0.6190 0.4763
vt 0.6400 0.4696
vt 0.6348 0.4686
vt 0.6269 0.4187
vt 0.6317 0.4201
vt 0.3815 0.4047
vt 0.3815 0.4319
vt 0.3781 0.4305
vt 0.3792 0.4037
vt 0.7427 0.0722
vt 0.7438 0.1235
vt 0.7393 0.1229
vt 0.7381 0.0720
vt 0.7499 0.0215
vt 0.7437 0.0195
vt 0.6251 0.2755
vt 0.6351 0.2255
vt 0.6400 0.2247
vt 0.6318 0.2759
vt 0.6245 0.3457
vt 0.6297 0.3466
vt 0.7457 0.3029
vt 0.7439 0.3201
vt 0.7414 0.3219
vt 0.7419 0.3052
vt 0.7499 0.2630
vt 0.7460 0.2653
vt 0.7490 0.2243
vt 0.7451 0.2262
vt 0.7497 0.2101
vt 0.7451 0.2112
vt 0.5177 0.4381
vt 0.5197 0.4388
vt 0.7186 0.1695
vt 0.7230 0.1696
vt 0.5724 0.4897
vt 0.5696 0.4898
vt 0.5636 0.4394
vt 0.5665 0.4393
vt 0.5012 0.4139
vt 0.5047 0.3795
vt 0.5069 0.3787
vt 0.5031 0.4131
vt 0.4790 0.3806
vt 0.4787 0.3604
vt 0.4804 0.3603
vt 0.4804 0.3806
vt 0.6865 0.0729
vt 0.6813 0.1266
vt 0.6787 0.1264
vt 0.6831 0.0716
vt 0.6982 0.0195
vt 0.6955 0.0201
vt 0.5623 0.2890
vt 0.5688 0.2380
vt 0.5724 0.2388
vt 0.5664 0.2936
vt 0.5609 0.3633
vt 0.5643 0.3653
vt 0.6982 0.3073
vt 0.6975 0.3248
vt 0.6965 0.3249
vt 0.6967 0.3074
vt 0.6933 0.2707
vt 0.6917 0.2710
vt 0.6861 0.2342
vt 0.6832 0.2350
vt 0.6839 0.2210
vt 0.6815 0.2216
vt 0.6810 0.1472
vt 0.6776 0.1457
vt 0.5052 0.4520
vt 0.5069 0.4516
vt 0.6804 0.1921
vt 0.6813 0.2000
vt 0.6788 0.2002
vt 0.6782 0.1922
vt 0.4057 0.4022
vt 0.4079 0.4023
vt 0.6505 0.3445
vt 0.6549 0.3109
vt 0.6586 0.3100
vt 0.6542 0.3451
vt 0.6568 0.4050
vt 0.6539 0.3847
vt 0.6562 0.3841
vt 0.6586 0.4047
vt 0.6467 0.4089
vt 0.6425 0.3543
vt 0.6472 0.3539
vt 0.6505 0.4087
vt 0.4761 0.4393
vt 0.4779 0.3870
vt 0.4806 0.3854
vt 0.4806 0.4397
vt 0.4288 0.2999
vt 0.4340 0.2482
vt 0.4379 0.2473
vt 0.4329 0.2978
vt 0.4268 0.3722
vt 0.4316 0.3704
vt 0.6789 0.3423
vt 0.6809 0.3249
vt 0.6822 0.3250
vt 0.6809 0.3425
vt 0.6776 0.3792
vt 0.6802 0.3792
vt 0.6799 0.4159
vt 0.6822 0.4158
vt 0.3559 0.4181
vt 0.3568 0.4043
vt 0.3587 0.4038
vt 0.3587 0.4178
vt 0.5609 0.5281
vt 0.5575 0.5284
vt 0.6704 0.4406
vt 0.6684 0.4406
vt 0.6505 0.3106
vt 0.6477 0.3100
vt 0.4379 0.4178
vt 0.4412 0.4186
vt 0.4438 0.4548
vt 0.4421 0.4536
vt 0.3521 0.4247
vt 0.3500 0.4246
vt 0.3493 0.4038
vt 0.3521 0.4041
vt 0.3587 0.3420
vt 0.3625 0.3426
vt 0.3657 0.3955
vt 0.3637 0.3961
vt 0.3642 0.2900
vt 0.3689 0.2909
vt 0.5356 0.3043
vt 0.5316 0.3037
vt 0.5322 0.2528
vt 0.5367 0.2521
vt 0.5356 0.3785
vt 0.5306 0.3780
vt 0.5887 0.4025
vt 0.5857 0.4022
vt 0.5878 0.3836
vt 0.5895 0.3840
vt 0.5895 0.4387
vt 0.5874 0.4381
vt 0.6629 0.3476
vt 0.6605 0.3476
vt 0.6634 0.3100
vt 0.6661 0.3100
vt 0.3661 0.4171
vt 0.3689 0.4165
vt 0.5359 0.4545
vt 0.5321 0.4543
vt 0.4425 0.3766
vt 0.4438 0.3773
vt 0.5334 0.5045
vt 0.5367 0.5048
vt 0.6632 0.3767
vt 0.6661 0.4026
vt 0.6632 0.4033
vt 0.6615 0.3770
vt 0.6615 0.3691
vt 0.6586 0.3691
vt 0.3669 0.4527
vt 0.3689 0.4523
vt 0.4831 0.3063
vt 0.4979 0.2533
vt 0.5012 0.2521
vt 0.4878 0.3079
vt 0.4865 0.3423
vt 0.4844 0.3425
vt 0.5012 0.3994
vt 0.4991 0.3999
vt 0.4932 0.3804
vt 0.4960 0.3798
vt 0.3796 0.2900
vt 0.3815 0.2902
vt 0.3815 0.3490
vt 0.3780 0.3485
vt 0.5404 0.4396
vt 0.5446 0.4403
vt 0.5507 0.4807
vt 0.5469 0.4808
vt 0.5382 0.3890
vt 0.5427 0.3897
vt 0.5459 0.3140
vt 0.5503 0.3141
vt 0.3521 0.4039
vt 0.3547 0.4038
vt 0.3547 0.4216
vt 0.3533 0.4215
vt 0.5856 0.2899
vt 0.5888 0.2897
vt 0.5894 0.3270
vt 0.5895 0.3272
vt 0.5872 0.2518
vt 0.5895 0.2516
vt 0.5868 0.2382
vt 0.5894 0.2380
vt 0.4245 0.3784
vt 0.4265 0.3985
vt 0.4250 0.3993
vt 0.4212 0.3785
vt 0.5459 0.2380
vt 0.5507 0.2383
vt 0.4221 0.3329
vt 0.4254 0.3034
vt 0.4265 0.3039
vt 0.4263 0.3327
vt 0.4231 0.3665
vt 0.4205 0.3668
vt 0.4652 0.3296
vt 0.4612 0.3316
vt 0.4590 0.3014
vt 0.4638 0.3001
vt 0.4707 0.4378
vt 0.4717 0.3874
vt 0.4761 0.3854
vt 0.4761 0.4377
vt 0.4734 0.2492
vt 0.4787 0.2473
vt 0.4787 0.3839
vt 0.4762 0.3854
vt 0.4691 0.3593
vt 0.4732 0.3569
vt 0.6586 0.2550
vt 0.6533 0.2574
vt 0.6430 0.2027
vt 0.6473 0.2009
vt 0.6776 0.3078
vt 0.6729 0.3100
vt 0.5197 0.3973
vt 0.5255 0.3972
vt 0.5306 0.4476
vt 0.5253 0.4465
vt 0.5220 0.3268
vt 0.5276 0.3261
vt 0.6725 0.0359
vt 0.6691 0.0341
vt 0.6749 0.0195
vt 0.6776 0.0211
vt 0.6476 0.1814
vt 0.6425 0.1821
vt 0.5248 0.2538
vt 0.5306 0.2521
vt 0.4461 0.3258
vt 0.4412 0.3257
vt 0.4379 0.2965
vt 0.4440 0.2971
vt 0.4517 0.2473
vt 0.4590 0.2490
vt 0.4590 0.3760
vt 0.4566 0.3766
vt 0.4499 0.3518
vt 0.4533 0.3515
vt 0.3441 0.1396
vt 0.3262 0.1318
vt 0.3424 0.0814
vt 0.3499 0.0818
vt 0.3323 0.1834
vt 0.3255 0.1837
vt 0.3501 0.2372
vt 0.3428 0.2407
vt 0.3815 0.2864
vt 0.3765 0.2900
vt 0.3991 0.4049
vt 0.4041 0.4070
vt 0.4026 0.4216
vt 0.3979 0.4207
vt 0.3953 0.3704
vt 0.3987 0.3719
vt 0.3979 0.3379
vt 0.4041 0.3383
vt 0.3815 0.0198
vt 0.3813 0.0195
vt 0.4008 0.3044
vt 0.3960 0.3034
vt 0.4088 0.4340
vt 0.4102 0.4022
vt 0.4132 0.4038
vt 0.4132 0.4351
vt 0.2903 0.0417
vt 0.2952 0.0454
vt 0.2791 0.0662
vt 0.2741 0.0630
vt 0.2581 0.1017
vt 0.2519 0.0980
vt 0.3236 0.0195
vt 0.3255 0.0211
vt 0.3098 0.0307
vt 0.3066 0.0280
vt 0.2475 0.1412
vt 0.2410 0.1400
vt 0.2568 0.1772
vt 0.2518 0.1806
vt 0.3457 0.4038
vt 0.3457 0.4263
vt 0.3434 0.4280
vt 0.3428 0.4057
vt 0.2921 0.2030
vt 0.3255 0.2180
vt 0.3231 0.2210
vt 0.2887 0.2069
vt 0.4504 0.4013
vt 0.4518 0.3766
vt 0.4569 0.3776
vt 0.4567 0.4056
vt 0.6390 0.2247
vt 0.6132 0.2004
vt 0.6164 0.1964
vt 0.6425 0.2209
vt 0.4544 0.4428
vt 0.4540 0.4257
vt 0.4569 0.4265
vt 0.4562 0.4432
vt 0.5953 0.1646
vt 0.5991 0.1620
vt 0.5197 0.3749
vt 0.5163 0.3787
vt 0.5012 0.3459
vt 0.5053 0.3447
vt 0.5899 0.1187
vt 0.5936 0.1183
vt 0.5175 0.2714
vt 0.5143 0.2698
vt 0.5169 0.2521
vt 0.5197 0.2535
vt 0.6358 0.0392
vt 0.6338 0.0369
vt 0.6412 0.0195
vt 0.6425 0.0216
vt 0.5106 0.3078
vt 0.5071 0.3067
vt 0.6149 0.0748
vt 0.6118 0.0733
f 234/1 233/2 4/3 3/4
f 234/1 3/4 6/5 235/6
f 235/6 6/5 8/7 236/8
f 236/8 8/7 10/9 237/10
f 237/10 10/9 12/11 238/12
f 270/13 257/14 123/15 239/16
f 257/17 12/18 14/19 258/20
f 12/11 10/9 13/21 14/19
f 8/7 6/5 17/22 18/23
f 6/5 3/4 15/24 17/22
f 3/4 4/3 16/25 15/24
f 8/7 18/23 13/21 10/9
f 1/26 2/27 20/28 19/29
f 1/26 19/29 21/30 5/31
f 5/31 21/30 22/32 7/33
f 7/33 22/32 23/34 9/35
f 9/35 23/34 24/36 11/37
f 256/38 259/39 137/40 122/41
f 20/28 2/27 25/42 28/43
f 16/25 4/3 26/44 27/45
f 233/46 20/28 28/43 240/47
f 33/48 36/49 29/50 32/51
f 37/52 40/53 30/54 31/55
f 243/56 33/48 32/51 241/57
f 28/43 25/42 35/58 34/59
f 34/59 35/58 36/49 33/48
f 27/45 26/44 39/60 38/61
f 38/61 39/60 40/53 37/52
f 240/47 28/43 34/59 242/62
f 242/62 34/59 33/48 243/56
f 38/61 37/52 46/63 47/64
f 37/52 31/55 45/65 46/63
f 27/45 38/61 47/64 44/66
f 16/25 27/45 44/66 42/67
f 17/22 15/24 41/68 43/69
f 15/24 16/25 42/67 41/68
f 42/67 44/66 49/70 48/71
f 50/72 49/70 44/66 47/64
f 51/73 50/72 47/64 46/63
f 52/74 51/73 46/63 45/65
f 43/69 41/68 66/75 53/76
f 42/67 48/71 66/75 41/68
f 48/71 49/70 55/77 54/78
f 54/78 55/77 57/79 56/80
f 56/80 57/79 59/81 58/82
f 49/70 50/72 51/73 55/77
f 52/74 57/79 55/77 51/73
f 52/74 45/65 64/83 65/84
f 45/65 31/55 62/85 64/83
f 32/51 29/50 60/86 63/87
f 31/55 30/54 61/88 62/85
f 241/57 32/51 63/87 244/89
f 57/79 52/74 65/84 59/81
f 56/80 58/82 69/90 68/91
f 54/78 56/80 68/91 67/92
f 48/71 54/78 67/92 66/75
f 53/76 66/75 71/93 70/94
f 70/94 71/93 73/95 72/96
f 72/96 73/95 75/97 74/98
f 75/97 73/95 77/99 78/100
f 73/95 71/93 76/101 77/99
f 67/92 76/101 71/93 66/75
f 78/100 77/99 80/102 81/103
f 77/99 76/101 79/104 80/102
f 68/91 79/104 76/101 67/92
f 81/103 80/102 83/105 84/106
f 80/102 79/104 82/107 83/105
f 72/96 74/98 89/108 88/109
f 70/94 72/96 88/109 87/110
f 53/76 70/94 87/110 86/111
f 43/69 53/76 86/111 85/112
f 17/22 43/69 85/112 18/23
f 88/109 89/108 94/113 93/114
f 87/110 88/109 93/114 92/115
f 86/111 87/110 92/115 91/116
f 85/112 86/111 91/116 90/117
f 18/23 85/112 90/117 13/21
f 69/90 82/107 79/104 68/91
f 262/118 260/119 217/120 216/121
f 81/103 84/106 99/122 98/123
f 78/100 81/103 98/123 97/124
f 75/97 78/100 97/124 96/125
f 74/98 75/97 96/125 95/126
f 89/108 74/98 95/126 94/113
f 263/127 262/118 216/121 215/128
f 264/129 263/127 215/128 214/130
f 265/131 264/129 214/130 213/132
f 266/133 261/134 222/135 221/136
f 267/137 266/133 221/136 220/138
f 268/139 267/137 220/138 219/140
f 269/141 268/139 219/140 218/142
f 269/141 218/142 217/120 260/119
f 93/114 94/113 101/143 100/144
f 92/115 93/114 100/144 102/145
f 91/116 92/115 102/145 103/146
f 90/117 91/116 103/146 104/147
f 98/123 99/122 106/148 105/149
f 97/124 98/123 105/149 107/150
f 96/125 97/124 107/150 108/151
f 95/126 96/125 108/151 109/152
f 95/126 109/152 101/143 94/113
f 13/21 90/117 104/147 14/19
f 258/153 265/131 213/132 126/154
f 246/155 112/156 113/157 245/158
f 246/155 247/159 115/160 112/156
f 247/159 248/161 117/162 115/160
f 248/161 249/163 119/164 117/162
f 249/163 250/165 121/166 119/164
f 285/167 239/16 123/15 272/168
f 272/169 273/170 125/171 121/172
f 121/166 125/171 124/173 119/164
f 117/162 130/174 129/175 115/160
f 115/160 129/175 127/176 112/156
f 112/156 127/176 128/177 113/157
f 117/162 119/164 124/173 130/174
f 110/178 131/179 132/180 111/181
f 110/178 114/182 133/183 131/179
f 114/182 116/184 134/185 133/183
f 116/184 118/186 135/187 134/185
f 118/186 120/188 136/189 135/187
f 271/190 122/41 137/40 274/191
f 132/180 141/192 138/193 111/181
f 128/177 140/194 139/195 113/157
f 245/196 251/197 141/192 132/180
f 146/198 145/199 142/200 149/201
f 150/202 144/203 143/204 153/205
f 254/206 252/207 145/199 146/198
f 141/192 147/208 148/209 138/193
f 147/208 146/198 149/201 148/209
f 140/194 151/210 152/211 139/195
f 151/210 150/202 153/205 152/211
f 251/197 253/212 147/208 141/192
f 253/212 254/206 146/198 147/208
f 151/210 160/213 159/214 150/202
f 150/202 159/214 158/215 144/203
f 140/194 157/216 160/213 151/210
f 128/177 155/217 157/216 140/194
f 129/175 156/218 154/219 127/176
f 127/176 154/219 155/217 128/177
f 155/217 161/220 162/221 157/216
f 163/222 160/213 157/216 162/221
f 164/223 159/214 160/213 163/222
f 165/224 158/215 159/214 164/223
f 156/218 166/225 179/226 154/219
f 155/217 154/219 179/226 161/220
f 161/220 167/227 168/228 162/221
f 167/227 169/229 170/230 168/228
f 169/229 171/231 172/232 170/230
f 162/221 168/228 164/223 163/222
f 165/224 164/223 168/228 170/230
f 165/224 178/233 177/234 158/215
f 158/215 177/234 175/235 144/203
f 145/199 176/236 173/237 142/200
f 144/203 175/235 174/238 143/204
f 252/207 255/239 176/236 145/199
f 170/230 172/232 178/233 165/224
f 169/229 181/240 182/241 171/231
f 167/227 180/242 181/240 169/229
f 161/220 179/226 180/242 167/227
f 166/225 183/243 184/244 179/226
f 183/243 185/245 186/246 184/244
f 185/245 187/247 188/248 186/246
f 188/248 191/249 190/250 186/246
f 186/246 190/250 189/251 184/244
f 180/242 179/226 184/244 189/251
f 191/249 194/252 193/253 190/250
f 190/250 193/253 192/254 189/251
f 181/240 180/242 189/251 192/254
f 194/252 197/255 196/256 193/253
f 193/253 196/256 195/257 192/254
f 185/245 201/258 202/259 187/247
f 183/243 200/260 201/258 185/245
f 166/225 199/261 200/260 183/243
f 156/218 198/262 199/261 166/225
f 129/175 130/174 198/262 156/218
f 201/258 206/263 207/264 202/259
f 200/260 205/265 206/263 201/258
f 199/261 204/266 205/265 200/260
f 198/262 203/267 204/266 199/261
f 130/174 124/173 203/267 198/262
f 182/241 181/240 192/254 195/257
f 277/268 216/269 217/270 275/271
f 194/252 211/272 212/273 197/255
f 191/249 210/274 211/272 194/252
f 188/248 209/275 210/274 191/249
f 187/247 208/276 209/275 188/248
f 202/259 207/264 208/276 187/247
f 278/277 215/278 216/269 277/268
f 279/279 214/130 215/278 278/277
f 280/280 213/132 214/130 279/279
f 281/281 221/282 222/283 276/284
f 282/285 220/286 221/282 281/281
f 283/287 219/288 220/286 282/285
f 284/289 218/290 219/288 283/287
f 284/289 275/271 217/270 218/290
f 206/263 223/291 224/292 207/264
f 205/265 225/293 223/291 206/263
f 204/266 226/294 225/293 205/265
f 203/267 227/295 226/294 204/266
f 211/272 228/296 229/297 212/273
f 210/274 230/298 228/296 211/272
f 209/275 231/299 230/298 210/274
f 208/276 232/300 231/299 209/275
f 208/276 207/264 224/292 232/300
f 124/173 125/171 227/295 203/267
f 273/301 126/154 213/132 280/280
f 19/29 20/28 233/46 234/1
f 19/29 234/1 235/6 21/30
f 21/30 235/6 236/8 22/32
f 22/32 236/8 237/10 23/34
f 23/34 237/10 238/12 24/36
f 259/39 270/13 239/16 137/40
f 4/3 233/2 240/47 26/44
f 40/53 243/56 241/57 30/54
f 26/44 240/47 242/62 39/60
f 39/60 242/62 243/56 40/53
f 30/54 241/57 244/89 61/88
f 131/179 246/155 245/158 132/180
f 131/179 133/183 247/159 246/155
f 133/183 134/185 248/161 247/159
f 134/185 135/187 249/163 248/161
f 135/187 136/189 250/165 249/163
f 274/191 137/40 239/16 285/167
f 113/157 139/195 251/197 245/158
f 153/205 143/204 252/207 254/206
f 139/195 152/211 253/212 251/197
f 152/211 153/205 254/206 253/212
f 143/204 174/238 255/239 252/207
f 238/12 12/11 257/17 270/13
f 123/15 257/14 258/20 126/154
f 11/37 24/36 259/39 256/38
f 100/144 101/143 260/119 262/118
f 102/145 100/144 262/118 263/127
f 103/146 102/145 263/127 264/129
f 104/147 103/146 264/129 265/131
f 105/149 106/148 261/134 266/133
f 107/150 105/149 266/133 267/137
f 108/151 107/150 267/137 268/139
f 109/152 108/151 268/139 269/141
f 109/152 269/141 260/119 101/143
f 14/19 104/147 265/131 258/20
f 24/36 238/12 270/13 259/39
f 250/165 285/167 272/168 121/166
f 123/15 126/154 273/301 272/168
f 120/188 271/190 274/191 136/189
f 223/291 277/268 275/271 224/292
f 225/293 278/277 277/268 223/291
f 226/294 279/279 278/277 225/293
f 227/295 280/280 279/279 226/294
f 228/296 281/281 276/284 229/297
f 230/298 282/285 281/281 228/296
f 231/299 283/287 282/285 230/298
f 232/300 284/289 283/287 231/299
f 232/300 224/292 275/271 284/289
f 125/171 273/170 280/280 227/295
f 136/189 274/191 285/167 250/165
f 441/302 390/303 287/304 364/305
f 582/306 545/307 291/308 366/309
f 642/310 632/311 327/312 367/313
f 385/314 396/315 295/316 286/317
f 540/318 551/319 297/320 290/321
f 643/322 636/323 335/324 326/325
f 645/326 638/327 350/328 349/329
f 647/330 645/331 349/332 348/333
f 649/334 647/330 348/333 347/335
f 651/336 649/334 347/335 346/337
f 653/338 640/339 354/340 353/341
f 655/342 653/338 353/341 352/343
f 657/344 655/345 352/346 351/347
f 662/348 657/349 351/350 407/351
f 665/352 462/353 350/328 638/327
f 552/354 576/355 311/356 310/357
f 555/358 552/354 310/357 312/359
f 558/360 555/361 312/362 313/363
f 561/364 558/360 313/363 314/365
f 564/366 579/367 316/368 315/369
f 567/370 564/366 315/369 317/371
f 570/372 567/370 317/371 318/373
f 588/374 570/372 318/373 409/375
f 592/376 465/377 311/356 576/355
f 548/378 561/364 314/365 292/379
f 634/380 651/336 346/337 329/381
f 865/382 839/383 321/384 368/385
f 442/386 369/387 323/388 416/389
f 775/390 370/391 325/392 743/393
f 839/394 842/395 330/396 321/397
f 838/398 845/399 332/400 320/401
f 411/402 322/403 333/404 422/405
f 738/406 324/407 334/408 749/409
f 842/410 848/411 336/412 330/413
f 750/414 355/415 356/416 771/417
f 753/418 357/419 355/415 750/414
f 756/420 358/421 357/422 753/423
f 759/424 359/425 358/421 756/420
f 762/426 360/427 361/428 774/429
f 765/430 362/431 360/432 762/433
f 768/434 363/435 362/431 765/430
f 766/436 767/437 780/438 779/439
f 503/440 536/441 537/442 502/443
f 746/444 328/445 359/446 759/447
f 396/315 441/302 364/305 295/316
f 551/319 582/448 366/449 297/320
f 636/323 642/310 367/313 335/324
f 845/399 865/382 368/385 332/400
f 422/405 333/404 369/387 442/386
f 749/409 334/408 370/450 775/451
f 631/452 372/453 373/454 633/455
f 439/456 388/457 389/458 440/459
f 287/304 390/303 393/460 293/461
f 389/458 388/457 391/462 392/463
f 387/464 394/465 395/466 386/467
f 293/461 393/460 399/468 298/469
f 392/463 391/462 397/470 398/471
f 298/469 399/468 402/472 299/473
f 398/471 397/470 400/474 401/475
f 299/473 402/472 405/476 300/477
f 401/478 400/479 403/480 404/481
f 573/482 585/483 410/484 319/485
f 660/486 662/487 407/488 408/489
f 585/483 588/374 409/375 410/484
f 659/490 664/491 489/492 446/493
f 444/494 443/495 415/496 414/497
f 323/388 331/498 419/499 416/389
f 415/496 418/500 417/501 414/497
f 413/502 412/503 421/504 420/505
f 331/506 337/507 425/508 419/509
f 418/510 424/511 423/512 417/513
f 337/507 339/514 428/515 425/508
f 424/511 427/516 426/517 423/512
f 339/514 343/518 431/519 428/515
f 427/516 430/520 429/521 426/517
f 343/518 344/522 434/523 431/519
f 430/520 433/524 432/525 429/521
f 344/522 345/526 437/527 434/523
f 433/524 436/528 435/529 432/525
f 780/438 781/530 782/531 779/439
f 363/435 768/434 778/532 438/533
f 394/465 439/456 440/459 395/466
f 420/505 421/504 443/495 444/494
f 485/534 449/535 450/536 486/537
f 450/536 449/535 451/538 452/539
f 448/540 453/541 454/542 447/543
f 459/544 457/545 456/546 458/547
f 461/548 459/544 458/547 460/549
f 451/538 461/548 460/549 452/539
f 462/353 665/352 663/550 463/551
f 589/552 593/553 594/554 590/555
f 488/556 487/557 469/558 468/559
f 469/558 471/560 470/561 468/559
f 467/562 466/563 473/564 472/565
f 475/566 474/567 477/568 476/569
f 479/570 478/571 474/567 475/566
f 481/572 480/573 478/571 479/570
f 483/574 482/575 480/573 481/572
f 470/576 471/577 482/575 483/574
f 783/578 771/417 356/416 484/579
f 453/541 485/534 486/537 454/542
f 472/565 473/564 487/557 488/556
f 365/580 289/581 493/582 527/583
f 528/584 494/585 495/586 529/587
f 289/588 294/589 498/590 493/591
f 494/585 497/592 496/593 495/586
f 288/594 296/595 499/596 492/597
f 491/598 500/599 501/600 490/601
f 308/602 309/603 505/604 504/605
f 307/606 308/602 504/605 508/607
f 507/608 503/440 502/443 506/609
f 306/610 307/606 508/607 511/611
f 510/612 507/608 506/609 509/613
f 305/614 306/615 511/616 514/617
f 513/618 510/619 509/620 512/621
f 294/589 305/622 514/623 498/590
f 497/592 513/618 512/621 496/593
f 303/624 304/625 518/626 517/627
f 516/628 519/629 520/630 515/631
f 302/632 303/624 517/627 523/633
f 522/634 516/628 515/631 521/635
f 301/636 302/632 523/633 526/637
f 525/638 522/634 521/635 524/639
f 533/640 525/638 524/639 534/641
f 538/642 530/643 531/644 539/645
f 584/646 589/552 590/555 583/647
f 296/595 365/580 527/583 499/596
f 500/599 528/584 529/587 501/600
f 530/643 533/640 534/641 531/644
f 301/636 526/637 532/648 406/649
f 309/603 455/650 535/651 505/604
f 536/441 538/642 539/645 537/442
f 406/649 532/648 535/651 455/650
f 580/652 543/653 544/654 581/655
f 291/656 545/657 548/378 292/379
f 544/658 543/659 546/660 547/661
f 542/662 549/663 550/664 541/665
f 554/666 574/667 575/668 553/669
f 557/670 554/666 553/669 556/671
f 560/672 557/673 556/674 559/675
f 563/676 560/672 559/675 562/677
f 566/678 577/679 578/680 565/681
f 569/682 566/678 565/681 568/683
f 572/684 569/682 568/683 571/685
f 586/686 572/684 571/685 587/687
f 594/554 593/553 575/668 574/667
f 546/660 563/676 562/677 547/661
f 549/688 580/652 581/655 550/689
f 583/647 586/686 587/687 584/646
f 319/485 464/690 591/691 573/482
f 464/690 465/377 592/376 591/691
f 614/692 613/693 615/694 616/695
f 623/696 613/697 614/698 624/699
f 596/700 617/701 618/702 595/703
f 598/704 619/705 620/706 597/707
f 600/708 598/704 597/707 599/709
f 602/710 600/711 599/712 601/713
f 604/714 602/710 601/713 603/715
f 606/716 621/717 622/718 605/719
f 608/720 606/716 605/719 607/721
f 610/722 608/720 607/721 609/723
f 627/724 610/722 609/723 628/725
f 630/726 629/727 620/706 619/705
f 615/694 604/714 603/715 616/695
f 617/728 623/696 624/699 618/729
f 612/730 625/731 626/732 611/733
f 625/731 627/724 628/725 626/732
f 611/733 629/727 630/726 612/730
f 660/486 408/489 463/734 663/735
f 384/736 372/737 631/738 641/739
f 371/740 374/741 635/742 644/743
f 377/744 375/745 637/746 646/747
f 378/748 377/749 646/750 648/751
f 379/752 378/753 648/754 650/755
f 380/756 379/752 650/755 652/757
f 381/758 376/759 639/760 654/761
f 382/762 381/758 654/761 656/763
f 383/764 382/762 656/763 658/765
f 445/766 383/767 658/768 661/769
f 373/454 380/756 652/757 633/455
f 374/741 384/736 641/739 635/742
f 327/770 632/771 634/380 329/381
f 445/772 661/773 659/490 446/493
f 664/774 637/746 375/745 489/775
f 693/776 692/777 667/778 666/779
f 677/780 676/781 671/782 670/783
f 679/784 678/785 673/786 672/787
f 681/788 680/789 678/785 679/784
f 683/790 682/791 680/792 681/793
f 685/794 684/795 682/791 683/790
f 687/796 686/797 675/798 674/799
f 689/800 688/801 686/797 687/796
f 691/802 690/803 688/804 689/805
f 700/806 672/787 673/786 701/807
f 668/808 669/809 684/795 685/794
f 670/810 671/811 692/777 693/776
f 667/812 669/809 668/808 666/813
f 695/814 698/815 699/816 694/817
f 697/818 696/819 690/803 691/802
f 695/814 694/817 696/819 697/818
f 698/820 700/806 701/807 699/821
f 723/822 725/823 724/824 722/825
f 721/826 720/827 723/822 722/825
f 703/828 702/829 727/830 726/831
f 705/832 704/833 729/834 728/835
f 707/836 706/837 704/838 705/839
f 709/840 708/841 706/837 707/836
f 711/842 710/843 708/841 709/840
f 713/844 712/845 731/846 730/847
f 715/848 714/849 712/850 713/851
f 717/852 716/853 714/849 715/848
f 733/854 732/855 716/853 717/852
f 736/856 728/857 729/858 737/859
f 724/860 725/861 710/843 711/842
f 726/831 727/830 720/827 721/826
f 718/862 732/863 733/864 719/865
f 719/865 734/866 735/867 718/862
f 734/866 736/856 737/859 735/867
f 777/868 776/869 742/870 741/871
f 325/872 328/873 746/874 743/875
f 742/870 745/876 744/877 741/871
f 740/878 739/879 748/880 747/881
f 752/882 751/883 770/884 769/885
f 755/886 754/887 751/883 752/882
f 758/888 757/889 754/890 755/891
f 761/892 760/893 757/889 758/888
f 764/894 763/895 773/896 772/897
f 767/437 766/436 763/895 764/894
f 778/532 783/578 484/579 438/533
f 784/898 769/885 770/884 785/899
f 744/900 745/901 760/893 761/892
f 747/881 748/880 776/869 777/868
f 781/530 784/898 785/899 782/531
f 811/902 810/903 789/904 788/905
f 788/905 789/904 790/906 791/907
f 787/908 786/909 793/910 792/911
f 797/912 796/913 794/914 795/915
f 799/916 798/917 796/913 797/912
f 801/918 800/919 798/917 799/916
f 791/920 790/921 800/919 801/918
f 803/922 802/923 805/924 804/925
f 807/926 806/927 802/923 803/922
f 809/928 808/929 806/927 807/926
f 794/914 814/930 815/931 795/915
f 792/911 793/910 810/903 811/902
f 812/932 808/929 809/928 813/933
f 814/934 812/935 813/936 815/937
f 835/938 834/939 818/940 819/941
f 819/941 818/940 820/942 821/943
f 816/944 817/945 822/946 823/947
f 821/943 820/942 824/948 825/949
f 824/948 833/950 832/951 825/949
f 827/952 828/953 829/954 826/955
f 831/956 827/957 826/958 830/959
f 833/950 831/956 830/959 832/951
f 823/947 822/946 834/939 835/938
f 863/960 841/961 840/962 864/963
f 841/964 844/965 843/966 840/967
f 836/968 847/969 846/970 837/971
f 844/965 850/972 849/973 843/966
f 336/974 848/975 862/976 338/977
f 849/973 850/972 860/978 861/979
f 341/980 853/981 854/982 342/983
f 852/984 851/985 856/986 855/987
f 340/988 859/989 853/981 341/980
f 858/990 857/991 851/985 852/984
f 338/977 862/976 859/989 340/988
f 861/979 860/978 857/991 858/990
f 847/969 863/960 864/963 846/970
