# Mirrorly browser-ready derivative; original source and license metadata remain in this folder.
# Rebuild with scripts/Build-Mirrorly3DAssets.ps1. Shape: Curtain
mtllib mirrorly.mtl
# This is a mesh file for MakeHuman
#
# This asset was explicitly released as CC0 in september 2020. The license
# text for CC0 can be found in the root of this repository.
#
# The copyright holders at the point of the release to CC0 were:
#
# Copyright (C) 2020 Data Collection AB, https://www.datacollection.se
# Copyright (C) 2020 Joel Palmius
# Copyright (C) 2020 Jonas Hauquier
#
# The primary legal contact for MakeHuman is Data Collection AB.
#
# For more information, see homepage at http://www.makehumancommunity.org
#
# basemesh hm08
v 0.053900 7.900300 0.362900
v 0.225800 7.860100 0.336400
v -0.002500 7.906200 0.359300
v 0.135700 7.884500 0.361300
v 0.307200 7.834600 0.284100
v 0.368900 7.805600 0.229100
v 0.417700 7.770400 0.172300
v -0.039100 7.905600 0.312500
v -0.101600 7.892700 0.240000
v -0.166100 7.860100 0.155500
v -0.206300 7.813200 0.062900
v -0.225800 7.756200 -0.040300
v -0.232600 7.685200 -0.150400
v -0.236300 7.594600 -0.252500
v -0.241900 7.494800 -0.343700
v -0.247400 7.372800 -0.427700
v -0.234600 7.226800 -0.486600
v -0.221200 7.056700 -0.499700
v -0.201600 6.892000 -0.485900
v -0.176000 6.730500 -0.458900
v -0.150100 6.570300 -0.417200
v -0.128900 6.411900 -0.364200
v -0.128500 6.252700 -0.298300
v -0.121900 6.075300 -0.240000
v -0.116400 5.969600 -0.216700
v 0.024700 7.898900 0.296300
v -0.033600 7.884800 0.213100
v -0.092900 7.845500 0.124300
v -0.128600 7.795500 0.030400
v -0.144800 7.739600 -0.071700
v -0.150100 7.666200 -0.179800
v -0.151700 7.577400 -0.284600
v -0.149800 7.478100 -0.381000
v -0.150300 7.348500 -0.462200
v -0.133700 7.198600 -0.503400
v -0.123400 7.036800 -0.512100
v -0.110800 6.880200 -0.505600
v -0.096600 6.721900 -0.481900
v -0.081100 6.562700 -0.433200
v -0.070900 6.404100 -0.372000
v -0.067600 6.247900 -0.308200
v -0.065500 6.078000 -0.247500
v -0.063400 5.976500 -0.221700
v 0.098100 7.845500 0.291800
v 0.051500 7.874900 0.188600
v -0.006400 7.828700 0.096000
v -0.041200 7.777100 0.001900
v -0.056000 7.718300 -0.100300
v -0.061300 7.643600 -0.201900
v -0.061900 7.555700 -0.306300
v -0.057400 7.452000 -0.396500
v -0.052200 7.321100 -0.466600
v -0.047100 7.176900 -0.507400
v -0.040200 7.023300 -0.525600
v -0.033600 6.870000 -0.523400
v -0.025800 6.715700 -0.501200
v -0.016700 6.558600 -0.449700
v -0.011200 6.402700 -0.378800
v -0.010400 6.248500 -0.311500
v -0.014700 6.081800 -0.248600
v -0.019600 5.981900 -0.223600
v 0.184700 7.825700 0.263800
v 0.143100 7.858600 0.155100
v 0.091000 7.804800 0.062600
v 0.054900 7.751600 -0.027800
v 0.038600 7.688200 -0.122700
v 0.033500 7.615700 -0.223100
v 0.032100 7.526100 -0.321100
v 0.033000 7.418900 -0.403200
v 0.034700 7.293600 -0.467000
v 0.037500 7.157100 -0.513000
v 0.039400 7.011100 -0.539900
v 0.041000 6.862200 -0.541900
v 0.045100 6.711500 -0.520200
v 0.049200 6.555900 -0.466800
v 0.051400 6.406000 -0.386400
v 0.047400 6.255100 -0.311000
v 0.037300 6.088200 -0.243000
v 0.028400 5.989100 -0.216800
v 0.262900 7.802400 0.216300
v 0.226300 7.823400 0.113800
v 0.179900 7.776300 0.027100
v 0.144700 7.723400 -0.059100
v 0.127800 7.657700 -0.146800
v 0.121300 7.583300 -0.241400
v 0.117800 7.494300 -0.331600
v 0.116000 7.388100 -0.408800
v 0.117400 7.269400 -0.470400
v 0.117900 7.139800 -0.518400
v 0.115400 7.000500 -0.551200
v 0.113000 6.855200 -0.556600
v 0.113900 6.706500 -0.534000
v 0.114300 6.555400 -0.479100
v 0.111700 6.412100 -0.394400
v 0.105700 6.266600 -0.308300
v 0.090700 6.094900 -0.231500
v 0.082400 5.989200 -0.202600
v 0.329600 7.794100 0.155600
v 0.291700 7.791300 0.082000
v 0.255700 7.750200 -0.000800
v 0.226400 7.694900 -0.080600
v 0.210900 7.630500 -0.165200
v 0.203700 7.556900 -0.255500
v 0.199500 7.468000 -0.341800
v 0.197800 7.362500 -0.413900
v 0.199700 7.247000 -0.472600
v 0.199500 7.122900 -0.520100
v 0.194900 6.994900 -0.557100
v 0.191900 6.855100 -0.564400
v 0.192900 6.710700 -0.539500
v 0.188100 6.563700 -0.484900
v 0.175700 6.421900 -0.398800
v 0.168200 6.281300 -0.302100
v 0.149100 6.107200 -0.217500
v 0.140800 5.995900 -0.182700
v 0.368300 7.786400 0.129200
v 0.351300 7.762400 0.063900
v 0.333000 7.727200 -0.014200
v 0.318500 7.670100 -0.091600
v 0.308100 7.608000 -0.172900
v 0.304200 7.532500 -0.260100
v 0.302300 7.438800 -0.340900
v 0.305200 7.341400 -0.416100
v 0.302200 7.219700 -0.468000
v 0.301700 7.101700 -0.513700
v 0.298500 6.978000 -0.545200
v 0.312500 6.840900 -0.543900
v 0.304800 6.705300 -0.513700
v 0.290100 6.571900 -0.459100
v 0.256900 6.435600 -0.386500
v 0.240200 6.297700 -0.286500
v 0.215200 6.118800 -0.199300
v 0.204300 6.002500 -0.162000
v 0.428400 7.681300 0.816300
v 0.448600 7.697300 0.745100
v 0.466200 7.716700 0.656100
v 0.479000 7.719900 0.570500
v 0.489400 7.722100 0.494100
v 0.493700 7.721100 0.419400
v 0.488100 7.727400 0.343500
v 0.482000 7.733900 0.266900
v 0.478400 7.730300 0.191200
v 0.047800 7.901300 0.423300
v 0.233400 7.849900 0.409800
v -0.030000 7.910800 0.404200
v 0.138900 7.879700 0.429200
v 0.324900 7.817000 0.362900
v 0.393100 7.788600 0.306300
v 0.443800 7.758400 0.268800
v 0.024800 7.904000 0.497600
v 0.231000 7.848500 0.478300
v -0.070600 7.918200 0.480000
v 0.131400 7.878400 0.494900
v 0.328800 7.811500 0.436000
v 0.406800 7.773400 0.393000
v 0.459700 7.747300 0.354000
v 0.003400 7.912300 0.588200
v 0.229000 7.850200 0.546900
v -0.110400 7.927300 0.581200
v 0.120800 7.879500 0.570700
v 0.324900 7.814600 0.507100
v 0.407400 7.769700 0.469500
v 0.464900 7.739000 0.436500
v -0.005300 7.911300 0.689700
v 0.224400 7.849500 0.617500
v -0.128900 7.939100 0.698000
v 0.116400 7.875300 0.653600
v 0.325200 7.817200 0.584500
v 0.397300 7.765700 0.543200
v 0.457800 7.736600 0.511500
v -0.009400 7.898400 0.794700
v 0.219400 7.836000 0.697700
v -0.136600 7.916400 0.824400
v 0.113600 7.863300 0.743700
v 0.311700 7.809100 0.658700
v 0.387900 7.760600 0.619300
v 0.448400 7.734200 0.587400
v -0.015400 7.882000 0.912900
v 0.213100 7.820400 0.789400
v -0.146000 7.882900 0.950000
v 0.110900 7.849400 0.846500
v 0.302900 7.799200 0.746000
v 0.378400 7.755100 0.704900
v 0.434500 7.727100 0.671800
v -0.008000 7.835900 1.035700
v 0.208600 7.802000 0.886200
v -0.142000 7.826900 1.092800
v 0.111200 7.818500 0.957600
v 0.293400 7.785000 0.836100
v 0.364300 7.742400 0.791600
v 0.416100 7.708400 0.757100
v 0.014100 7.765000 1.157100
v 0.211000 7.777900 0.971600
v -0.106800 7.732900 1.231700
v 0.122700 7.781400 1.063000
v 0.286700 7.765100 0.909500
v 0.352100 7.728800 0.861600
v 0.398200 7.692400 0.825300
v 0.048600 7.697400 1.257300
v 0.222500 7.744500 1.038800
v -0.053700 7.639200 1.342600
v 0.148400 7.731500 1.139500
v 0.288300 7.745700 0.965200
v 0.344200 7.714600 0.910600
v 0.383500 7.677100 0.870800
v 0.104200 7.628600 1.324800
v 0.249000 7.711700 1.088100
v 0.010700 7.557400 1.427000
v 0.186200 7.687000 1.197800
v 0.304300 7.720800 1.004400
v 0.344700 7.697300 0.941500
v 0.376600 7.666300 0.899400
v 0.160400 7.567800 1.369800
v 0.284700 7.682000 1.122400
v 0.158653 7.458000 1.477100
v 0.236100 7.647500 1.246300
v 0.326700 7.695400 1.027800
v 0.350300 7.676100 0.957500
v 0.373300 7.658700 0.917400
v 0.293863 7.479100 1.419100
v 0.332500 7.637500 1.160400
v 0.220621 7.338500 1.514700
v 0.306200 7.579100 1.276000
v 0.348600 7.652700 1.034400
v 0.358300 7.650900 0.961700
v 0.387400 7.651500 0.918300
v -0.094700 7.912700 0.360200
v -0.150900 7.915600 0.441100
v -0.196900 7.921500 0.550100
v -0.224500 7.924100 0.679800
v -0.235300 7.903600 0.813900
v -0.254800 7.870700 0.961000
v -0.243800 7.790400 1.116100
v -0.170300 7.903700 0.295400
v -0.234200 7.909200 0.382700
v -0.286000 7.907100 0.499200
v -0.308000 7.898200 0.634000
v -0.325700 7.886100 0.779100
v -0.340600 7.833800 0.947900
v -0.337200 7.745100 1.126400
v -0.246200 7.879700 0.211200
v -0.323600 7.885400 0.312000
v -0.374900 7.873500 0.438800
v -0.404100 7.865300 0.582600
v -0.427500 7.846000 0.742400
v -0.437700 7.787800 0.926800
v -0.435100 7.692000 1.123400
v -0.291300 7.837800 0.118200
v -0.385500 7.857300 0.222600
v -0.455500 7.844900 0.364100
v -0.502200 7.823500 0.523200
v -0.526400 7.792500 0.697600
v -0.542100 7.732000 0.900500
v -0.537300 7.632000 1.096600
v -0.314900 7.778900 0.012400
v -0.418000 7.810300 0.094500
v -0.517100 7.814700 0.264200
v -0.576400 7.784400 0.447200
v -0.617300 7.737200 0.646800
v -0.629400 7.660700 0.856600
v -0.621500 7.560400 1.060900
v -0.323900 7.709400 -0.099700
v -0.432100 7.742900 -0.017600
v -0.547500 7.775900 0.130700
v -0.638300 7.751900 0.352500
v -0.691400 7.680000 0.578600
v -0.701000 7.593700 0.805400
v -0.686000 7.488400 1.012000
v -0.331600 7.619600 -0.204000
v -0.443200 7.656800 -0.118400
v -0.571000 7.692800 0.014600
v -0.700000 7.686400 0.236100
v -0.758500 7.624100 0.489500
v -0.774100 7.530200 0.734700
v -0.761300 7.428500 0.952100
v -0.342200 7.517800 -0.290700
v -0.458100 7.561100 -0.204500
v -0.594800 7.600900 -0.077100
v -0.730500 7.610100 0.125400
v -0.816000 7.564900 0.382700
v -0.840600 7.469200 0.637700
v -0.827800 7.359100 0.858400
v -0.354300 7.406100 -0.360500
v -0.475600 7.443400 -0.274300
v -0.610900 7.484300 -0.174400
v -0.757300 7.501600 0.021500
v -0.858200 7.461800 0.257200
v -0.894800 7.385900 0.515400
v -0.887800 7.294200 0.739900
v -0.365600 7.257900 -0.418900
v -0.481400 7.294700 -0.328300
v -0.623300 7.336400 -0.229300
v -0.768700 7.370300 -0.082700
v -0.876600 7.349800 0.145200
v -0.920300 7.286500 0.374700
v -0.925600 7.205000 0.582500
v -0.348200 7.082200 -0.449100
v -0.474600 7.116800 -0.359200
v -0.609600 7.150000 -0.264500
v -0.759500 7.196500 -0.131900
v -0.863400 7.190600 0.048600
v -0.914700 7.168500 0.242200
v -0.936800 7.116200 0.424200
v -0.317000 6.905800 -0.443700
v -0.440800 6.926100 -0.367200
v -0.572300 6.962200 -0.272300
v -0.708000 6.994400 -0.172300
v -0.816100 7.028400 -0.020500
v -0.882700 7.036400 0.142900
v -0.911800 7.020000 0.287700
v -0.204500 7.685400 1.276700
v -0.147300 7.572300 1.403500
v -0.156884 7.466600 1.480300
v -0.101400 7.355200 1.535000
v 0.152168 7.239100 1.552100
v -0.301900 7.630000 1.304600
v -0.277874 7.510600 1.422500
v -0.221432 7.391800 1.499600
v -0.159463 7.283900 1.546400
v -0.113411 7.163600 1.561600
v -0.399400 7.570500 1.295200
v -0.345811 7.443500 1.415500
v -0.287084 7.337100 1.489500
v -0.225558 7.220200 1.539900
v -0.168084 7.111400 1.543000
v -0.491000 7.498900 1.270600
v -0.427500 7.382100 1.391100
v -0.356568 7.280100 1.461300
v -0.293789 7.174400 1.504800
v -0.230495 7.064800 1.513600
v -0.578200 7.431300 1.233900
v -0.513100 7.324800 1.354300
v -0.436000 7.228700 1.421400
v -0.354726 7.125000 1.462100
v -0.294011 7.015200 1.479800
v -0.641700 7.375200 1.176700
v -0.590200 7.273700 1.289500
v -0.515000 7.179300 1.364700
v -0.430000 7.076000 1.411900
v -0.359221 6.967800 1.432400
v -0.717800 7.320400 1.113000
v -0.658100 7.220100 1.212100
v -0.597300 7.128200 1.291900
v -0.524600 7.031600 1.348600
v -0.456500 6.916700 1.373000
v -0.791800 7.257700 1.017400
v -0.732600 7.164700 1.123200
v -0.679800 7.076500 1.203700
v -0.619200 6.979600 1.255800
v -0.558100 6.876900 1.276800
v -0.850800 7.194100 0.896900
v -0.812300 7.107300 1.011800
v -0.760200 7.026800 1.098100
v -0.714000 6.948200 1.156000
v -0.666300 6.845300 1.185900
v -0.897600 7.120600 0.741100
v -0.870500 7.043400 0.863800
v -0.831300 6.973800 0.941900
v -0.789800 6.895800 0.987700
v -0.745700 6.818000 1.005000
v -0.918300 7.049200 0.568800
v -0.895300 6.987400 0.668000
v -0.870100 6.917400 0.737400
v -0.835000 6.849500 0.779000
v -0.785500 6.783000 0.795200
v -0.917100 6.975700 0.405300
v -0.898700 6.933200 0.480500
v -0.880700 6.895500 0.534700
v -0.862000 6.860900 0.567700
v -0.837000 6.822900 0.585300
v -0.861100 6.913300 0.190100
v -0.872700 6.908600 0.265300
v -0.877200 6.892100 0.314000
v -0.873000 6.874900 0.352000
v -0.862300 6.850800 0.373800
v -0.852700 6.836200 0.387200
v -0.790300 6.770600 0.116400
v -0.797700 6.771000 0.159700
v -0.803100 6.772000 0.193000
v -0.806000 6.769500 0.218800
v -0.805300 6.763800 0.236900
v -0.804300 6.758700 0.248600
v 0.334021 7.253700 1.312900
v 0.365632 7.496900 1.140100
v 0.288116 7.110200 1.394900
v 0.356053 7.396700 1.232200
v 0.392600 7.562600 1.042700
v 0.415800 7.597900 0.984800
v 0.436400 7.616200 0.941200
v 0.238379 7.007200 1.453700
v 0.184958 6.936300 1.443900
v 0.125274 6.886200 1.443600
v -0.138537 6.836900 1.429000
v -0.189674 6.785700 1.410400
v -0.272642 6.750400 1.385400
v -0.357895 6.717800 1.330600
v -0.472900 6.671900 1.217300
v -0.566800 6.656000 1.106700
v -0.650500 6.661000 0.960300
v -0.716700 6.704200 0.785600
v -0.783900 6.780200 0.593000
v -0.812500 6.810600 0.400400
v -0.800600 6.746500 0.271300
v -0.275900 6.738400 -0.421800
v -0.396600 6.752600 -0.358000
v -0.516300 6.786600 -0.266200
v -0.645900 6.831700 -0.168600
v -0.761900 6.876100 -0.049200
v -0.826300 6.905700 0.077700
v -0.236300 6.581200 -0.390500
v -0.349900 6.595200 -0.341600
v -0.467800 6.635500 -0.248700
v -0.586400 6.681200 -0.150000
v -0.690400 6.723800 -0.046400
v -0.762400 6.754200 0.051000
v -0.703600 6.608000 0.114200
v -0.717500 6.626800 0.149500
v -0.725700 6.635300 0.174200
v -0.728900 6.635000 0.190700
v -0.729800 6.631600 0.202300
v -0.730500 6.629300 0.212100
v -0.731300 6.620400 0.238700
v -0.204700 6.425600 -0.344100
v -0.310900 6.445900 -0.295900
v -0.430200 6.473400 -0.216700
v -0.539300 6.510900 -0.115900
v -0.623200 6.548300 -0.015200
v -0.677300 6.582000 0.063500
v -0.631200 6.392900 0.187400
v -0.646400 6.416400 0.230100
v -0.655500 6.433000 0.258500
v -0.660100 6.441600 0.275300
v -0.662300 6.445300 0.285700
v -0.663900 6.447600 0.293400
v -0.666100 6.450400 0.305900
v -0.203600 6.261300 -0.273700
v -0.297000 6.274000 -0.222600
v -0.397100 6.291700 -0.143900
v -0.488000 6.313400 -0.047800
v -0.559700 6.338200 0.046600
v -0.604900 6.365600 0.126900
v -0.547800 6.141400 0.318100
v -0.563000 6.179100 0.364200
v -0.575200 6.213000 0.394300
v -0.583600 6.234600 0.411900
v -0.588900 6.247300 0.421500
v -0.593900 6.258500 0.427600
v -0.604000 6.281200 0.426000
v -0.194100 6.070800 -0.216000
v -0.281700 6.067600 -0.161100
v -0.370000 6.069400 -0.065100
v -0.443300 6.074200 0.054900
v -0.495400 6.083700 0.165300
v -0.527200 6.104200 0.254500
v -0.495000 5.992100 0.401200
v -0.507300 6.042400 0.455500
v -0.521900 6.089000 0.490300
v -0.532700 6.117700 0.505700
v -0.539100 6.132900 0.510500
v -0.546700 6.150200 0.514600
v -0.568200 6.199200 0.490800
v -0.191900 5.961400 -0.199000
v -0.280000 5.954100 -0.145200
v -0.366100 5.946700 -0.032200
v -0.433300 5.934300 0.114200
v -0.468700 5.924900 0.237200
v -0.485800 5.932900 0.340900
v 0.184442 7.108900 1.541800
v 0.274189 7.223700 1.509800
v 0.383600 7.627400 0.968200
v 0.404600 7.639700 0.925100
v 0.362600 7.611400 1.039700
v 0.334905 7.368600 1.420400
v 0.365705 7.507100 1.260100
v 0.363600 7.567000 1.136700
v -0.693000 6.703000 0.980900
v -0.618700 6.712200 1.142500
v -0.508800 6.745400 1.256300
v -0.393700 6.786600 1.352000
v -0.317147 6.834400 1.419900
v -0.243758 6.877600 1.461000
v -0.175011 6.938300 1.496400
v -0.125126 6.992500 1.517800
v 0.129989 7.045200 1.532300
v -0.803100 6.754000 0.257500
v -0.826900 6.815200 0.392600
v -0.802100 6.791100 0.586200
v -0.745000 6.728300 0.792100
v -0.731100 6.626200 0.223900
v -0.665200 6.449300 0.300100
v -0.599000 6.269700 0.428500
v -0.554600 6.168000 0.506000
v 0.411700 7.667600 0.862600
v 0.400500 7.658500 0.891900
v 0.449900 7.668400 0.820500
v 0.479000 7.684400 0.740700
v 0.491800 7.708600 0.638100
v 0.502600 7.708800 0.547600
v 0.512400 7.707900 0.466900
v 0.513600 7.709200 0.396400
v 0.505000 7.715000 0.343900
v 0.511300 7.709900 0.290000
v 0.521100 7.697700 0.227100
v 0.431400 7.655800 0.866700
v 0.418900 7.647300 0.896200
v 0.724600 7.178300 0.515800
v 0.700300 7.212700 0.582100
v 0.639000 7.279100 0.729600
v 0.527600 7.670400 0.676800
v 0.532000 7.687900 0.585200
v 0.539300 7.688900 0.493600
v 0.542900 7.689100 0.407700
v 0.533800 7.694400 0.338800
v 0.554300 7.675800 0.275500
v 0.671600 7.246000 0.653000
v 0.450300 7.624000 0.911900
v 0.419400 7.736900 0.080800
v 0.419300 7.696100 0.002100
v 0.422900 7.644800 -0.077500
v 0.425500 7.580100 -0.156800
v 0.426200 7.497500 -0.237700
v 0.421000 7.406100 -0.317300
v 0.423000 7.305000 -0.389800
v 0.421700 7.185300 -0.443200
v 0.427100 7.066100 -0.479800
v 0.421000 6.947000 -0.492500
v 0.412200 6.831300 -0.483700
v 0.396700 6.710600 -0.449500
v 0.374100 6.589800 -0.398800
v 0.349000 6.461000 -0.339800
v 0.316100 6.313900 -0.253100
v 0.285100 6.127500 -0.170000
v 0.270600 6.007300 -0.134100
v 0.588600 7.621100 0.172800
v 0.496800 7.668100 0.048000
v 0.512500 7.616300 -0.026100
v 0.518800 7.551400 -0.103600
v 0.521200 7.467900 -0.185100
v 0.520800 7.376000 -0.266500
v 0.522700 7.276200 -0.339200
v 0.522900 7.152600 -0.386800
v 0.518400 7.036600 -0.416200
v 0.507300 6.925000 -0.418100
v 0.488100 6.817300 -0.400400
v 0.463400 6.708200 -0.365900
v 0.436600 6.595500 -0.323100
v 0.415300 6.471800 -0.275700
v 0.383300 6.324900 -0.202700
v 0.346700 6.135200 -0.122700
v 0.330300 6.016700 -0.085100
v 0.612000 7.582100 0.109100
v 0.635300 7.526400 0.029400
v 0.640700 7.447400 -0.054100
v 0.640200 7.352400 -0.130900
v 0.643000 7.245500 -0.195700
v 0.638200 7.128500 -0.239400
v 0.630600 7.017500 -0.264700
v 0.613000 6.910800 -0.266000
v 0.588000 6.803600 -0.245500
v 0.560600 6.697100 -0.213600
v 0.537000 6.589000 -0.178300
v 0.512900 6.475700 -0.134000
v 0.482200 6.336900 -0.076100
v 0.437700 6.150000 0.002400
v 0.419300 6.038200 0.047800
v 0.485000 7.707300 0.117800
v 0.398400 6.143500 -0.063200
v 0.383800 6.033200 -0.022600
v 0.438700 6.331300 -0.141500
v 0.469300 6.472800 -0.205200
v 0.488300 6.591800 -0.248200
v 0.513400 6.701600 -0.286400
v 0.542000 6.807700 -0.320600
v 0.566200 6.913800 -0.340900
v 0.583100 7.024400 -0.340100
v 0.591600 7.137500 -0.314300
v 0.593900 7.259500 -0.270600
v 0.589600 7.360200 -0.198800
v 0.589000 7.452900 -0.118800
v 0.585400 7.538400 -0.039600
v 0.575000 7.600300 0.039000
v 0.555300 7.647000 0.108800
v 0.538700 7.678400 0.168700
v 0.569900 7.651100 0.223700
v 0.569000 7.660800 0.342800
v 0.608900 7.603600 0.237000
v 0.632200 7.567400 0.173700
v 0.654000 7.513100 0.097600
v 0.589000 7.633000 0.288800
v 0.569300 7.656300 0.426600
v 0.620500 7.592500 0.307700
v 0.645300 7.554500 0.241600
v 0.667400 7.502400 0.165100
v 0.596700 7.624100 0.365900
v 0.563900 7.654600 0.517900
v 0.626700 7.584400 0.383500
v 0.652800 7.541000 0.311400
v 0.676800 7.487900 0.232700
v 0.596300 7.619400 0.450700
v 0.499100 7.568100 0.934500
v 0.619700 7.307800 0.791200
v 0.609800 7.330300 0.834200
v 0.600700 7.349400 0.868900
v 0.486600 7.560600 0.967300
v 0.465800 7.544500 1.004500
v 0.592000 7.360900 0.898600
v 0.563600 7.643000 0.607800
v 0.439800 7.514500 1.057600
v 0.413500 7.473700 1.115100
v 0.635400 7.566900 0.458200
v 0.660100 7.520200 0.378800
v 0.685300 7.467200 0.297100
v 0.597800 7.607300 0.536100
v 0.539300 7.479700 0.954100
v 0.462600 7.631000 0.884300
v 0.480300 7.639900 0.846800
v 0.509700 7.636500 0.794000
v 0.525500 7.475400 0.977100
v 0.506600 7.463100 1.009800
v 0.540800 7.624400 0.738200
v 0.576200 7.601300 0.678500
v 0.479700 7.438900 1.055000
v 0.463400 7.416200 1.084200
v 0.643600 7.520000 0.522000
v 0.673700 7.475800 0.440300
v 0.700800 7.425800 0.360000
v 0.617500 7.562500 0.607400
v 0.677000 7.443000 0.010800
v 0.694800 7.433900 0.081300
v 0.706600 7.417700 0.148100
v 0.713800 7.397500 0.211500
v 0.724700 7.356500 0.274800
v 0.680600 7.348000 -0.065800
v 0.708900 7.343300 -0.000400
v 0.723300 7.331600 0.068200
v 0.733000 7.313600 0.130300
v 0.746500 7.274300 0.195800
v 0.680000 7.240800 -0.127700
v 0.710300 7.237300 -0.061400
v 0.734000 7.230100 0.001800
v 0.743200 7.213900 0.065600
v 0.754800 7.181100 0.132200
v 0.673900 7.125400 -0.168800
v 0.703400 7.123500 -0.103000
v 0.730600 7.117200 -0.043500
v 0.747300 7.104300 0.020400
v 0.755700 7.077500 0.086700
v 0.667700 7.015300 -0.193800
v 0.697800 7.014200 -0.127700
v 0.723900 7.008700 -0.066500
v 0.742900 6.997100 -0.006400
v 0.750800 6.975500 0.059800
v 0.652500 6.911200 -0.195900
v 0.685700 6.911700 -0.131200
v 0.713400 6.906700 -0.070100
v 0.733100 6.896700 -0.010900
v 0.740700 6.879700 0.050300
v 0.629800 6.805000 -0.178200
v 0.667200 6.806300 -0.115300
v 0.695700 6.801300 -0.054000
v 0.713500 6.791800 0.005100
v 0.721100 6.777400 0.059900
v 0.605100 6.698300 -0.149000
v 0.642700 6.698800 -0.087200
v 0.669400 6.693200 -0.025100
v 0.683500 6.684600 0.034600
v 0.689600 6.671400 0.086800
v 0.577300 6.591900 -0.112600
v 0.609600 6.592900 -0.048900
v 0.631100 6.588400 0.015400
v 0.642800 6.579400 0.074700
v 0.647400 6.566500 0.125700
v 0.548100 6.482500 -0.068900
v 0.575800 6.485400 -0.004100
v 0.594600 6.480300 0.060800
v 0.605700 6.470300 0.120300
v 0.609400 6.457300 0.170500
v 0.514400 6.341800 -0.011100
v 0.537400 6.341000 0.053700
v 0.552500 6.335600 0.116000
v 0.562000 6.328900 0.171900
v 0.569000 6.327800 0.217200
v 0.465300 6.161000 0.066900
v 0.486500 6.167600 0.132500
v 0.503400 6.168400 0.190800
v 0.513300 6.167900 0.239700
v 0.519100 6.169500 0.281000
v 0.434400 6.054200 0.111300
v 0.456800 6.070900 0.185500
v 0.480000 6.073600 0.240700
v 0.490800 6.078200 0.277500
v 0.497900 6.081100 0.319600
v 0.745500 7.129900 0.447000
v 0.754400 7.072400 0.381900
v 0.770800 7.012300 0.334000
v 0.772000 6.956100 0.293700
v 0.764900 6.897200 0.251700
v 0.754500 6.830500 0.213200
v 0.724500 6.756900 0.179400
v 0.710400 6.860000 0.484200
v 0.707500 6.847500 0.512700
v 0.698200 6.821200 0.566300
v 0.702600 6.832000 0.538700
v 0.695300 6.815100 0.587900
v 0.690600 6.809700 0.600900
v 0.686100 6.804300 0.612800
v 0.682100 6.798600 0.623200
v 0.712300 6.858100 0.446300
v 0.713000 6.856200 0.406500
v 0.716200 6.851400 0.376100
v 0.722000 6.841400 0.347000
v 0.724900 6.816500 0.336600
v 0.731100 6.769000 0.305000
v 0.723000 6.716000 0.278200
v 0.754500 6.948200 0.132300
v 0.725000 6.766700 0.109200
v 0.761500 7.037200 0.164200
v 0.743700 6.861900 0.111900
v 0.764600 7.127300 0.209100
v 0.754500 7.209100 0.268800
v 0.740400 7.285400 0.343500
v 0.716300 7.346300 0.425700
v 0.521000 7.566500 0.875700
v 0.542700 7.559500 0.836100
v 0.602200 7.510300 0.737200
v 0.626300 7.476100 0.664500
v 0.658300 7.435700 0.582400
v 0.691100 7.392400 0.502700
v 0.572000 7.546000 0.792300
v 0.728200 6.759700 0.148900
v 0.576700 7.455500 0.865000
v 0.635700 7.377600 0.711700
v 0.665800 7.338000 0.628800
v 0.695600 7.299900 0.553800
v 0.591200 7.435200 0.824400
v 0.754900 6.922300 0.199600
v 0.760800 6.996100 0.236900
v 0.745100 6.847500 0.166400
v 0.762100 7.068300 0.279600
v 0.758700 7.138200 0.336400
v 0.746000 7.202800 0.405700
v 0.725600 7.260800 0.481500
v 0.564400 7.470400 0.900700
v 0.609500 7.410000 0.777000
v 0.507800 7.568700 0.908600
v 0.552300 7.475400 0.934300
v 0.718200 6.917700 0.535800
v 0.713700 7.023300 0.560700
v 0.706800 7.126700 0.580600
v 0.726700 7.094800 0.520600
v 0.728900 6.998400 0.508800
v 0.721500 6.910200 0.494100
v 0.724400 6.876400 0.370200
v 0.749300 6.917000 0.361600
v 0.732900 6.965100 0.352700
v 0.736600 6.926800 0.315200
v 0.746300 6.890000 0.328900
v 0.727200 6.859800 0.340400
v 0.702100 6.929800 0.580500
v 0.694100 7.046100 0.616600
v 0.682000 7.151300 0.643600
v 0.688500 6.930700 0.619200
v 0.673000 7.068700 0.678200
v 0.655900 7.176500 0.713200
v 0.678600 6.929000 0.646900
v 0.657800 7.082500 0.724900
v 0.637500 7.198900 0.768000
v 0.666000 6.924000 0.681200
v 0.641700 7.101000 0.784100
v 0.618700 7.228300 0.835200
v 0.625200 7.215800 0.804900
v 0.648800 7.093100 0.757300
v 0.672500 6.924000 0.663400
v 0.721600 6.897800 0.449400
v 0.737400 6.970200 0.455200
v 0.711900 7.053300 0.451900
v 0.721200 7.007700 0.396700
v 0.744300 6.940000 0.404400
v 0.722800 6.888100 0.405200
v 0.727900 6.880100 0.277000
v 0.741500 6.846600 0.296300
v 0.728200 6.831700 0.321700
v 0.659800 6.924900 0.699000
v 0.634800 7.103000 0.806400
v 0.612700 7.234200 0.863500
v 0.711000 6.823200 0.243800
v 0.737400 6.801300 0.268300
v 0.733300 6.780900 0.294500
v 0.698500 6.757100 0.203700
v 0.727300 6.736400 0.240000
v 0.724800 6.724200 0.265700
v 0.570400 7.365400 0.941600
v 0.558700 7.363200 0.963300
v 0.541500 7.354700 0.996900
v 0.521700 7.339000 1.034100
v 0.580000 7.364000 0.923900
v 0.598200 7.236700 0.900100
v 0.589300 7.235500 0.922100
v 0.575200 7.227100 0.956900
v 0.562900 7.214900 0.990000
v 0.605000 7.235800 0.883100
v 0.625200 7.098400 0.835600
v 0.619200 7.092700 0.853400
v 0.606900 7.087100 0.889700
v 0.596000 7.079700 0.920700
v 0.629800 7.100300 0.822100
v 0.650200 6.921800 0.727500
v 0.644500 6.920000 0.745100
v 0.638800 6.911300 0.761800
v 0.631800 6.908500 0.783600
v 0.655000 6.922700 0.713100
v 0.675700 6.793400 0.640000
v 0.672600 6.791600 0.648200
v 0.669000 6.788400 0.657000
v 0.664800 6.787500 0.667300
v 0.678800 6.795000 0.632100
v 0.512200 7.325800 1.052100
v 0.557400 7.207200 1.003600
v 0.591500 7.078300 0.932800
v 0.628400 6.911700 0.793900
v 0.658900 6.796500 0.681300
v 0.699100 6.657700 0.179900
v 0.702100 6.640200 0.259400
v 0.693000 6.663100 0.127400
v 0.696300 6.659600 0.158000
v 0.701800 6.654900 0.198400
v 0.704300 6.650300 0.223400
v 0.703500 6.645300 0.245600
v 0.656100 6.555700 0.208600
v 0.665900 6.549500 0.290200
v 0.650900 6.559100 0.162400
v 0.653600 6.556500 0.189000
v 0.659300 6.554700 0.233200
v 0.662700 6.553100 0.259100
v 0.665000 6.551300 0.279600
v 0.618000 6.447900 0.249600
v 0.630900 6.446400 0.321000
v 0.612600 6.450500 0.205200
v 0.615500 6.448500 0.230400
v 0.622100 6.448100 0.273900
v 0.626000 6.448200 0.296600
v 0.629300 6.447500 0.313100
v 0.580100 6.329100 0.296200
v 0.593200 6.331600 0.344800
v 0.573400 6.327600 0.251100
v 0.576800 6.328100 0.276500
v 0.584000 6.330200 0.313300
v 0.588000 6.331000 0.328100
v 0.591400 6.331400 0.339100
v 0.532300 6.185900 0.354300
v 0.553400 6.203500 0.396100
v 0.522500 6.171200 0.312200
v 0.527300 6.178300 0.335600
v 0.538800 6.191700 0.371400
v 0.545500 6.195900 0.385100
v 0.550400 6.199400 0.393400
v 0.510200 6.100600 0.387800
v 0.533800 6.130900 0.424200
v 0.500900 6.081400 0.349300
v 0.505900 6.090800 0.370700
v 0.518700 6.106800 0.407700
v 0.528400 6.113100 0.422800
v 0.531800 6.119800 0.425300
v -0.163900 6.649800 -0.439600
v -0.089500 6.641500 -0.460200
v -0.022600 6.635600 -0.478900
v 0.046200 6.632100 -0.497700
v 0.114100 6.629300 -0.510700
v 0.191500 6.635900 -0.515700
v 0.299900 6.638000 -0.487400
v -0.832500 6.839800 0.151600
v -0.840800 6.837400 0.211600
v -0.843900 6.824700 0.301900
v -0.842900 6.820800 0.316900
v -0.846900 6.834100 0.277400
v -0.847200 6.842000 0.247500
v -0.819200 6.805800 0.341800
v -0.727600 6.798200 -0.049300
v -0.801800 6.825900 0.057100
v -0.616500 6.755900 -0.159300
v -0.491900 6.712300 -0.256600
v -0.372600 6.674600 -0.353400
v -0.256000 6.659400 -0.408300
v -0.841400 6.815900 0.329400
v 0.386000 6.649300 -0.424400
v 0.449600 6.652100 -0.344100
v 0.548600 6.643200 -0.195700
v 0.499900 6.647200 -0.266600
v 0.668700 6.618900 0.106200
v 0.664000 6.631600 0.054600
v 0.651200 6.639900 -0.005100
v 0.627300 6.645000 -0.068700
v 0.592100 6.644800 -0.131300
v 0.682000 6.598500 0.261600
v 0.680400 6.602900 0.241400
v 0.679500 6.605600 0.216300
v 0.678000 6.606800 0.194400
v 0.675500 6.608000 0.173500
v 0.672100 6.611100 0.144900
v 0.683000 6.594800 0.273400
v -0.138800 6.491200 -0.390600
v -0.075700 6.483600 -0.401600
v -0.013900 6.480400 -0.413000
v 0.050400 6.479700 -0.426700
v 0.113000 6.481700 -0.438200
v 0.181600 6.489600 -0.443900
v 0.278400 6.502200 -0.424100
v -0.716400 6.670600 0.058200
v -0.743800 6.691600 0.116400
v -0.655100 6.636900 -0.029900
v -0.560600 6.597200 -0.130800
v -0.451800 6.553900 -0.234600
v -0.330500 6.522100 -0.317700
v -0.220700 6.503200 -0.368300
v -0.764800 6.693400 0.224000
v -0.763400 6.681900 0.246800
v -0.755100 6.700800 0.153600
v -0.764900 6.697800 0.213800
v -0.765300 6.702700 0.200300
v -0.762400 6.704800 0.180900
v -0.764500 6.688900 0.233400
v 0.362500 6.525600 -0.369400
v 0.426000 6.533700 -0.299400
v 0.525400 6.532200 -0.156100
v 0.478900 6.532200 -0.226900
v 0.627400 6.512600 0.148400
v 0.623100 6.525500 0.097700
v 0.611700 6.535100 0.038500
v 0.591900 6.539800 -0.026000
v 0.562300 6.537300 -0.090500
v 0.645500 6.499900 0.296800
v 0.642600 6.501100 0.278200
v 0.639000 6.502000 0.253900
v 0.635400 6.502400 0.229300
v 0.632900 6.503100 0.210000
v 0.630100 6.505600 0.184000
v 0.646700 6.498400 0.306000
v -0.129600 6.334600 -0.332300
v -0.068700 6.327600 -0.341700
v -0.010100 6.327000 -0.346300
v 0.049800 6.332300 -0.349300
v 0.109700 6.342000 -0.351400
v 0.174200 6.355200 -0.349500
v 0.250100 6.371600 -0.334600
v -0.641800 6.477800 0.089000
v -0.667400 6.504200 0.145900
v -0.593100 6.447700 0.010300
v -0.514200 6.416900 -0.084600
v -0.413400 6.387700 -0.180800
v -0.304700 6.364100 -0.258900
v -0.206100 6.346700 -0.308700
v -0.695400 6.540600 0.245200
v -0.697100 6.537500 0.262800
v -0.681200 6.524800 0.185500
v -0.694500 6.541200 0.237400
v -0.693100 6.541300 0.227600
v -0.689300 6.537100 0.211900
v -0.696300 6.539400 0.253700
v 0.331200 6.390300 -0.296800
v 0.400000 6.401800 -0.241000
v 0.499100 6.411700 -0.107600
v 0.455500 6.407000 -0.175500
v 0.591300 6.395800 0.191800
v 0.584900 6.401400 0.144600
v 0.574800 6.410000 0.086800
v 0.557700 6.416300 0.023200
v 0.532700 6.416500 -0.041900
v 0.611900 6.391100 0.323000
v 0.608700 6.391300 0.309700
v 0.605000 6.391200 0.291800
v 0.601300 6.391000 0.272200
v 0.598300 6.391300 0.252000
v 0.595300 6.392700 0.226500
v 0.613100 6.390500 0.329700
v -0.124400 6.166900 -0.267700
v -0.066200 6.165300 -0.276300
v -0.011700 6.167200 -0.278200
v 0.043200 6.174200 -0.274500
v 0.098800 6.185600 -0.267300
v 0.158700 6.200600 -0.257800
v 0.227700 6.215600 -0.242100
v -0.568300 6.243900 0.182200
v -0.594300 6.274000 0.245200
v -0.527800 6.218600 0.098300
v -0.465200 6.199600 -0.002300
v -0.383100 6.186600 -0.106200
v -0.288300 6.175500 -0.191200
v -0.197300 6.169800 -0.244000
v -0.632000 6.353900 0.353800
v -0.636500 6.363700 0.362400
v -0.610000 6.303000 0.289300
v -0.629200 6.347900 0.346300
v -0.625700 6.340100 0.335700
v -0.619700 6.326100 0.318200
v -0.634600 6.359400 0.359000
v 0.301300 6.229000 -0.212000
v 0.366300 6.238600 -0.163800
v 0.462900 6.251200 -0.039900
v 0.420400 6.245100 -0.104400
v 0.544500 6.253300 0.247700
v 0.537800 6.250600 0.204300
v 0.529000 6.255800 0.150400
v 0.514600 6.259300 0.089300
v 0.493700 6.258400 0.024500
v 0.570400 6.268600 0.362400
v 0.566300 6.267000 0.352900
v 0.561200 6.264800 0.339400
v 0.556400 6.261800 0.323800
v 0.552400 6.258200 0.304600
v 0.548600 6.255200 0.280100
v 0.572900 6.269900 0.366700
vt 0.4892 0.5274
vt 0.5072 0.5301
vt 0.5120 0.5059
vt 0.4943 0.5043
vt 0.5752 0.2260
vt 0.5903 0.2269
vt 0.5942 0.2066
vt 0.5795 0.2061
vt 0.4887 0.5794
vt 0.5066 0.5871
vt 0.5066 0.5580
vt 0.4885 0.5534
vt 0.5548 0.3101
vt 0.5722 0.3105
vt 0.5791 0.2803
vt 0.5626 0.2791
vt 0.5418 0.3672
vt 0.5593 0.3653
vt 0.5658 0.3382
vt 0.5483 0.3392
vt 0.5277 0.4152
vt 0.5446 0.4142
vt 0.5512 0.3898
vt 0.5340 0.3916
vt 0.5906 0.1045
vt 0.6084 0.1081
vt 0.6135 0.0743
vt 0.5963 0.0697
vt 0.5122 0.4599
vt 0.5286 0.4600
vt 0.5370 0.4367
vt 0.5209 0.4373
vt 0.5197 0.4832
vt 0.5026 0.4823
vt 0.5811 0.1847
vt 0.5975 0.1857
vt 0.6008 0.1622
vt 0.5833 0.1605
vt 0.5665 0.2623
vt 0.5827 0.2636
vt 0.5867 0.2460
vt 0.5710 0.2448
vt 0.5868 0.1340
vt 0.6045 0.1365
vt 0.5610 0.4135
vt 0.5681 0.3892
vt 0.6242 0.1116
vt 0.6276 0.0781
vt 0.5462 0.4603
vt 0.5538 0.4364
vt 0.5320 0.5078
vt 0.5387 0.4838
vt 0.6129 0.1884
vt 0.6168 0.1651
vt 0.5295 0.5635
vt 0.5286 0.5333
vt 0.5970 0.2657
vt 0.6011 0.2486
vt 0.5808 0.3383
vt 0.5869 0.3112
vt 0.5744 0.3645
vt 0.6207 0.1395
vt 0.6048 0.2294
vt 0.6089 0.2093
vt 0.5301 0.5968
vt 0.5936 0.2821
vt 0.6405 0.1157
vt 0.6433 0.0823
vt 0.5655 0.4595
vt 0.5717 0.4354
vt 0.5548 0.5078
vt 0.5594 0.4835
vt 0.6282 0.1931
vt 0.6327 0.1698
vt 0.5564 0.5647
vt 0.5542 0.5339
vt 0.6113 0.2689
vt 0.6154 0.2522
vt 0.5952 0.3388
vt 0.6010 0.3128
vt 0.5836 0.3883
vt 0.5894 0.3641
vt 0.5777 0.4121
vt 0.6368 0.1441
vt 0.6195 0.2335
vt 0.6240 0.2139
vt 0.5606 0.5990
vt 0.6077 0.2849
vt 0.5769 0.5050
vt 0.5795 0.4812
vt 0.6430 0.1994
vt 0.6483 0.1762
vt 0.5831 0.5584
vt 0.5785 0.5303
vt 0.6248 0.2724
vt 0.6288 0.2564
vt 0.6088 0.3397
vt 0.6142 0.3146
vt 0.5985 0.3875
vt 0.6037 0.3640
vt 0.5885 0.4337
vt 0.5933 0.4104
vt 0.5838 0.4573
vt 0.6530 0.1500
vt 0.6575 0.1200
vt 0.6332 0.2385
vt 0.6379 0.2197
vt 0.5904 0.5900
vt 0.6209 0.2876
vt 0.6619 0.0844
vt 0.6037 0.5510
vt 0.5989 0.5257
vt 0.6391 0.2780
vt 0.6431 0.2627
vt 0.6225 0.3417
vt 0.6279 0.3181
vt 0.6134 0.3868
vt 0.6181 0.3642
vt 0.6043 0.4319
vt 0.6085 0.4091
vt 0.5979 0.4786
vt 0.6008 0.4552
vt 0.6702 0.1577
vt 0.6759 0.1266
vt 0.5967 0.5018
vt 0.6473 0.2450
vt 0.6520 0.2267
vt 0.6120 0.5768
vt 0.6351 0.2925
vt 0.6822 0.0889
vt 0.6586 0.2070
vt 0.6647 0.1839
vt 0.6405 0.3434
vt 0.6492 0.3213
vt 0.6319 0.3864
vt 0.6362 0.3649
vt 0.6241 0.4312
vt 0.6279 0.4092
vt 0.6188 0.4777
vt 0.6210 0.4545
vt 0.6901 0.1661
vt 0.6968 0.1339
vt 0.6187 0.5229
vt 0.6182 0.5000
vt 0.6679 0.2529
vt 0.6702 0.2348
vt 0.6252 0.5658
vt 0.6215 0.5455
vt 0.6562 0.2970
vt 0.7041 0.0944
vt 0.6772 0.2155
vt 0.6839 0.1926
vt 0.6604 0.2836
vt 0.6639 0.2693
vt 0.4866 0.5982
vt 0.5024 0.6110
vt 0.5294 0.6239
vt 0.5632 0.6268
vt 0.5969 0.6167
vt 0.6235 0.6002
vt 0.6441 0.5786
vt 0.5834 0.7119
vt 0.5595 0.7300
vt 0.5785 0.7468
vt 0.6093 0.7272
vt 0.5572 0.6938
vt 0.5324 0.7102
vt 0.4959 0.6158
vt 0.4772 0.6239
vt 0.4883 0.6527
vt 0.5096 0.6420
vt 0.5062 0.6824
vt 0.5297 0.6703
vt 0.4697 0.6002
vt 0.5312 0.7453
vt 0.5506 0.7621
vt 0.5080 0.7196
vt 0.4536 0.6281
vt 0.4675 0.6587
vt 0.4838 0.6892
vt 0.4453 0.6020
vt 0.5048 0.7534
vt 0.5224 0.7732
vt 0.4837 0.7246
vt 0.4275 0.6327
vt 0.4443 0.6637
vt 0.4619 0.6950
vt 0.4173 0.6047
vt 0.4784 0.7577
vt 0.4952 0.7786
vt 0.4582 0.7306
vt 0.4016 0.6396
vt 0.4206 0.6701
vt 0.4397 0.6998
vt 0.3899 0.6113
vt 0.4513 0.7618
vt 0.4674 0.7828
vt 0.4330 0.7332
vt 0.3759 0.6461
vt 0.3956 0.6763
vt 0.4150 0.7052
vt 0.3622 0.6185
vt 0.4208 0.7648
vt 0.4357 0.7857
vt 0.4041 0.7363
vt 0.3476 0.6504
vt 0.3677 0.6811
vt 0.3871 0.7094
vt 0.3344 0.6231
vt 0.3895 0.7655
vt 0.4026 0.7877
vt 0.3748 0.7377
vt 0.3179 0.6566
vt 0.3377 0.6856
vt 0.3583 0.7121
vt 0.3027 0.6287
vt 0.3645 0.7643
vt 0.3756 0.7866
vt 0.3509 0.7383
vt 0.2863 0.6642
vt 0.3094 0.6903
vt 0.3331 0.7149
vt 0.2681 0.6379
vt 0.3472 0.7633
vt 0.3572 0.7850
vt 0.3329 0.7399
vt 0.2588 0.6720
vt 0.2867 0.6979
vt 0.3123 0.7194
vt 0.2371 0.6484
vt 0.3356 0.7652
vt 0.3459 0.7842
vt 0.3191 0.7458
vt 0.2362 0.6838
vt 0.2679 0.7071
vt 0.2960 0.7272
vt 0.2109 0.6600
vt 0.3281 0.7703
vt 0.3389 0.7839
vt 0.3093 0.7537
vt 0.2175 0.6956
vt 0.2510 0.7184
vt 0.2829 0.7372
vt 0.1850 0.6725
vt 0.3235 0.7781
vt 0.3378 0.7895
vt 0.3014 0.7671
vt 0.1909 0.7166
vt 0.2317 0.7370
vt 0.2658 0.7501
vt 0.1537 0.6885
vt 0.3270 0.6017
vt 0.2928 0.6084
vt 0.3578 0.5975
vt 0.3857 0.5899
vt 0.4146 0.5829
vt 0.4426 0.5788
vt 0.4682 0.5778
vt 0.3232 0.5835
vt 0.2848 0.5895
vt 0.3579 0.5773
vt 0.3868 0.5689
vt 0.4144 0.5597
vt 0.4420 0.5547
vt 0.4669 0.5525
vt 0.3195 0.5626
vt 0.2783 0.5691
vt 0.3558 0.5546
vt 0.3866 0.5457
vt 0.4144 0.5362
vt 0.4415 0.5296
vt 0.4676 0.5265
vt 0.3155 0.5402
vt 0.2750 0.5464
vt 0.3542 0.5315
vt 0.3865 0.5221
vt 0.4170 0.5142
vt 0.4463 0.5081
vt 0.4734 0.5047
vt 0.3135 0.5179
vt 0.2720 0.5249
vt 0.3536 0.5098
vt 0.3907 0.5017
vt 0.4244 0.4934
vt 0.4582 0.4854
vt 0.4827 0.4831
vt 0.3136 0.4976
vt 0.2711 0.5047
vt 0.3565 0.4892
vt 0.3984 0.4826
vt 0.4379 0.4731
vt 0.4691 0.4652
vt 0.4931 0.4616
vt 0.3172 0.4761
vt 0.2736 0.4835
vt 0.3630 0.4683
vt 0.4069 0.4594
vt 0.4479 0.4515
vt 0.4781 0.4446
vt 0.5021 0.4394
vt 0.3255 0.4538
vt 0.2806 0.4594
vt 0.3722 0.4473
vt 0.4162 0.4391
vt 0.4543 0.4312
vt 0.4844 0.4241
vt 0.5085 0.4176
vt 0.3365 0.4280
vt 0.2928 0.4344
vt 0.3824 0.4214
vt 0.4238 0.4160
vt 0.4616 0.4081
vt 0.4887 0.4019
vt 0.5132 0.3962
vt 0.3510 0.4008
vt 0.3101 0.4041
vt 0.3922 0.3970
vt 0.4324 0.3909
vt 0.4647 0.3829
vt 0.4930 0.3761
vt 0.5174 0.3703
vt 0.3657 0.3724
vt 0.3301 0.3754
vt 0.4009 0.3668
vt 0.4358 0.3618
vt 0.4690 0.3515
vt 0.4974 0.3457
vt 0.5244 0.3411
vt 0.3778 0.3432
vt 0.3490 0.3479
vt 0.4101 0.3355
vt 0.4434 0.3255
vt 0.4741 0.3176
vt 0.5045 0.3115
vt 0.5319 0.3100
vt 0.1615 0.6505
vt 0.1316 0.6627
vt 0.1908 0.6386
vt 0.2197 0.6275
vt 0.2548 0.6178
vt 0.1491 0.6300
vt 0.1177 0.6376
vt 0.1781 0.6172
vt 0.2096 0.6066
vt 0.2438 0.5977
vt 0.1407 0.6062
vt 0.1100 0.6157
vt 0.1726 0.5954
vt 0.2023 0.5847
vt 0.2381 0.5762
vt 0.1391 0.5811
vt 0.1059 0.5900
vt 0.1695 0.5713
vt 0.1987 0.5618
vt 0.2331 0.5538
vt 0.1377 0.5563
vt 0.1035 0.5625
vt 0.1692 0.5477
vt 0.1974 0.5398
vt 0.2306 0.5314
vt 0.1389 0.5300
vt 0.1046 0.5330
vt 0.1711 0.5239
vt 0.2005 0.5170
vt 0.2322 0.5114
vt 0.1453 0.5012
vt 0.1109 0.4985
vt 0.1761 0.4976
vt 0.2052 0.4934
vt 0.2360 0.4895
vt 0.1553 0.4682
vt 0.1248 0.4619
vt 0.1846 0.4695
vt 0.2129 0.4675
vt 0.2439 0.4639
vt 0.1727 0.4391
vt 0.1452 0.4299
vt 0.1976 0.4405
vt 0.2255 0.4390
vt 0.2561 0.4371
vt 0.1966 0.4001
vt 0.1764 0.3891
vt 0.2190 0.4064
vt 0.2436 0.4075
vt 0.2742 0.4060
vt 0.2311 0.3597
vt 0.2140 0.3461
vt 0.2499 0.3684
vt 0.2723 0.3739
vt 0.2978 0.3755
vt 0.2777 0.3360
vt 0.2685 0.3282
vt 0.2890 0.3407
vt 0.3042 0.3443
vt 0.3231 0.3474
vt 0.3642 0.3195
vt 0.3480 0.3221
vt 0.3202 0.3159
vt 0.3156 0.3129
vt 0.3271 0.3203
vt 0.3366 0.3216
vt 0.3708 0.3017
vt 0.3789 0.2832
vt 0.3685 0.2838
vt 0.3573 0.3030
vt 0.3356 0.3039
vt 0.3495 0.2839
vt 0.3463 0.2828
vt 0.3317 0.3037
vt 0.3419 0.3051
vt 0.3541 0.2849
vt 0.3492 0.3056
vt 0.3605 0.2848
vt 0.0962 0.6690
vt 0.0530 0.6915
vt 0.0806 0.7322
vt 0.1241 0.7050
vt 0.3180 0.7889
vt 0.3085 0.8024
vt 0.3256 0.8092
vt 0.3340 0.7964
vt 0.2933 0.7795
vt 0.2834 0.7969
vt 0.1642 0.7330
vt 0.1324 0.7714
vt 0.1919 0.7852
vt 0.2178 0.7588
vt 0.2406 0.7908
vt 0.2579 0.7738
vt 0.1535 0.3616
vt 0.1421 0.3463
vt 0.0991 0.3808
vt 0.1180 0.3998
vt 0.0674 0.4202
vt 0.0901 0.4402
vt 0.0434 0.4762
vt 0.0709 0.4848
vt 0.0275 0.5207
vt 0.0635 0.5244
vt 0.0175 0.5622
vt 0.0593 0.5597
vt 0.0218 0.5928
vt 0.0645 0.5947
vt 0.0267 0.6281
vt 0.0730 0.6197
vt 0.0337 0.6607
vt 0.0822 0.6450
vt 0.3283 0.3032
vt 0.3232 0.2982
vt 0.3081 0.3026
vt 0.3115 0.3054
vt 0.2579 0.3138
vt 0.2623 0.3178
vt 0.1963 0.3219
vt 0.2021 0.3314
vt 0.4162 0.3043
vt 0.3882 0.3137
vt 0.4490 0.2924
vt 0.4819 0.2823
vt 0.5132 0.2775
vt 0.5411 0.2776
vt 0.4186 0.2869
vt 0.4216 0.2689
vt 0.3948 0.2783
vt 0.3919 0.2961
vt 0.4513 0.2754
vt 0.4542 0.2579
vt 0.4851 0.2660
vt 0.4891 0.2487
vt 0.5185 0.2613
vt 0.5233 0.2439
vt 0.5459 0.2612
vt 0.5509 0.2440
vt 0.3708 0.3017
vt 0.3919 0.2961
vt 0.3965 0.2557
vt 0.3993 0.2314
vt 0.3843 0.2379
vt 0.3807 0.2613
vt 0.4223 0.2467
vt 0.4239 0.2232
vt 0.4553 0.2372
vt 0.4572 0.2154
vt 0.4914 0.2296
vt 0.4946 0.2093
vt 0.5265 0.2261
vt 0.5304 0.2068
vt 0.5551 0.2257
vt 0.5597 0.2064
vt 0.3498 0.2614
vt 0.3537 0.2418
vt 0.3496 0.2400
vt 0.3461 0.2595
vt 0.3742 0.2426
vt 0.3710 0.2638
vt 0.3551 0.2636
vt 0.3596 0.2436
vt 0.3569 0.2429
vt 0.3524 0.2625
vt 0.3587 0.2649
vt 0.3627 0.2446
vt 0.3638 0.2652
vt 0.3672 0.2448
vt 0.3985 0.2015
vt 0.3960 0.1669
vt 0.3761 0.1724
vt 0.3808 0.2073
vt 0.4239 0.1950
vt 0.4229 0.1619
vt 0.4572 0.1891
vt 0.4569 0.1583
vt 0.4944 0.1852
vt 0.4945 0.1569
vt 0.5302 0.1840
vt 0.5306 0.1574
vt 0.5596 0.1842
vt 0.5608 0.1590
vt 0.3484 0.2143
vt 0.3397 0.1842
vt 0.3379 0.1842
vt 0.3459 0.2135
vt 0.3622 0.1775
vt 0.3686 0.2119
vt 0.3531 0.2153
vt 0.3442 0.1836
vt 0.3418 0.1840
vt 0.3509 0.2149
vt 0.3559 0.2156
vt 0.3475 0.1830
vt 0.3606 0.2147
vt 0.3529 0.1812
vt 0.3899 0.1268
vt 0.3802 0.0780
vt 0.3576 0.0856
vt 0.3683 0.1328
vt 0.4186 0.1233
vt 0.4106 0.0768
vt 0.4544 0.1223
vt 0.4490 0.0799
vt 0.4942 0.1242
vt 0.4932 0.0858
vt 0.5324 0.1272
vt 0.5344 0.0924
vt 0.5639 0.1309
vt 0.5668 0.0991
vt 0.3283 0.1524
vt 0.3144 0.1189
vt 0.3142 0.1228
vt 0.3270 0.1536
vt 0.3407 0.0943
vt 0.3530 0.1391
vt 0.3329 0.1495
vt 0.3182 0.1120
vt 0.3155 0.1153
vt 0.3302 0.1510
vt 0.3366 0.1477
vt 0.3220 0.1086
vt 0.3428 0.1444
vt 0.3290 0.1029
vt 0.3677 0.0175
vt 0.3445 0.0312
vt 0.4009 0.0218
vt 0.4409 0.0319
vt 0.4921 0.0448
vt 0.5379 0.0553
vt 0.5713 0.0632
vt 0.2989 0.0800
vt 0.3011 0.0913
vt 0.3240 0.0430
vt 0.3003 0.0681
vt 0.2977 0.0735
vt 0.3029 0.0635
vt 0.3098 0.0553
vt 0.3317 0.3037
vt 0.3156 0.3129
vt 0.8466 0.7419
vt 0.8476 0.7328
vt 0.8384 0.7263
vt 0.8369 0.7369
vt 0.8242 0.7160
vt 0.8222 0.7275
vt 0.8032 0.7009
vt 0.8013 0.7132
vt 0.7777 0.6828
vt 0.7763 0.6951
vt 0.7561 0.6640
vt 0.7540 0.6764
vt 0.7378 0.6462
vt 0.7349 0.6589
vt 0.7203 0.6286
vt 0.7165 0.6409
vt 0.7010 0.6122
vt 0.6943 0.6227
vt 0.6828 0.5941
vt 0.6704 0.6035
vt 0.6693 0.5734
vt 0.6441 0.5786
vt 0.8521 0.7267
vt 0.8431 0.7198
vt 0.6972 0.5926
vt 0.6894 0.5740
vt 0.7063 0.6077
vt 0.7203 0.6179
vt 0.7369 0.6337
vt 0.7553 0.6527
vt 0.7774 0.6723
vt 0.8073 0.6905
vt 0.8294 0.7091
vt 0.8256 0.3808
vt 0.8384 0.3816
vt 0.8376 0.3569
vt 0.8291 0.3554
vt 0.7137 0.5990
vt 0.7077 0.5786
vt 0.8759 0.6220
vt 0.9000 0.6018
vt 0.8915 0.5820
vt 0.8673 0.6002
vt 0.8802 0.5577
vt 0.8565 0.5735
vt 0.7309 0.6125
vt 0.7137 0.5990
vt 0.7504 0.6315
vt 0.7721 0.6509
vt 0.7975 0.6660
vt 0.8256 0.4263
vt 0.8433 0.4243
vt 0.8408 0.4037
vt 0.8259 0.4035
vt 0.8275 0.4737
vt 0.8487 0.4661
vt 0.8453 0.4441
vt 0.8254 0.4492
vt 0.8529 0.7446
vt 0.8555 0.7397
vt 0.8608 0.7341
vt 0.8716 0.7240
vt 0.8626 0.7169
vt 0.6421 0.5471
vt 0.7203 0.1406
vt 0.7279 0.0997
vt 0.7127 0.1741
vt 0.6993 0.2240
vt 0.7059 0.2009
vt 0.6896 0.2609
vt 0.6936 0.2445
vt 0.6812 0.2894
vt 0.6851 0.2761
vt 0.6699 0.3250
vt 0.6771 0.3022
vt 0.6642 0.3451
vt 0.6594 0.3655
vt 0.6541 0.3866
vt 0.6502 0.4094
vt 0.6474 0.4321
vt 0.6463 0.4554
vt 0.6442 0.4788
vt 0.6427 0.5012
vt 0.6416 0.5236
vt 0.6647 0.5288
vt 0.6666 0.5066
vt 0.7112 0.2650
vt 0.7157 0.2494
vt 0.6911 0.3276
vt 0.6985 0.3053
vt 0.7602 0.1849
vt 0.7835 0.1889
vt 0.7943 0.1551
vt 0.7698 0.1511
vt 0.6796 0.3675
vt 0.6850 0.3478
vt 0.6710 0.4122
vt 0.6755 0.3886
vt 0.6684 0.4595
vt 0.6692 0.4353
vt 0.7447 0.1460
vt 0.7537 0.1055
vt 0.6673 0.4839
vt 0.7219 0.2300
vt 0.7288 0.2072
vt 0.7026 0.2929
vt 0.7065 0.2798
vt 0.7363 0.1803
vt 0.8078 0.1169
vt 0.7811 0.1136
vt 0.7445 0.2340
vt 0.7662 0.2379
vt 0.7742 0.2158
vt 0.7519 0.2117
vt 0.7327 0.2675
vt 0.7537 0.2709
vt 0.7594 0.2558
vt 0.7379 0.2523
vt 0.7230 0.2951
vt 0.7427 0.2984
vt 0.7477 0.2853
vt 0.7274 0.2820
vt 0.7102 0.3306
vt 0.7282 0.3347
vt 0.7376 0.3110
vt 0.7185 0.3076
vt 0.7031 0.3515
vt 0.7200 0.3567
vt 0.6976 0.3722
vt 0.7140 0.3776
vt 0.6934 0.3937
vt 0.7094 0.3997
vt 0.6888 0.4178
vt 0.7052 0.4241
vt 0.6872 0.4418
vt 0.7027 0.4494
vt 0.6868 0.4668
vt 0.7023 0.4751
vt 0.6860 0.4919
vt 0.7033 0.5005
vt 0.6863 0.5151
vt 0.7038 0.5243
vt 0.6856 0.5365
vt 0.7043 0.5444
vt 0.6645 0.5506
vt 0.6865 0.5554
vt 0.7050 0.5615
vt 0.7226 0.5713
vt 0.7207 0.5537
vt 0.7257 0.5899
vt 0.7187 0.5334
vt 0.7173 0.5097
vt 0.7404 0.5855
vt 0.7371 0.5655
vt 0.7443 0.6073
vt 0.7340 0.5437
vt 0.7313 0.5194
vt 0.7592 0.6023
vt 0.7543 0.5789
vt 0.7649 0.6266
vt 0.7500 0.5545
vt 0.7463 0.5287
vt 0.8870 0.7329
vt 0.9028 0.7135
vt 0.8902 0.7060
vt 0.8716 0.7240
vt 0.8809 0.6996
vt 0.8384 0.5261
vt 0.8613 0.5144
vt 0.8540 0.4905
vt 0.8321 0.4996
vt 0.9101 0.7411
vt 0.9228 0.7220
vt 0.9502 0.7507
vt 0.9470 0.7290
vt 0.8923 0.6635
vt 0.9137 0.6370
vt 0.9093 0.6279
vt 0.8870 0.6521
vt 0.7885 0.6421
vt 0.7808 0.6169
vt 0.7739 0.5896
vt 0.7676 0.5632
vt 0.7625 0.5362
vt 0.8140 0.6459
vt 0.8068 0.6196
vt 0.7970 0.5923
vt 0.7892 0.5654
vt 0.7829 0.5389
vt 0.8438 0.7014
vt 0.8323 0.6854
vt 0.8544 0.7105
vt 0.9372 0.6985
vt 0.9201 0.6907
vt 0.9502 0.7019
vt 0.9093 0.6841
vt 0.8223 0.6671
vt 0.9028 0.6786
vt 0.7787 0.5095
vt 0.7595 0.5070
vt 0.7445 0.5003
vt 0.7300 0.4926
vt 0.7162 0.4836
vt 0.7769 0.4803
vt 0.7582 0.4782
vt 0.7441 0.4725
vt 0.7300 0.4650
vt 0.7168 0.4572
vt 0.7778 0.4527
vt 0.7602 0.4503
vt 0.7461 0.4452
vt 0.7328 0.4387
vt 0.7193 0.4313
vt 0.7816 0.4256
vt 0.7649 0.4234
vt 0.7505 0.4187
vt 0.7374 0.4132
vt 0.7239 0.4064
vt 0.7872 0.4006
vt 0.7707 0.3986
vt 0.7568 0.3948
vt 0.7431 0.3898
vt 0.7290 0.3837
vt 0.7941 0.3777
vt 0.7787 0.3763
vt 0.7646 0.3730
vt 0.7504 0.3684
vt 0.7357 0.3626
vt 0.8046 0.3530
vt 0.7901 0.3524
vt 0.7752 0.3499
vt 0.7600 0.3459
vt 0.7446 0.3403
vt 0.8182 0.3253
vt 0.8036 0.3257
vt 0.7877 0.3241
vt 0.7713 0.3211
vt 0.7549 0.3161
vt 0.8262 0.3105
vt 0.8339 0.2951
vt 0.8187 0.2965
vt 0.8112 0.3114
vt 0.8017 0.2961
vt 0.7948 0.3104
vt 0.7839 0.2940
vt 0.7776 0.3078
vt 0.7662 0.2899
vt 0.7606 0.3033
vt 0.8424 0.2788
vt 0.8507 0.2620
vt 0.8350 0.2643
vt 0.8269 0.2807
vt 0.8169 0.2650
vt 0.8094 0.2809
vt 0.7977 0.2639
vt 0.7909 0.2793
vt 0.7787 0.2604
vt 0.7725 0.2755
vt 0.8587 0.2428
vt 0.8678 0.2208
vt 0.8532 0.2200
vt 0.8438 0.2431
vt 0.8353 0.2208
vt 0.8258 0.2440
vt 0.8156 0.2208
vt 0.8063 0.2438
vt 0.7952 0.2193
vt 0.7865 0.2416
vt 0.8781 0.1958
vt 0.8894 0.1671
vt 0.8756 0.1660
vt 0.8639 0.1941
vt 0.8591 0.1651
vt 0.8463 0.1948
vt 0.8393 0.1634
vt 0.8264 0.1946
vt 0.8169 0.1600
vt 0.8052 0.1929
vt 0.9027 0.1370
vt 0.8884 0.1352
vt 0.8757 0.1326
vt 0.8558 0.1292
vt 0.8298 0.1224
vt 0.8701 0.5353
vt 0.8471 0.5493
vt 0.9053 0.6161
vt 0.8817 0.6384
vt 0.9152 0.4559
vt 0.9242 0.4332
vt 0.9141 0.4304
vt 0.9061 0.4458
vt 0.8779 0.4139
vt 0.8838 0.4074
vt 0.8763 0.4003
vt 0.8717 0.4049
vt 0.9246 0.4680
vt 0.9342 0.4348
vt 0.9345 0.4763
vt 0.9436 0.4379
vt 0.9419 0.4817
vt 0.9503 0.4408
vt 0.9516 0.4878
vt 0.9590 0.4436
vt 0.9547 0.4424
vt 0.9471 0.4840
vt 0.8968 0.4336
vt 0.9038 0.4218
vt 0.8923 0.4137
vt 0.8861 0.4227
vt 0.8765 0.3915
vt 0.8701 0.3942
vt 0.9559 0.4919
vt 0.9628 0.4445
vt 0.8727 0.3732
vt 0.8682 0.3756
vt 0.8700 0.3540
vt 0.8655 0.3554
vt 0.8105 0.3791
vt 0.8180 0.3540
vt 0.8464 0.6360
vt 0.8369 0.6126
vt 0.8269 0.5857
vt 0.8034 0.4264
vt 0.8066 0.4021
vt 0.8017 0.4783
vt 0.8012 0.4521
vt 0.8109 0.5343
vt 0.8048 0.5065
vt 0.8669 0.6850
vt 0.8590 0.6726
vt 0.8184 0.5593
vt 0.8518 0.6572
vt 0.8990 0.6723
vt 0.8744 0.6936
vt 0.8862 0.5154
vt 0.8778 0.4962
vt 0.9011 0.4869
vt 0.8928 0.4708
vt 0.8586 0.4343
vt 0.8542 0.4182
vt 0.8680 0.4235
vt 0.8633 0.4114
vt 0.8967 0.5340
vt 0.9106 0.5037
vt 0.9083 0.5546
vt 0.9212 0.5217
vt 0.9168 0.5715
vt 0.9298 0.5347
vt 0.9266 0.5928
vt 0.9222 0.5834
vt 0.9404 0.5516
vt 0.9355 0.5440
vt 0.8704 0.4744
vt 0.8641 0.4530
vt 0.8844 0.4539
vt 0.8762 0.4368
vt 0.8516 0.4003
vt 0.8607 0.3950
vt 0.9317 0.6001
vt 0.9453 0.5568
vt 0.8495 0.3809
vt 0.8583 0.3787
vt 0.8445 0.3573
vt 0.8567 0.3567
vt 0.9228 0.6484
vt 0.9189 0.6437
vt 0.9525 0.6665
vt 0.9394 0.6602
vt 0.9289 0.6535
vt 0.9399 0.6089
vt 0.9359 0.6048
vt 0.9679 0.6248
vt 0.9567 0.6199
vt 0.9458 0.6137
vt 0.9533 0.5621
vt 0.9495 0.5596
vt 0.9791 0.5765
vt 0.9695 0.5713
vt 0.9590 0.5646
vt 0.9637 0.4972
vt 0.9599 0.4944
vt 0.9806 0.5061
vt 0.9745 0.5021
vt 0.9685 0.5006
vt 0.9683 0.4470
vt 0.9659 0.4456
vt 0.9766 0.4516
vt 0.9737 0.4495
vt 0.9708 0.4483
vt 0.9825 0.5092
vt 0.9783 0.4569
vt 0.9825 0.5788
vt 0.9732 0.6261
vt 0.9604 0.6682
vt 0.7427 0.2984
vt 0.7606 0.3033
vt 0.7537 0.2709
vt 0.7477 0.2853
vt 0.7662 0.2899
vt 0.7725 0.2755
vt 0.7662 0.2379
vt 0.7594 0.2558
vt 0.7787 0.2604
vt 0.7865 0.2416
vt 0.7835 0.1889
vt 0.7742 0.2158
vt 0.7952 0.2193
vt 0.8052 0.1929
vt 0.8658 0.3290
vt 0.8587 0.3290
vt 0.8509 0.3284
vt 0.8453 0.3277
vt 0.8388 0.3266
vt 0.8299 0.3255
vt 0.8704 0.3283
vt 0.8737 0.3140
vt 0.8819 0.2990
vt 0.8752 0.2983
vt 0.8671 0.3139
vt 0.8669 0.2972
vt 0.8592 0.3131
vt 0.8592 0.2961
vt 0.8525 0.3122
vt 0.8462 0.3112
vt 0.8532 0.2953
vt 0.8451 0.2946
vt 0.8376 0.3104
vt 0.8776 0.3137
vt 0.8854 0.2991
vt 0.8896 0.2821
vt 0.8968 0.2650
vt 0.8913 0.2644
vt 0.8834 0.2815
vt 0.8838 0.2633
vt 0.8756 0.2805
vt 0.8759 0.2621
vt 0.8678 0.2793
vt 0.8617 0.2786
vt 0.8698 0.2615
vt 0.8617 0.2612
vt 0.8535 0.2782
vt 0.8927 0.2822
vt 0.8995 0.2651
vt 0.9016 0.2461
vt 0.9080 0.2258
vt 0.9042 0.2251
vt 0.8971 0.2456
vt 0.8992 0.2242
vt 0.8911 0.2447
vt 0.8935 0.2232
vt 0.8847 0.2439
vt 0.8781 0.2433
vt 0.8871 0.2223
vt 0.8788 0.2215
vt 0.8698 0.2429
vt 0.9039 0.2462
vt 0.9100 0.2261
vt 0.9164 0.2042
vt 0.9272 0.1804
vt 0.9243 0.1787
vt 0.9131 0.2031
vt 0.9195 0.1766
vt 0.9085 0.2017
vt 0.9137 0.1740
vt 0.9032 0.2002
vt 0.8969 0.1985
vt 0.9075 0.1710
vt 0.8997 0.1681
vt 0.8888 0.1970
vt 0.9179 0.2049
vt 0.9282 0.1821
vt 0.9387 0.1535
vt 0.9379 0.1510
vt 0.9323 0.1479
vt 0.9254 0.1449
vt 0.9198 0.1412
vt 0.9127 0.1376
vt 0.9382 0.1573
vt 0.8781 0.1958
vt 0.8678 0.2208
vt 0.8788 0.2215
vt 0.8888 0.1970
vt 0.8587 0.2428
vt 0.8507 0.2620
vt 0.8617 0.2612
vt 0.8698 0.2429
vt 0.8424 0.2788
vt 0.8339 0.2951
vt 0.8451 0.2946
vt 0.8535 0.2782
vt 0.8262 0.3105
vt 0.8182 0.3253
vt 0.8299 0.3255
vt 0.8376 0.3104
vt 0.3439 0.2818
vt 0.3401 0.2801
f 10/1 28/2 29/3 11/4
f 901/5 902/6 40/7 22/8
f 8/9 26/10 27/11 9/12
f 19/13 37/14 38/15 20/16
f 17/17 35/18 36/19 18/20
f 15/21 33/22 34/23 16/24
f 24/25 42/26 43/27 25/28
f 13/29 31/30 32/31 14/32
f 11/4 29/3 30/33 12/34
f 938/35 939/36 41/37 23/38
f 9/12 27/11 28/2 10/1
f 864/39 865/40 39/41 21/42
f 18/20 36/19 37/14 19/13
f 16/24 34/23 35/18 17/17
f 14/32 32/31 33/22 15/21
f 12/34 30/33 31/30 13/29
f 975/43 976/44 42/26 24/25
f 33/22 51/45 52/46 34/23
f 42/26 60/47 61/48 43/27
f 31/30 49/49 50/50 32/31
f 29/3 47/51 48/52 30/33
f 939/36 940/53 59/54 41/37
f 27/11 45/55 46/56 28/2
f 865/40 866/57 57/58 39/41
f 36/19 54/59 55/60 37/14
f 34/23 52/46 53/61 35/18
f 32/31 50/50 51/45 33/22
f 30/33 48/52 49/49 31/30
f 976/44 977/62 60/47 42/26
f 28/2 46/56 47/51 29/3
f 902/6 903/63 58/64 40/7
f 26/10 44/65 45/55 27/11
f 37/14 55/60 56/66 38/15
f 35/18 53/61 54/59 36/19
f 60/47 78/67 79/68 61/48
f 49/49 67/69 68/70 50/50
f 47/51 65/71 66/72 48/52
f 940/53 941/73 77/74 59/54
f 45/55 63/75 64/76 46/56
f 866/57 867/77 75/78 57/58
f 54/59 72/79 73/80 55/60
f 52/46 70/81 71/82 53/61
f 50/50 68/70 69/83 51/45
f 48/52 66/72 67/69 49/49
f 977/62 978/84 78/67 60/47
f 46/56 64/76 65/71 47/51
f 903/63 904/85 76/86 58/64
f 44/65 62/87 63/75 45/55
f 55/60 73/80 74/88 56/66
f 53/61 71/82 72/79 54/59
f 51/45 69/83 70/81 52/46
f 65/71 83/89 84/90 66/72
f 941/73 942/91 95/92 77/74
f 63/75 81/93 82/94 64/76
f 867/77 868/95 93/96 75/78
f 72/79 90/97 91/98 73/80
f 70/81 88/99 89/100 71/82
f 68/70 86/101 87/102 69/83
f 66/72 84/90 85/103 67/69
f 978/84 979/104 96/105 78/67
f 64/76 82/94 83/89 65/71
f 904/85 905/106 94/107 76/86
f 62/87 80/108 81/93 63/75
f 73/80 91/98 92/109 74/88
f 71/82 89/100 90/97 72/79
f 69/83 87/102 88/99 70/81
f 78/67 96/105 97/110 79/68
f 67/69 85/103 86/101 68/70
f 81/93 99/111 100/112 82/94
f 868/95 869/113 111/114 93/96
f 90/97 108/115 109/116 91/98
f 88/99 106/117 107/118 89/100
f 86/101 104/119 105/120 87/102
f 84/90 102/121 103/122 85/103
f 979/104 980/123 114/124 96/105
f 82/94 100/112 101/125 83/89
f 905/106 906/126 112/127 94/107
f 80/108 98/128 99/111 81/93
f 91/98 109/116 110/129 92/109
f 89/100 107/118 108/115 90/97
f 87/102 105/120 106/117 88/99
f 96/105 114/124 115/130 97/110
f 85/103 103/122 104/119 86/101
f 83/89 101/125 102/121 84/90
f 942/91 943/131 113/132 95/92
f 108/115 126/133 127/134 109/116
f 106/117 124/135 125/136 107/118
f 104/119 122/137 123/138 105/120
f 102/121 120/139 121/140 103/122
f 980/123 981/141 132/142 114/124
f 100/112 118/143 119/144 101/125
f 906/126 907/145 130/146 112/127
f 98/128 116/147 117/148 99/111
f 109/116 127/134 128/149 110/129
f 107/118 125/136 126/133 108/115
f 105/120 123/138 124/135 106/117
f 114/124 132/142 133/150 115/130
f 103/122 121/140 122/137 104/119
f 101/125 119/144 120/139 102/121
f 943/131 944/151 131/152 113/132
f 99/111 117/148 118/143 100/112
f 869/113 870/153 129/154 111/114
f 3/155 1/156 26/10 8/9
f 1/156 4/157 44/65 26/10
f 4/157 2/158 62/87 44/65
f 2/158 5/159 80/108 62/87
f 5/159 6/160 98/128 80/108
f 7/161 116/147 98/128 6/160
f 6/162 148/163 149/164 7/165
f 5/166 147/167 148/163 6/162
f 1/168 143/169 146/170 4/171
f 4/171 146/170 144/172 2/173
f 2/173 144/172 147/167 5/166
f 3/155 145/174 143/169 1/168
f 148/163 155/175 156/176 149/164
f 147/167 154/177 155/175 148/163
f 143/169 150/178 153/179 146/170
f 146/170 153/179 151/180 144/172
f 144/172 151/180 154/177 147/167
f 145/174 152/181 150/178 143/169
f 155/175 162/182 163/183 156/176
f 154/177 161/184 162/182 155/175
f 150/178 157/185 160/186 153/179
f 153/179 160/186 158/187 151/180
f 151/180 158/187 161/184 154/177
f 152/181 159/188 157/185 150/178
f 162/182 169/189 170/190 163/183
f 161/184 168/191 169/189 162/182
f 157/185 164/192 167/193 160/186
f 160/186 167/193 165/194 158/187
f 158/187 165/194 168/191 161/184
f 159/188 166/195 164/192 157/185
f 169/189 176/196 177/197 170/190
f 168/191 175/198 176/196 169/189
f 164/192 171/199 174/200 167/193
f 167/193 174/200 172/201 165/194
f 165/194 172/201 175/198 168/191
f 166/195 173/202 171/199 164/192
f 176/196 183/203 184/204 177/197
f 175/198 182/205 183/203 176/196
f 171/199 178/206 181/207 174/200
f 174/200 181/207 179/208 172/201
f 172/201 179/208 182/205 175/198
f 173/202 180/209 178/206 171/199
f 183/203 190/210 191/211 184/204
f 182/205 189/212 190/210 183/203
f 178/206 185/213 188/214 181/207
f 181/207 188/214 186/215 179/208
f 179/208 186/215 189/212 182/205
f 180/209 187/216 185/213 178/206
f 190/210 197/217 198/218 191/211
f 189/212 196/219 197/217 190/210
f 185/213 192/220 195/221 188/214
f 188/214 195/221 193/222 186/215
f 186/215 193/222 196/219 189/212
f 187/216 194/223 192/220 185/213
f 197/217 204/224 205/225 198/218
f 196/219 203/226 204/224 197/217
f 192/220 199/227 202/228 195/221
f 195/221 202/228 200/229 193/222
f 193/222 200/229 203/226 196/219
f 194/223 201/230 199/227 192/220
f 204/224 211/231 212/232 205/225
f 203/226 210/233 211/231 204/224
f 199/227 206/234 209/235 202/228
f 202/228 209/235 207/236 200/229
f 200/229 207/236 210/233 203/226
f 201/230 208/237 206/234 199/227
f 211/231 218/238 219/239 212/232
f 210/233 217/240 218/238 211/231
f 206/234 213/241 216/242 209/235
f 209/235 216/242 214/243 207/236
f 207/236 214/243 217/240 210/233
f 208/237 215/244 213/241 206/234
f 218/238 225/245 226/246 219/239
f 217/240 224/247 225/245 218/238
f 213/241 220/248 223/249 216/242
f 216/242 223/249 221/250 214/243
f 214/243 221/250 224/247 217/240
f 215/244 222/251 220/248 213/241
f 180/209 232/252 233/253 187/216
f 173/202 231/254 232/252 180/209
f 166/195 230/255 231/254 173/202
f 159/188 229/256 230/255 166/195
f 152/181 228/257 229/256 159/188
f 145/174 227/258 228/257 152/181
f 232/252 239/259 240/260 233/253
f 231/254 238/261 239/259 232/252
f 230/255 237/262 238/261 231/254
f 229/256 236/263 237/262 230/255
f 228/257 235/264 236/263 229/256
f 227/258 234/265 235/264 228/257
f 239/259 246/266 247/267 240/260
f 238/261 245/268 246/266 239/259
f 237/262 244/269 245/268 238/261
f 236/263 243/270 244/269 237/262
f 235/264 242/271 243/270 236/263
f 234/265 241/272 242/271 235/264
f 246/266 253/273 254/274 247/267
f 245/268 252/275 253/273 246/266
f 244/269 251/276 252/275 245/268
f 243/270 250/277 251/276 244/269
f 242/271 249/278 250/277 243/270
f 241/272 248/279 249/278 242/271
f 253/273 260/280 261/281 254/274
f 252/275 259/282 260/280 253/273
f 251/276 258/283 259/282 252/275
f 250/277 257/284 258/283 251/276
f 249/278 256/285 257/284 250/277
f 248/279 255/286 256/285 249/278
f 260/280 267/287 268/288 261/281
f 259/282 266/289 267/287 260/280
f 258/283 265/290 266/289 259/282
f 257/284 264/291 265/290 258/283
f 256/285 263/292 264/291 257/284
f 255/286 262/293 263/292 256/285
f 267/287 274/294 275/295 268/288
f 266/289 273/296 274/294 267/287
f 265/290 272/297 273/296 266/289
f 264/291 271/298 272/297 265/290
f 263/292 270/299 271/298 264/291
f 262/293 269/300 270/299 263/292
f 274/294 281/301 282/302 275/295
f 273/296 280/303 281/301 274/294
f 272/297 279/304 280/303 273/296
f 271/298 278/305 279/304 272/297
f 270/299 277/306 278/305 271/298
f 269/300 276/307 277/306 270/299
f 281/301 288/308 289/309 282/302
f 280/303 287/310 288/308 281/301
f 279/304 286/311 287/310 280/303
f 278/305 285/312 286/311 279/304
f 277/306 284/313 285/312 278/305
f 276/307 283/314 284/313 277/306
f 288/308 295/315 296/316 289/309
f 287/310 294/317 295/315 288/308
f 286/311 293/318 294/317 287/310
f 285/312 292/319 293/318 286/311
f 284/313 291/320 292/319 285/312
f 283/314 290/321 291/320 284/313
f 295/315 302/322 303/323 296/316
f 294/317 301/324 302/322 295/315
f 293/318 300/325 301/324 294/317
f 292/319 299/326 300/325 293/318
f 291/320 298/327 299/326 292/319
f 290/321 297/328 298/327 291/320
f 302/322 309/329 310/330 303/323
f 301/324 308/331 309/329 302/322
f 300/325 307/332 308/331 301/324
f 299/326 306/333 307/332 300/325
f 298/327 305/334 306/333 299/326
f 297/328 304/335 305/334 298/327
f 215/244 314/336 315/337 222/251
f 208/237 313/338 314/336 215/244
f 201/230 312/339 313/338 208/237
f 194/223 311/340 312/339 201/230
f 314/336 319/341 320/342 315/337
f 313/338 318/343 319/341 314/336
f 312/339 317/344 318/343 313/338
f 311/340 316/345 317/344 312/339
f 319/341 324/346 325/347 320/342
f 318/343 323/348 324/346 319/341
f 317/344 322/349 323/348 318/343
f 316/345 321/350 322/349 317/344
f 324/346 329/351 330/352 325/347
f 323/348 328/353 329/351 324/346
f 322/349 327/354 328/353 323/348
f 321/350 326/355 327/354 322/349
f 329/351 334/356 335/357 330/352
f 328/353 333/358 334/356 329/351
f 327/354 332/359 333/358 328/353
f 326/355 331/360 332/359 327/354
f 334/356 339/361 340/362 335/357
f 333/358 338/363 339/361 334/356
f 332/359 337/364 338/363 333/358
f 331/360 336/365 337/364 332/359
f 339/361 344/366 345/367 340/362
f 338/363 343/368 344/366 339/361
f 337/364 342/369 343/368 338/363
f 336/365 341/370 342/369 337/364
f 344/366 349/371 350/372 345/367
f 343/368 348/373 349/371 344/366
f 342/369 347/374 348/373 343/368
f 341/370 346/375 347/374 342/369
f 349/371 354/376 355/377 350/372
f 348/373 353/378 354/376 349/371
f 347/374 352/379 353/378 348/373
f 346/375 351/380 352/379 347/374
f 354/376 359/381 360/382 355/377
f 353/378 358/383 359/381 354/376
f 352/379 357/384 358/383 353/378
f 351/380 356/385 357/384 352/379
f 359/381 364/386 365/387 360/382
f 358/383 363/388 364/386 359/381
f 357/384 362/389 363/388 358/383
f 356/385 361/390 362/389 357/384
f 364/386 369/391 370/392 365/387
f 363/388 368/393 369/391 364/386
f 362/389 367/394 368/393 363/388
f 361/390 366/395 367/394 362/389
f 303/323 310/330 366/395 361/390
f 310/330 371/396 372/397 366/395
f 369/391 375/398 376/399 370/392
f 368/393 374/400 375/398 369/391
f 367/394 373/401 374/400 368/393
f 366/395 372/397 373/401 367/394
f 871/402 377/403 378/404 872/405
f 873/406 381/407 382/408 874/409
f 875/410 380/411 381/407 873/406
f 876/412 379/413 380/411 875/410
f 872/405 378/404 379/413 876/412
f 3/155 8/9 227/258 145/174
f 8/9 9/12 234/265 227/258
f 9/12 10/1 241/272 234/265
f 10/1 11/4 248/279 241/272
f 11/4 12/34 255/286 248/279
f 12/34 13/29 262/293 255/286
f 13/29 14/32 269/300 262/293
f 14/32 15/21 276/307 269/300
f 15/21 16/24 283/314 276/307
f 16/24 17/17 290/321 283/314
f 17/17 18/20 297/328 290/321
f 18/20 19/13 304/335 297/328
f 296/316 303/323 361/390 356/385
f 289/309 296/316 356/385 351/380
f 468/414 390/415 385/416 469/417
f 470/418 388/419 389/420 471/421
f 472/422 387/423 388/419 470/418
f 473/424 383/425 386/426 474/427
f 474/427 386/426 384/428 475/429
f 475/429 384/428 387/423 472/422
f 469/417 385/416 383/425 473/424
f 476/430 399/431 398/432 477/433
f 477/433 398/432 397/434 478/435
f 478/435 397/434 396/436 479/437
f 479/437 396/436 395/438 480/439
f 480/439 395/438 394/440 481/441
f 481/441 394/440 393/442 482/443
f 482/443 393/442 392/444 483/445
f 483/445 392/444 391/446 484/447
f 484/447 391/446 390/415 468/414
f 194/223 187/216 233/253 311/340
f 233/253 240/260 316/345 311/340
f 240/260 247/267 321/350 316/345
f 247/267 254/274 326/355 321/350
f 254/274 261/281 331/360 326/355
f 261/281 268/288 336/365 331/360
f 268/288 275/295 341/370 336/365
f 275/295 282/302 346/375 341/370
f 282/302 289/309 351/380 346/375
f 884/448 877/449 402/450 486/451
f 486/451 402/450 401/452 487/453
f 487/453 401/452 400/454 488/455
f 488/455 400/454 399/431 476/430
f 308/331 408/456 409/457 309/329
f 307/332 407/458 408/456 308/331
f 306/333 406/459 407/458 307/332
f 305/334 405/460 406/459 306/333
f 304/335 404/461 405/460 305/334
f 878/462 414/463 415/464 879/465
f 880/466 413/467 414/463 878/462
f 881/468 412/469 413/467 880/466
f 882/470 411/471 412/469 881/468
f 883/472 410/473 411/471 882/470
f 309/329 409/457 371/396 310/330
f 871/474 371/396 409/457 879/475
f 19/13 20/16 404/461 304/335
f 864/39 21/42 410/473 883/472
f 908/476 428/477 416/478 909/479
f 910/480 427/481 428/477 908/476
f 911/482 426/483 427/481 910/480
f 912/484 425/485 426/483 911/482
f 913/486 424/487 425/485 912/484
f 914/488 423/489 424/487 913/486
f 921/490 489/491 422/492 916/493
f 909/479 416/478 417/494 917/495
f 918/496 420/497 421/498 915/499
f 919/500 419/501 420/497 918/496
f 920/502 418/503 419/501 919/500
f 917/495 417/494 418/503 920/502
f 945/504 441/505 429/506 946/507
f 947/508 440/509 441/505 945/504
f 948/510 439/511 440/509 947/508
f 949/512 438/513 439/511 948/510
f 950/514 437/515 438/513 949/512
f 951/516 436/517 437/515 950/514
f 958/518 490/519 435/520 953/521
f 946/507 429/506 430/522 954/523
f 955/524 433/525 434/526 952/527
f 956/528 432/529 433/525 955/524
f 957/530 431/531 432/529 956/528
f 954/523 430/522 431/531 957/530
f 982/532 454/533 442/534 983/535
f 984/536 453/537 454/533 982/532
f 985/538 452/539 453/537 984/536
f 986/540 451/541 452/539 985/538
f 987/542 450/543 451/541 986/540
f 988/544 449/545 450/543 987/542
f 995/546 491/547 448/548 990/549
f 983/535 442/534 443/550 991/551
f 992/552 446/553 447/554 989/555
f 993/556 445/557 446/553 992/552
f 994/558 444/559 445/557 993/556
f 991/551 443/550 444/559 994/558
f 454/533 467/560 455/561 442/534
f 453/537 466/562 467/560 454/533
f 452/539 465/563 466/562 453/537
f 451/541 464/564 465/563 452/539
f 450/543 463/565 464/564 451/541
f 449/545 462/566 463/565 450/543
f 491/547 492/567 461/568 448/548
f 442/534 455/561 456/569 443/550
f 446/553 459/570 460/571 447/554
f 445/557 458/572 459/570 446/553
f 444/559 457/573 458/572 445/557
f 443/550 456/569 457/573 444/559
f 315/337 468/414 469/417 222/251
f 225/245 470/418 471/421 226/246
f 224/247 472/422 470/418 225/245
f 220/248 473/424 474/427 223/249
f 223/249 474/427 475/429 221/250
f 221/250 475/429 472/422 224/247
f 222/251 469/417 473/424 220/248
f 360/382 476/430 477/433 355/377
f 355/377 477/433 478/435 350/372
f 350/372 478/435 479/437 345/367
f 345/367 479/437 480/439 340/362
f 340/362 480/439 481/441 335/357
f 335/357 481/441 482/443 330/352
f 330/352 482/443 483/445 325/347
f 325/347 483/445 484/447 320/342
f 320/342 484/447 468/414 315/337
f 874/574 884/448 486/451 376/575
f 376/399 486/451 487/453 370/392
f 370/392 487/453 488/455 365/387
f 365/387 488/455 476/430 360/382
f 915/499 421/498 489/491 921/490
f 952/527 434/526 490/519 958/518
f 989/555 447/554 491/547 995/546
f 447/554 460/571 492/567 491/547
f 212/576 494/577 493/578 205/579
f 205/579 493/578 134/580 198/581
f 198/581 134/580 135/582 191/583
f 191/583 135/582 136/584 184/585
f 184/585 136/584 137/586 177/587
f 177/587 137/586 138/588 170/589
f 170/589 138/588 139/590 163/591
f 163/591 139/590 140/592 156/593
f 156/593 140/592 141/594 149/595
f 149/595 141/594 142/596 7/597
f 494/577 505/598 504/599 493/578
f 141/594 502/600 503/601 142/596
f 140/592 501/602 502/600 141/594
f 139/590 500/603 501/602 140/592
f 138/588 499/604 500/603 139/590
f 137/586 498/605 499/604 138/588
f 136/584 497/606 498/605 137/586
f 135/582 496/607 497/606 136/584
f 134/580 495/608 496/607 135/582
f 493/578 504/599 495/608 134/580
f 738/609 698/610 699/611 730/612
f 502/600 513/613 514/614 503/601
f 744/615 601/616 508/617 732/618
f 732/618 508/617 515/619 733/620
f 500/603 499/604 512/621 513/622
f 499/604 498/605 511/623 512/621
f 498/605 497/606 510/624 511/623
f 497/606 496/607 509/625 510/624
f 737/626 696/627 697/628 736/629
f 740/630 694/631 695/632 739/633
f 212/576 219/634 226/635 494/577
f 226/635 471/636 505/598 494/577
f 471/636 389/637 516/638 505/598
f 517/639 117/148 116/147 7/161
f 132/142 532/640 533/641 133/150
f 981/141 996/642 532/640 132/142
f 944/151 959/643 531/644 131/152
f 907/145 922/645 530/646 130/146
f 870/153 885/647 529/648 129/154
f 127/134 527/649 528/650 128/149
f 126/133 526/651 527/649 127/134
f 125/136 525/652 526/651 126/133
f 124/135 524/653 525/652 125/136
f 123/138 523/654 524/653 124/135
f 122/137 522/655 523/654 123/138
f 121/140 521/656 522/655 122/137
f 120/139 520/657 521/656 121/140
f 119/144 519/658 520/657 120/139
f 118/143 518/659 519/658 119/144
f 118/143 117/148 517/639 518/659
f 518/659 535/660 536/661 519/658
f 922/645 923/662 547/663 530/646
f 527/649 544/664 545/665 528/650
f 999/666 998/667 564/668 567/669
f 525/652 542/670 543/671 526/651
f 523/654 540/672 541/673 524/653
f 521/656 538/674 539/675 522/655
f 532/640 549/676 550/677 533/641
f 519/658 536/661 537/678 520/657
f 959/643 960/679 548/680 531/644
f 885/647 886/681 546/682 529/648
f 526/651 543/671 544/664 527/649
f 524/653 541/673 542/670 525/652
f 522/655 539/675 540/672 523/654
f 520/657 537/678 538/674 521/656
f 996/642 997/683 549/676 532/640
f 567/669 564/668 565/684 568/685
f 962/686 961/687 563/688 569/689
f 925/690 924/691 562/692 570/693
f 888/694 887/695 561/696 571/697
f 573/698 559/699 560/700 572/701
f 574/702 558/703 559/699 573/698
f 575/704 557/705 558/703 574/702
f 576/706 556/707 557/705 575/704
f 577/708 555/709 556/707 576/706
f 578/710 554/711 555/709 577/708
f 579/712 553/713 554/711 578/710
f 580/714 552/715 553/713 579/712
f 581/716 551/717 552/715 580/714
f 582/718 534/719 551/717 581/716
f 142/596 566/720 517/639 7/597
f 517/639 566/720 535/660 518/659
f 997/683 999/666 567/669 549/676
f 549/676 567/669 568/685 550/677
f 960/679 962/686 569/689 548/680
f 923/662 925/690 570/693 547/663
f 886/681 888/694 571/697 546/682
f 544/664 573/698 572/701 545/665
f 543/671 574/702 573/698 544/664
f 542/670 575/704 574/702 543/671
f 541/673 576/706 575/704 542/670
f 540/672 577/708 576/706 541/673
f 539/675 578/710 577/708 540/672
f 538/674 579/712 578/710 539/675
f 537/678 580/714 579/712 538/674
f 536/661 581/716 580/714 537/678
f 535/660 582/718 581/716 536/661
f 583/721 582/718 535/660 566/720
f 503/601 583/721 566/720 142/596
f 514/614 584/722 583/721 503/601
f 534/719 582/718 583/721 584/722
f 584/722 589/723 586/724 534/719
f 514/614 585/725 589/723 584/722
f 534/719 586/724 587/726 551/717
f 551/717 587/726 588/727 552/715
f 513/622 512/621 585/725 514/614
f 589/723 594/728 591/729 586/724
f 585/725 590/730 594/728 589/723
f 586/724 591/729 592/731 587/726
f 587/726 592/731 593/732 588/727
f 512/621 511/623 590/730 585/725
f 594/728 599/733 596/734 591/729
f 590/730 595/735 599/733 594/728
f 591/729 596/734 597/736 592/731
f 592/731 597/736 598/737 593/732
f 511/623 510/624 595/735 590/730
f 388/738 605/739 604/740 389/741
f 389/637 604/740 600/742 516/638
f 742/743 506/744 693/745 741/746
f 736/629 697/628 698/610 738/609
f 739/633 695/632 696/627 737/626
f 741/746 693/745 694/631 740/630
f 387/747 608/748 605/739 388/738
f 384/749 609/750 608/748 387/747
f 743/751 606/752 603/753 731/754
f 509/625 607/755 595/735 510/624
f 599/733 613/756 610/757 596/734
f 596/734 610/757 611/758 597/736
f 597/736 611/758 612/759 598/737
f 599/733 595/735 607/755 613/756
f 607/755 621/760 627/761 613/756
f 613/756 627/761 624/762 610/757
f 610/757 624/762 625/763 611/758
f 611/758 625/763 626/764 612/759
f 496/607 495/608 616/765 617/766
f 504/599 505/598 516/638 615/767
f 608/748 622/768 619/769 605/739
f 609/750 623/770 622/768 608/748
f 605/739 619/769 618/771 604/740
f 620/772 621/760 607/755 509/625
f 504/599 615/767 616/765 495/608
f 604/740 618/771 614/773 600/742
f 496/607 617/766 620/772 509/625
f 626/764 632/774 631/775 612/759
f 612/759 631/775 630/776 598/737
f 598/737 630/776 629/777 593/732
f 593/732 629/777 628/778 588/727
f 632/774 637/779 636/780 631/775
f 631/775 636/780 635/781 630/776
f 630/776 635/781 634/782 629/777
f 629/777 634/782 633/783 628/778
f 637/779 642/784 641/785 636/780
f 636/780 641/785 640/786 635/781
f 635/781 640/786 639/787 634/782
f 634/782 639/787 638/788 633/783
f 642/784 647/789 646/790 641/785
f 641/785 646/790 645/791 640/786
f 640/786 645/791 644/792 639/787
f 639/787 644/792 643/793 638/788
f 647/789 652/794 651/795 646/790
f 646/790 651/795 650/796 645/791
f 645/791 650/796 649/797 644/792
f 644/792 649/797 648/798 643/793
f 652/794 657/799 656/800 651/795
f 651/795 656/800 655/801 650/796
f 650/796 655/801 654/802 649/797
f 649/797 654/802 653/803 648/798
f 657/799 662/804 661/805 656/800
f 656/800 661/805 660/806 655/801
f 655/801 660/806 659/807 654/802
f 654/802 659/807 658/808 653/803
f 662/804 667/809 666/810 661/805
f 661/805 666/810 665/811 660/806
f 660/806 665/811 664/812 659/807
f 659/807 664/812 663/813 658/808
f 889/814 672/815 671/816 890/817
f 890/817 671/816 670/818 891/819
f 891/819 670/818 669/820 892/821
f 892/821 669/820 668/822 893/823
f 926/824 677/825 676/826 927/827
f 927/827 676/826 675/828 928/829
f 928/829 675/828 674/830 929/831
f 929/831 674/830 673/832 930/833
f 963/834 682/835 681/836 964/837
f 964/837 681/836 680/838 965/839
f 965/839 680/838 679/840 966/841
f 966/841 679/840 678/842 967/843
f 1000/844 687/845 686/846 1001/847
f 1001/847 686/846 685/848 1002/849
f 1002/849 685/848 684/850 1003/851
f 1003/851 684/850 683/852 1004/853
f 687/845 692/854 691/855 686/846
f 686/846 691/855 690/856 685/848
f 685/848 690/856 689/857 684/850
f 684/850 689/857 688/858 683/852
f 500/603 513/622 502/600 501/602
f 733/620 515/619 507/859 734/860
f 734/860 507/859 506/744 742/743
f 731/754 603/753 602/861 735/862
f 735/862 602/861 601/616 744/615
f 747/863 701/864 700/865 752/866
f 753/867 710/868 711/869 758/870
f 759/871 703/872 701/864 747/863
f 762/873 702/874 703/872 759/871
f 765/875 704/876 702/874 762/873
f 768/877 706/878 705/879 773/880
f 774/881 708/882 709/883 779/884
f 773/880 705/879 704/876 765/875
f 758/870 711/869 712/885 782/886
f 779/884 709/883 710/868 753/867
f 783/887 707/888 706/878 768/877
f 752/866 700/865 708/882 774/881
f 782/886 712/885 713/889 788/890
f 788/890 713/889 714/891 791/892
f 657/799 718/893 716/894 662/804
f 621/760 725/895 726/896 627/761
f 627/761 726/896 727/897 624/762
f 647/789 717/898 715/899 652/794
f 637/779 720/900 719/901 642/784
f 626/764 722/902 721/903 632/774
f 652/794 715/899 718/893 657/799
f 642/784 719/901 717/898 647/789
f 632/774 721/903 720/900 637/779
f 616/765 723/904 724/905 617/766
f 624/762 727/897 728/906 625/763
f 625/763 728/906 722/902 626/764
f 617/766 724/905 729/907 620/772
f 620/772 729/907 725/895 621/760
f 718/893 738/609 730/612 716/894
f 725/895 744/615 732/618 726/896
f 726/896 732/618 733/620 727/897
f 717/898 737/626 736/629 715/899
f 720/900 740/630 739/633 719/901
f 722/902 742/743 741/746 721/903
f 715/899 736/629 738/609 718/893
f 719/901 739/633 737/626 717/898
f 721/903 741/746 740/630 720/900
f 723/904 743/751 731/754 724/905
f 727/897 733/620 734/860 728/906
f 728/906 734/860 742/743 722/902
f 724/905 731/754 735/862 729/907
f 729/907 735/862 744/615 725/895
f 746/908 745/909 600/742 614/773
f 743/751 723/904 745/909 746/908
f 615/767 745/909 723/904 616/765
f 600/742 745/909 615/767 516/638
f 507/859 749/910 750/911 506/744
f 749/910 748/912 751/913 750/911
f 748/912 747/863 752/866 751/913
f 695/632 755/914 756/915 696/627
f 755/914 754/916 757/917 756/915
f 754/916 753/867 758/870 757/917
f 515/619 761/918 749/910 507/859
f 761/918 760/919 748/912 749/910
f 760/919 759/871 747/863 748/912
f 508/617 764/920 761/918 515/619
f 764/920 763/921 760/919 761/918
f 763/921 762/873 759/871 760/919
f 601/616 767/922 764/920 508/617
f 767/922 766/923 763/921 764/920
f 766/923 765/875 762/873 763/921
f 603/753 770/924 771/925 602/861
f 770/924 769/926 772/927 771/925
f 769/926 768/877 773/880 772/927
f 693/745 776/928 777/929 694/631
f 776/928 775/930 778/931 777/929
f 775/930 774/881 779/884 778/931
f 602/861 771/925 767/922 601/616
f 771/925 772/927 766/923 767/922
f 772/927 773/880 765/875 766/923
f 696/627 756/915 780/932 697/628
f 756/915 757/917 781/933 780/932
f 757/917 758/870 782/886 781/933
f 694/631 777/929 755/914 695/632
f 777/929 778/931 754/916 755/914
f 778/931 779/884 753/867 754/916
f 606/752 785/934 770/924 603/753
f 785/934 784/935 769/926 770/924
f 784/935 783/887 768/877 769/926
f 506/744 750/911 776/928 693/745
f 750/911 751/913 775/930 776/928
f 751/913 752/866 774/881 775/930
f 697/628 780/932 786/936 698/610
f 780/932 781/933 787/937 786/936
f 781/933 782/886 788/890 787/937
f 698/610 786/936 789/938 699/611
f 786/936 787/937 790/939 789/938
f 787/937 788/890 791/892 790/939
f 614/773 792/940 796/941 746/908
f 622/768 795/942 794/943 619/769
f 619/769 794/943 793/944 618/771
f 618/771 793/944 792/940 614/773
f 792/940 797/945 801/946 796/941
f 795/942 800/947 799/948 794/943
f 794/943 799/948 798/949 793/944
f 793/944 798/949 797/945 792/940
f 797/945 802/950 806/951 801/946
f 800/947 805/952 804/953 799/948
f 799/948 804/953 803/954 798/949
f 798/949 803/954 802/950 797/945
f 802/950 807/955 811/956 806/951
f 805/952 810/957 809/958 804/953
f 804/953 809/958 808/959 803/954
f 803/954 808/959 807/955 802/950
f 807/955 812/960 816/961 811/956
f 810/957 815/962 814/963 809/958
f 809/958 814/963 813/964 808/959
f 808/959 813/964 812/960 807/955
f 810/957 820/965 821/966 815/962
f 805/952 819/967 820/965 810/957
f 800/947 818/968 819/967 805/952
f 795/942 817/969 818/968 800/947
f 622/768 623/770 817/969 795/942
f 606/752 743/751 746/908 796/941
f 785/934 606/752 796/941 801/946
f 784/935 785/934 801/946 806/951
f 783/887 784/935 806/951 811/956
f 707/888 783/887 811/956 816/961
f 553/713 552/715 588/727 628/778
f 554/711 553/713 628/778 633/783
f 555/709 554/711 633/783 638/788
f 556/707 555/709 638/788 643/793
f 557/705 556/707 643/793 648/798
f 558/703 557/705 648/798 653/803
f 559/699 558/703 653/803 658/808
f 560/700 559/699 658/808 663/813
f 887/970 560/700 663/813 893/971
f 924/972 561/973 668/974 930/975
f 961/976 562/977 673/978 967/979
f 998/980 563/981 678/982 1004/983
f 565/684 564/668 683/852 688/858
f 791/892 828/984 827/985 790/939
f 790/939 827/985 826/986 789/938
f 789/938 826/986 822/987 699/611
f 730/612 825/988 824/989 716/894
f 714/891 823/990 828/984 791/892
f 699/611 822/987 825/988 730/612
f 894/991 835/992 834/993 895/994
f 895/994 834/993 833/995 896/996
f 896/996 833/995 829/997 897/998
f 898/999 832/1000 831/1001 899/1002
f 900/1003 830/1004 835/992 894/991
f 897/998 829/997 832/1000 898/999
f 931/1005 842/1006 841/1007 932/1008
f 932/1008 841/1007 840/1009 933/1010
f 933/1010 840/1009 836/1011 934/1012
f 935/1013 839/1014 838/1015 936/1016
f 937/1017 837/1018 842/1006 931/1005
f 934/1012 836/1011 839/1014 935/1013
f 968/1019 849/1020 848/1021 969/1022
f 969/1022 848/1021 847/1023 970/1024
f 970/1024 847/1023 843/1025 971/1026
f 972/1027 846/1028 845/1029 973/1030
f 974/1031 844/1032 849/1020 968/1019
f 971/1026 843/1025 846/1028 972/1027
f 1005/1033 856/1034 855/1035 1006/1036
f 1006/1036 855/1035 854/1037 1007/1038
f 1007/1038 854/1037 850/1039 1008/1040
f 1009/1041 853/1042 852/1043 1010/1044
f 1011/1045 851/1046 856/1034 1005/1033
f 1008/1040 850/1039 853/1042 1009/1041
f 856/1034 863/1047 862/1048 855/1035
f 855/1035 862/1048 861/1049 854/1037
f 854/1037 861/1049 857/1050 850/1039
f 853/1042 860/1051 859/1052 852/1043
f 851/1046 858/1053 863/1047 856/1034
f 850/1039 857/1050 860/1051 853/1042
f 692/854 687/845 852/1043 859/1052
f 1000/1054 682/1055 845/1056 1010/1057
f 963/1058 677/1059 838/1060 973/1061
f 926/1062 672/1063 831/1064 936/1065
f 889/1066 667/1067 824/1068 899/1069
f 667/809 662/804 716/894 824/1068
f 901/5 22/8 423/489 914/488
f 938/35 23/38 436/517 951/516
f 975/43 24/25 449/545 988/544
f 24/25 25/28 462/566 449/545
f 20/16 38/15 865/40 864/39
f 38/15 56/66 866/57 865/40
f 56/66 74/88 867/77 866/57
f 74/88 92/109 868/95 867/77
f 92/109 110/129 869/113 868/95
f 110/129 128/149 870/153 869/113
f 371/396 871/474 872/405 372/397
f 375/398 873/406 874/409 376/399
f 374/400 875/410 873/406 375/398
f 373/401 876/412 875/410 374/400
f 372/397 872/405 876/412 373/401
f 485/1070 403/1071 877/449 884/448
f 408/456 878/462 879/465 409/457
f 407/458 880/466 878/462 408/456
f 406/459 881/468 880/466 407/458
f 405/460 882/470 881/468 406/459
f 404/461 883/472 882/470 405/460
f 377/403 871/402 879/475 415/464
f 20/16 864/39 883/472 404/461
f 382/408 485/1070 884/448 874/409
f 128/149 528/650 885/647 870/153
f 528/650 545/665 886/681 885/647
f 572/701 560/700 887/970 888/694
f 545/665 572/701 888/694 886/681
f 667/809 889/1066 890/817 666/810
f 666/810 890/817 891/819 665/811
f 665/811 891/819 892/821 664/812
f 664/812 892/821 893/823 663/813
f 561/973 887/695 893/971 668/974
f 828/984 894/991 895/994 827/985
f 827/985 895/994 896/996 826/986
f 826/986 896/996 897/998 822/987
f 825/988 898/999 899/1002 824/989
f 823/990 900/1003 894/991 828/984
f 822/987 897/998 898/999 825/988
f 672/1063 889/814 899/1069 831/1064
f 21/42 39/41 902/6 901/5
f 39/41 57/58 903/63 902/6
f 57/58 75/78 904/85 903/63
f 75/78 93/96 905/106 904/85
f 93/96 111/114 906/126 905/106
f 111/114 129/154 907/145 906/126
f 415/464 908/476 909/479 377/403
f 414/463 910/480 908/476 415/464
f 413/467 911/482 910/480 414/463
f 412/469 912/484 911/482 413/467
f 411/471 913/486 912/484 412/469
f 410/473 914/488 913/486 411/471
f 485/1070 921/490 916/493 403/1071
f 377/403 909/479 917/495 378/404
f 381/407 918/496 915/499 382/408
f 380/411 919/500 918/496 381/407
f 379/413 920/502 919/500 380/411
f 378/404 917/495 920/502 379/413
f 382/408 915/499 921/490 485/1070
f 129/154 529/648 922/645 907/145
f 529/648 546/682 923/662 922/645
f 571/697 561/696 924/972 925/690
f 546/682 571/697 925/690 923/662
f 672/815 926/1062 927/827 671/816
f 671/816 927/827 928/829 670/818
f 670/818 928/829 929/831 669/820
f 669/820 929/831 930/833 668/822
f 562/977 924/691 930/975 673/978
f 835/992 931/1005 932/1008 834/993
f 834/993 932/1008 933/1010 833/995
f 833/995 933/1010 934/1012 829/997
f 832/1000 935/1013 936/1016 831/1001
f 830/1004 937/1017 931/1005 835/992
f 829/997 934/1012 935/1013 832/1000
f 677/1059 926/824 936/1065 838/1060
f 21/42 901/5 914/488 410/473
f 22/8 40/7 939/36 938/35
f 40/7 58/64 940/53 939/36
f 58/64 76/86 941/73 940/53
f 76/86 94/107 942/91 941/73
f 94/107 112/127 943/131 942/91
f 112/127 130/146 944/151 943/131
f 428/477 945/504 946/507 416/478
f 427/481 947/508 945/504 428/477
f 426/483 948/510 947/508 427/481
f 425/485 949/512 948/510 426/483
f 424/487 950/514 949/512 425/485
f 423/489 951/516 950/514 424/487
f 489/491 958/518 953/521 422/492
f 416/478 946/507 954/523 417/494
f 420/497 955/524 952/527 421/498
f 419/501 956/528 955/524 420/497
f 418/503 957/530 956/528 419/501
f 417/494 954/523 957/530 418/503
f 421/498 952/527 958/518 489/491
f 130/146 530/646 959/643 944/151
f 530/646 547/663 960/679 959/643
f 570/693 562/692 961/976 962/686
f 547/663 570/693 962/686 960/679
f 677/825 963/1058 964/837 676/826
f 676/826 964/837 965/839 675/828
f 675/828 965/839 966/841 674/830
f 674/830 966/841 967/843 673/832
f 563/981 961/687 967/979 678/982
f 842/1006 968/1019 969/1022 841/1007
f 841/1007 969/1022 970/1024 840/1009
f 840/1009 970/1024 971/1026 836/1011
f 839/1014 972/1027 973/1030 838/1015
f 837/1018 974/1031 968/1019 842/1006
f 836/1011 971/1026 972/1027 839/1014
f 682/1055 963/834 973/1061 845/1056
f 22/8 938/35 951/516 423/489
f 23/38 41/37 976/44 975/43
f 41/37 59/54 977/62 976/44
f 59/54 77/74 978/84 977/62
f 77/74 95/92 979/104 978/84
f 95/92 113/132 980/123 979/104
f 113/132 131/152 981/141 980/123
f 441/505 982/532 983/535 429/506
f 440/509 984/536 982/532 441/505
f 439/511 985/538 984/536 440/509
f 438/513 986/540 985/538 439/511
f 437/515 987/542 986/540 438/513
f 436/517 988/544 987/542 437/515
f 490/519 995/546 990/549 435/520
f 429/506 983/535 991/551 430/522
f 433/525 992/552 989/555 434/526
f 432/529 993/556 992/552 433/525
f 431/531 994/558 993/556 432/529
f 430/522 991/551 994/558 431/531
f 434/526 989/555 995/546 490/519
f 131/152 531/644 996/642 981/141
f 569/689 563/688 998/980 999/666
f 531/644 548/680 997/683 996/642
f 548/680 569/689 999/666 997/683
f 682/835 1000/1054 1001/847 681/836
f 681/836 1001/847 1002/849 680/838
f 680/838 1002/849 1003/851 679/840
f 679/840 1003/851 1004/853 678/842
f 564/668 998/667 1004/983 683/852
f 849/1020 1005/1033 1006/1036 848/1021
f 848/1021 1006/1036 1007/1038 847/1023
f 847/1023 1007/1038 1008/1040 843/1025
f 846/1028 1009/1041 1010/1044 845/1029
f 844/1032 1011/1045 1005/1033 849/1020
f 843/1025 1008/1040 1009/1041 846/1028
f 687/845 1000/844 1010/1057 852/1043
f 23/38 975/43 988/544 436/517
